<svg width="104" height="40" viewBox="0 0 104 40" fill="none" xmlns="http://www.w3.org/2000/svg">
<path d="M14.3484 35.6684C12.6327 34.3263 10.8201 33.0395 9.56098 31.2131C6.94587 27.9891 4.9119 24.3363 3.54209 20.4067C2.71189 17.8746 2.42133 15.1627 1.34208 12.7274C0.221316 10.9564 1.53579 9.01924 3.4729 8.46578C4.33077 8.29974 5.85279 7.48339 4.02636 8.06452C2.37982 9.2683 2.22761 6.97144 3.91567 6.81924C5.0641 6.66703 5.49304 5.72615 5.09178 4.88212C3.86033 4.0796 8.08047 3.19406 5.94964 1.99028C3.7358 -0.403438 9.04903 -0.860044 7.73456 1.85192C7.41632 3.94124 11.4427 1.46449 10.5157 3.87205C11.4704 5.03432 14.0717 4.13495 14.0025 5.75382C15.3862 5.85068 15.8566 7.01295 17.1572 7.09597C18.4994 7.70477 20.9346 8.18905 21.3912 9.69724C20.0629 10.7488 16.9635 7.51106 16.8252 10.4444C17.2264 14.7614 17.1296 19.2168 18.7069 23.3262C19.4541 25.8168 21.2667 27.7816 22.8994 29.7187C24.4629 31.6143 26.5799 32.9565 28.7523 34.0772C30.6617 34.9489 32.6818 35.5854 34.7573 35.9313C35.6013 35.2948 37.0819 32.9011 38.3825 33.9112C38.4517 35.0458 35.7812 36.2772 38.258 36.1527C39.7108 35.7099 40.7209 37.2735 41.9108 35.8621C43.0177 37.1628 46.4907 35.0319 45.702 37.6886C44.6504 38.3665 43.1008 37.9653 42.0353 38.8923C40.2919 38.0206 38.8944 39.681 36.9573 39.4596C34.7988 39.8332 32.6265 40.0131 30.4403 39.9993C26.8705 39.7225 23.2176 39.598 19.8139 38.3527C17.9044 37.8546 16.0365 36.7615 14.3484 35.6684ZM17.3786 36.9829C19.2466 37.7854 21.0868 38.6433 23.1346 38.9062C26.3862 39.3628 29.7485 40.0546 33.0139 39.4181C31.5334 38.754 30.0114 39.681 28.5309 38.9338C26.7598 39.3213 24.8642 38.837 23.0793 38.6018C21.0315 37.6886 18.8315 37.0659 16.922 35.8898C14.5283 35.0181 18.1535 37.0106 18.8038 37.1766C20.2981 38.0206 17.1572 36.7477 16.7145 36.3879C15.4692 35.6823 15.3031 35.8345 16.5899 36.5401C16.8528 36.6923 17.1019 36.8445 17.3786 36.9829ZM13.8088 34.4646C15.6214 35.1426 13.795 33.1917 12.9648 33.3024C12.5912 32.6659 11.5534 32.2646 12.2868 31.9187C10.9723 32.3753 10.9031 30.1753 10.2943 30.4936C8.89683 30.0508 9.75469 28.4873 8.09431 27.5325C7.9421 26.5225 6.44776 25.6508 5.96348 24.1287C5.75593 23.3539 4.27542 21.1124 5.1748 23.1879C5.94964 25.1942 7.31946 26.9099 8.45406 28.6256C9.3396 30.2583 10.3773 31.9602 11.9824 32.9841C12.522 33.5099 13.0478 34.2986 13.8088 34.4646ZM8.59242 28.7225C8.64777 28.4457 8.9245 29.3174 8.59242 28.7225V28.7225ZM15.9811 35.2672C15.4138 35.0458 16.3824 35.0873 15.9811 35.2672V35.2672ZM16.9635 35.6269C16.5208 35.9036 16.8667 35.1288 16.9635 35.6269V35.6269ZM18.195 36.1389C17.2956 35.7791 18.79 35.5854 18.195 36.1389V36.1389ZM20.312 37.315C19.1774 37.1213 20.6717 36.7892 20.312 37.315V37.315ZM16.2579 34.4923C15.0818 34.4785 17.1711 33.8973 16.2579 34.4923V34.4923ZM17.1849 34.9489C16.8528 35.0873 17.1572 34.6307 17.1849 34.9489V34.9489ZM21.8063 37.8269C22.5535 38.2974 26.1372 38.8508 23.8956 38.0206C23.5082 38.1037 19.717 36.9552 21.8063 37.8269ZM14.473 32.1263C13.3107 31.7804 14.4038 31.808 14.473 32.1263V32.1263ZM16.6176 33.3716C15.4553 33.0672 17.1849 32.9841 16.6176 33.3716V33.3716ZM18.4302 34.4785C17.1296 34.1741 19.2327 34.1741 18.4302 34.4785V34.4785ZM13.5874 31.1577C14.4591 31.8219 17.1019 31.2407 14.9157 30.7565C13.9195 30.2307 11.6918 29.8709 13.2138 31.0747L13.5874 31.1577ZM19.6478 34.8521C18.1258 34.5062 20.0214 34.2433 19.6478 34.8521V34.8521ZM17.8076 33.3992C19.9384 34.008 16.0088 32.0571 17.2818 33.1778L17.5585 33.3024L17.8076 33.3992ZM21.5019 35.5301C19.6755 35.2533 23.5221 35.5439 21.5019 35.5301V35.5301ZM12.8126 29.9954C12.3145 30.037 12.7434 29.6219 12.8126 29.9954V29.9954ZM24.9195 37.4533C24.2554 37.9515 24.9749 36.7753 24.9195 37.4533V37.4533ZM16.2579 32.0986C15.6352 32.0986 16.1333 31.7527 16.2579 32.0986V32.0986ZM13.0063 29.7602C11.4151 29.2483 14.1685 29.691 13.0063 29.7602V29.7602ZM9.15972 27.2696C7.90059 26.2734 9.00752 26.7162 9.15972 27.2696V27.2696ZM19.2742 33.6898C19.0528 33.4546 19.1774 33.7451 19.2742 33.6898V33.6898ZM25.5699 37.564C25.2239 37.7024 25.5422 37.1904 25.5699 37.564V37.564ZM18.7208 33.1225C17.7245 32.9703 18.8315 32.6382 18.7208 33.1225V33.1225ZM14.0302 30.1476C12.6465 29.5665 14.888 30.0508 14.0302 30.1476V30.1476ZM21.9585 35.0735C20.644 34.8106 23.3007 34.5477 21.9585 35.0735V35.0735ZM17.8352 32.2785C19.3849 32.4722 15.995 31.2269 17.4893 32.1678L17.8352 32.2785ZM23.2176 35.5854C24.6566 34.7275 24.1862 37.6055 25.6667 35.8345C27.1334 34.769 24.4076 37.1489 26.2063 36.0282C27.507 35.1565 29.4441 36.4433 30.6479 36.8584C31.5196 36.8169 32.3774 37.6194 33.2768 37.1351C35.0064 36.6647 29.9007 36.4433 31.2428 35.6131C29.6655 36.0697 28.4894 35.0596 27.7145 34.0495C25.9434 33.6344 23.8956 32.7351 23.0101 31.1715C22.6503 30.5766 23.5359 31.2546 22.7057 30.286C21.6403 29.3313 21.1007 28.252 20.3812 27.1036C19.5233 26.647 19.4264 25.3049 19.3434 27.0621C19.3434 25.9552 18.3057 25.208 18.0566 25.5124C18.0566 24.447 19.1635 24.9728 18.3887 24.1979C18.2227 23.091 17.6692 21.9426 17.5032 20.6835C17.2403 20.0746 17.4616 18.7878 16.6176 20.1577C16.3132 21.5967 16.5069 18.3866 16.9912 19.452C17.6277 18.3727 16.7698 18.4973 16.7283 18.6495C17.1434 17.7363 16.9912 16.4495 16.6176 16.9337C16.839 15.9652 16.9635 13.3778 16.2855 13.8344C16.7006 12.8243 17.0604 9.21296 15.2893 10.5828C14.5698 10.5966 13.3245 10.8457 12.7434 11.1362C14.5836 12.1463 12.5635 11.496 11.8025 11.3438C11.7056 12.2847 10.9585 11.8834 10.0314 11.8834C11.5119 12.0633 9.31192 13.4054 8.45406 12.8796C7.34713 13.4054 9.40878 14.7199 8.48173 15.135C8.59242 15.7438 6.79367 14.9136 6.93204 16.3249C5.85279 15.8683 6.77984 18.013 7.31946 17.2935C9.14588 17.7916 8.60626 18.9124 8.64777 19.9778C8.32953 20.6004 7.16726 18.5111 8.37104 18.608C7.41632 17.0583 7.31946 18.0545 6.53078 18.7602C6.3509 18.8155 8.55091 19.7841 7.16726 20.2684C8.38487 20.4621 8.41255 21.5136 8.66161 22.1916C9.39494 22.9526 9.24274 21.3476 10.1144 22.2608C9.56098 21.4445 7.18109 19.9639 9.09054 20.4344C9.0767 19.618 8.74463 18.9539 9.32576 18.9677C9.90689 17.9161 8.71695 21.5552 10.0314 20.2268C10.3912 20.0746 10.488 19.1753 11.1383 20.3099C12.0792 21.2369 11.4843 21.9149 10.1421 21.0709C10.3773 21.8872 11.927 22.164 11.6365 23.4369C11.9409 24.5438 12.3698 24.1426 12.7434 24.0734C13.034 25.1527 13.2 24.364 13.2138 23.8382C14.5698 24.1287 14.2516 24.9313 14.6667 25.4847C15.5937 25.8998 13.3384 22.6344 14.9296 24.5023C16.6038 26.0244 15.566 26.647 14.0579 26.4118C15.0126 26.3288 15.317 27.6986 16.5208 27.6571C17.6138 28.169 18.3472 30.1615 16.4654 29.3313C15.8151 28.7502 13.5182 28.0168 15.3862 29.1376C17.1296 29.9401 18.4994 30.4244 20.1736 31.4344C21.3774 32.2923 21.8893 33.2747 22.3459 33.4684C21.3359 33.9527 19.3157 33.081 20.8101 32.8181C19.8692 32.6521 18.8176 32.1678 19.717 33.3439C20.478 33.9804 22.429 33.9112 22.7749 33.9804C22.4843 34.6307 21.9724 34.686 22.7887 34.7414C21.917 35.2395 23.1208 35.3087 23.2176 35.5854ZM21.3636 30.3275C20.8101 29.7464 20.6717 28.6671 21.2667 29.608C21.5711 29.7325 22.2353 31.3791 21.3636 30.3275ZM27.4101 34.1741C27.424 34.437 27.756 34.1602 27.4101 34.1741V34.1741ZM20.478 28.9024C20.4503 28.0307 20.6717 29.5803 20.478 28.9024V28.9024ZM19.883 28.0998C19.1774 26.7577 20.7547 28.4734 19.883 28.0998V28.0998ZM12.5912 23.0633C12.7849 23.769 12.9924 22.9526 12.5912 23.0633V23.0633ZM18.4025 26.2042C18.6377 25.2633 18.6793 27.0067 18.4025 26.2042V26.2042ZM14.2792 23.3539C13.9887 22.8419 14.888 23.852 14.2792 23.3539V23.3539ZM17.8076 24.4747C17.1434 22.9942 18.278 23.6721 17.9598 24.7237L17.8076 24.4747ZM11.7333 20.4344C11.4427 19.9501 10.9585 18.5249 11.1107 18.096C11.249 18.8017 12.6189 21.1401 11.7748 19.0646C10.8478 17.3212 12.8818 19.6319 13.0893 20.0608C13.1862 20.4897 12.522 19.9363 12.9786 20.9602C12.1484 19.8117 12.4805 21.5967 11.7333 20.4344ZM9.85155 19.1338C9.93457 18.013 10.2805 19.9224 9.85155 19.1338V19.1338ZM10.6956 19.4243C11.0968 18.5803 11.3874 20.6281 10.6956 19.4243V19.4243ZM8.67544 17.8608C7.98361 17.169 7.47166 16.5325 8.70312 17.4319C9.17356 17.4457 7.6377 15.979 8.81381 16.9614C10.0453 17.1966 9.42261 18.9954 8.67544 17.8608ZM9.74086 17.8331C9.9484 18.2344 10.1421 17.4319 9.74086 17.8331V17.8331ZM10.3912 18.0545C9.78236 16.8922 11.1383 18.525 10.3912 18.0545V18.0545ZM9.09054 16.8092C7.05657 14.9966 11.6365 17.7501 9.42262 17.1413L9.09054 16.8092ZM14.9019 20.1853C14.0163 19.6595 14.6667 16.4771 14.9711 18.6495C15.8289 18.3727 14.9296 19.7702 15.566 19.7564C15.4692 20.6419 15.1786 20.9602 14.9019 20.1853ZM17.0604 21.4583C17.1434 20.4897 17.2403 22.1086 17.0604 21.4583V21.4583ZM16.6868 21.0847C16.7006 21.569 16.7837 20.6696 16.6868 21.0847V21.0847ZM9.4918 16.2004C8.19116 14.4017 13.283 18.0268 10.322 16.657C10.0176 16.5878 9.644 16.5602 9.4918 16.2004ZM13.6289 18.4004C13.5182 16.8784 13.9057 18.6495 13.6289 18.4004V18.4004ZM16.7837 20.4206C16.7975 21.0017 17.0189 19.5627 16.7837 20.4206V20.4206ZM9.68551 15.5224C10.4604 15.3564 12.8956 16.8784 10.6541 15.9514C10.4188 15.6746 9.87922 15.813 9.68551 15.5224ZM16.3409 18.8432C16.4239 17.2935 16.8113 17.9161 16.3409 19.0646V18.8432ZM10.2528 14.9828C10.571 14.5124 9.40878 12.8935 10.4188 14.4017C10.8478 14.7476 11.678 14.9828 10.9446 15.1212C12.1069 16.1312 10.6817 15.3979 10.2528 14.9828ZM16.0088 18.3589C16.2025 19.3967 16.2302 16.5878 16.0088 18.3589V18.3589ZM9.60249 13.3501C9.72702 13.6683 9.85155 13.2532 9.60249 13.3501V13.3501ZM11.1107 14.2495C11.4843 13.4331 11.8163 15.1488 11.1107 14.2495V14.2495ZM15.3447 16.6017C15.3308 16.2834 15.4138 17.0583 15.3447 16.6017V16.6017ZM15.0956 16.0482C14.5006 14.6092 15.6352 16.8231 15.0956 16.0482V16.0482ZM14.7358 15.1073C14.639 14.4985 15.0679 15.8545 14.7358 15.1073V15.1073ZM15.317 14.1526C14.9157 13.4469 15.8289 11.0255 15.9258 12.5199C15.4969 13.696 15.8013 14.3463 16.1057 12.7828C16.6591 11.5375 15.995 15.2042 15.317 14.1526ZM15.9258 10.5551C15.9673 10.818 16.0918 10.3337 15.9258 10.5551V10.5551ZM14.9157 30.3967C14.6805 30.1892 14.9434 30.5351 14.9157 30.3967V30.3967ZM16.9912 31.4483C18.1396 31.7388 18.1396 31.2684 17.1019 31.13C16.5346 30.6042 14.7635 30.0508 16.3547 31.0609C16.4516 31.3376 16.7975 31.3237 16.9912 31.4483ZM12.8956 28.7225C13.5321 29.1929 15.2893 30.0646 13.795 28.9024C14.2931 28.3212 12.8264 28.003 13.3245 27.6156C12.0931 26.8545 12.356 26.9237 13.2138 26.9514C11.7333 26.2872 13.4352 26.3426 13.3522 25.9967C12.7849 25.886 10.5157 24.9866 11.844 26.0659C10.488 25.374 11.5258 26.3288 11.1107 26.2181C9.72702 25.8445 12.3421 27.2696 10.8893 26.9237C11.6918 27.5602 13.034 28.5426 11.2214 27.5879C11 27.9476 12.522 28.4734 12.8956 28.7225ZM15.0679 29.9678C13.7673 28.9439 17.6969 30.8256 15.0679 29.9678V29.9678ZM26.1787 36.7062C25.8051 37.1489 26.2063 36.1804 26.1787 36.7062V36.7062ZM27.3133 37.1904C27.9221 36.5955 27.3409 38.1313 28.3233 37.0521C28.3372 36.2772 28.2957 35.8206 27.1887 36.7615C26.8843 36.9275 26.746 37.647 27.3133 37.1904ZM9.18739 25.803C7.87292 25.0696 8.99368 25.0696 9.18739 25.803V25.803ZM10.405 26.6055C8.78613 25.9275 9.9484 25.8583 10.405 26.6055V26.6055ZM17.3371 30.7841C18.0151 31.3929 20.4503 31.2269 18.1535 30.8533C17.8214 30.3552 16.0088 30.4797 17.3371 30.7841ZM26.8843 36.6785C25.8743 37.0659 27.9221 35.8068 26.8843 36.6785V36.6785ZM29.0567 38.1728C28.6001 38.2835 29.0567 37.8823 29.0567 38.1728V38.1728ZM29.0567 37.7716C27.9359 37.8408 30.2051 36.554 29.0567 37.7716V37.7716ZM6.18486 23.2986C5.20247 21.9011 5.57606 21.2646 4.62134 20.1162C4.44146 19.2444 2.98862 17.252 3.87416 19.3551C4.67668 20.5866 4.92574 22.496 6.18486 23.2986ZM28.6831 37.3842C27.8114 36.7892 30.8139 36.0143 28.6831 37.3842V37.3842ZM30.3158 38.0206C29.6378 37.8269 31.3674 37.1074 30.3158 38.0206V38.0206ZM8.82764 24.2533C8.03896 24.1979 9.13205 23.7967 8.82764 24.2533V24.2533ZM29.9699 37.5917C30.9938 36.9275 29.7347 37.0244 29.7762 37.647L29.9699 37.5917ZM15.995 28.7778C15.4553 28.8193 15.9673 28.3351 15.995 28.7778V28.7778ZM16.8667 29.2759C16.4377 29.359 16.5899 28.7225 16.8667 29.2759V29.2759ZM31.6164 38.0345C32.9309 37.0798 30.8139 37.8546 31.3397 38.2143L31.6164 38.0345ZM31.1183 37.7854C29.9837 38.1867 32.1976 36.886 31.1183 37.7854V37.7854ZM33.6919 39.515C32.8202 39.3489 34.4252 39.0307 33.6919 39.515V39.515ZM9.47796 23.9212C10.4465 24.1426 13.3384 26.3011 11.6365 24.0734C10.7648 23.8105 11.2905 21.6797 10.3912 22.0533C10.9861 23.0495 10.8893 23.4784 9.63016 22.8558C8.0528 22.0809 8.74463 23.2432 9.04903 23.5614C8.63393 23.6445 9.60249 23.9212 9.47796 23.9212ZM5.07794 20.4482C5.24398 19.7287 3.48674 16.5048 4.24775 18.8294C4.52448 19.3136 4.49681 20.2407 5.07794 20.4482ZM13.1723 25.4294C12.6742 25.0143 13.1446 25.374 13.1723 25.4294V25.4294ZM14.3899 25.72C13.034 25.4155 14.3899 24.9589 14.3899 25.72V25.72ZM25.0164 32.4168C24.2277 32.403 24.8227 31.891 25.0164 32.4168V32.4168ZM25.5283 32.7904C25.2378 32.8458 25.4592 32.4999 25.5283 32.7904V32.7904ZM29.7485 35.447C29.2365 35.4055 30.1498 35.1426 29.7485 35.447V35.447ZM7.27795 21.0017C6.03266 20.6834 8.44022 20.5589 7.27795 21.0017V21.0017ZM24.0893 31.5866C23.3422 31.7804 24.0755 30.8395 24.0893 31.5866V31.5866ZM6.82135 19.9363C6.12952 19.7702 7.56852 19.6872 6.82135 19.9363V19.9363ZM8.97985 20.9879C8.75846 21.0847 8.96601 20.7388 8.97985 20.9879V20.9879ZM35.3385 37.1489C36.2932 36.9552 38.4793 37.6332 38.8253 36.8999C37.663 36.8722 34.7988 36.0835 34.6743 37.0936L34.9234 37.1351L35.3385 37.1489ZM9.67167 21.1539C9.0767 21.1262 9.68551 20.3929 9.67167 21.1539V21.1539ZM3.98485 17.2243C3.00246 17.0029 3.7358 15.7715 3.98485 17.2243V17.2243ZM5.34084 17.5564C4.10938 17.1413 5.35467 17.0998 5.34084 17.5564V17.5564ZM6.11568 17.9438C5.8943 17.7639 5.94964 18.1652 6.11568 17.9438V17.9438ZM10.9861 21.0709C10.4465 20.9048 11.2214 20.8495 10.9861 21.0709V21.0709ZM5.60373 17.086C4.02636 16.9199 5.46536 15.9929 5.60373 17.086V17.086ZM2.82258 15.2872C2.55969 15.4671 2.78108 14.7752 2.82258 15.2872V15.2872ZM3.23768 14.969C2.87793 15.052 3.1685 14.374 3.23768 14.969V14.969ZM5.52071 16.3388C6.48927 15.9652 3.76347 15.5501 5.327 16.2696L5.52071 16.3388ZM36.0718 35.198C35.2831 35.0319 36.6944 34.6307 36.0718 35.198V35.198ZM39.7661 37.1213C39.1297 37.2043 40.0152 36.3879 39.7661 37.1213V37.1213ZM5.75593 15.135C4.99492 15.2734 5.85279 14.4293 5.75593 15.135V15.135ZM2.50435 12.9627C2.32447 11.9664 2.35214 10.2092 4.02636 10.8042C1.79868 11.2469 5.56222 13.5715 5.09178 11.7312C6.03266 11.7727 6.9182 11.1777 6.43392 12.091C8.27418 11.8834 9.56098 10.2922 11.3459 10.5136C12.7295 10.3337 14.2516 10.1954 15.7459 9.62805C16.9774 9.54503 18.1535 8.21673 17.4893 7.42804C15.8151 7.28968 14.0579 7.49723 12.2038 7.87081C10.1559 8.29975 8.27418 9.1161 6.21254 9.46202C4.1924 9.73875 6.6138 10.2092 6.0465 10.3199C4.99492 10.6796 7.30562 10.9287 5.90813 11.3161C5.05027 11.1501 4.15089 10.8595 4.52448 9.94629C2.58736 10.1954 0.885469 10.9979 2.42132 12.9765H2.50435V12.9627ZM7.16726 10.5828C7.62386 8.90855 9.60249 11.9664 7.91443 10.8042C7.70688 10.652 7.38864 10.5274 7.16726 10.5828ZM7.26411 9.76642C7.61003 10.0431 7.91443 9.28214 7.26411 9.76642V9.76642ZM8.09431 9.78025C8.14965 9.00541 10.0037 10.1815 8.39871 10.057L8.09431 9.78025ZM9.2289 9.32365C9.35343 9.76642 9.644 8.83937 9.2289 9.32365V9.32365ZM9.51947 9.12994C10.2113 8.29975 13.4352 8.60415 11.0692 9.04692C10.4465 8.57648 9.96224 9.33749 9.51947 9.12994ZM13.7258 8.47962C13.6289 6.21043 15.8289 9.29598 13.7258 8.47962V8.47962ZM14.9296 8.47962C15.3585 7.33119 16.6176 8.02302 15.1371 8.2444C15.1648 8.36893 15.0818 8.83937 14.9296 8.47962ZM5.28549 14.5539C3.90184 13.862 6.58612 13.7513 5.28549 14.5539V14.5539ZM6.25405 14.8168C5.25782 14.623 6.71065 14.3325 6.25405 14.8168V14.8168ZM3.40372 12.7966C2.51818 12.5752 4.15089 12.2293 3.40372 12.7966V12.7966ZM41.9385 36.8999C41.3712 37.2043 41.9662 36.2357 41.9385 36.8999V36.8999ZM38.0227 34.2294C37.5246 34.2986 38.1334 33.4684 38.0227 34.2294V34.2294ZM43.0177 37.1628C44.0555 37.1628 46.1725 36.8445 43.9033 36.8445C43.5435 36.8999 41.8278 36.886 43.0177 37.1628ZM7.09808 14.3463C7.9421 14.291 8.41255 13.4193 6.93204 13.4608C4.63517 13.2256 8.96601 14.2495 6.64147 13.9589C6.32323 14.1664 7.08424 14.4017 7.09808 14.3463ZM7.84525 14.7199C7.58235 15.0105 7.74839 14.1803 7.84525 14.7199V14.7199ZM8.71695 12.3677C8.21884 12.257 9.09054 11.9249 8.71695 12.3677V12.3677ZM5.92197 7.6771C7.43015 7.16515 9.4918 6.58401 10.1975 7.92616C9.47796 7.05446 9.90689 6.19659 10.5849 7.46955C11.5534 8.75635 12.0377 6.88842 11.4012 6.44565C12.1207 7.33119 12.9371 7.76012 11.8855 6.50099C13.034 5.13118 9.60249 6.68087 8.81381 6.66703C8.44022 6.84691 4.93958 7.58024 5.92197 7.6771ZM6.79367 5.98904C7.65154 5.33873 9.76853 6.37647 8.41255 5.33873C8.28802 5.22803 5.45153 6.12741 6.79367 5.98904ZM9.93457 6.11357C10.9446 6.14124 9.50563 4.75759 10.6956 5.39407C10.5019 4.75759 9.29809 4.63306 8.71695 4.37017C8.38487 4.96514 9.3811 6.12741 9.93457 6.11357ZM7.34713 3.27708C6.73833 3.5123 7.69305 2.80664 7.34713 3.27708V3.27708ZM8.6201 3.58149C10.239 3.37394 8.205 2.88966 8.28802 3.56765L8.6201 3.58149ZM6.24021 1.71355C5.10561 0.219207 8.38487 1.96261 7.22261 0.399082C6.24021 -0.375765 5.31316 1.28462 6.24021 1.71355ZM20.8793 9.60038C21.4051 8.67333 18.7208 8.35509 20.5195 9.2683C20.6856 9.32365 20.6441 9.65573 20.8793 9.60038Z" fill="white" fill-opacity="0.7"/>
<path d="M45.5634 3.20742C45.3836 3.94075 45.259 5.18604 45.2175 6.92945C45.2175 7.27536 45.0653 7.4414 44.7609 7.4414C44.4703 7.45524 44.2074 7.27536 44.1244 6.99863C43.7924 6.19611 43.4741 5.62881 43.1835 5.31057C42.81 4.92315 42.3118 4.68793 41.7861 4.63258C41.1634 4.53573 39.5999 4.48038 37.0955 4.48038C36.5282 4.48038 36.1546 4.53573 35.9747 4.66025C35.864 4.72944 35.8087 4.90931 35.8087 5.15837V12.6439C35.8087 12.893 35.9609 13.0175 36.2929 13.0037C37.2753 12.9899 38.6867 12.9207 40.5546 12.81C40.9143 12.7685 41.1634 12.6439 41.2879 12.4502C41.4125 12.2565 41.537 11.7584 41.6615 10.9559C41.7445 10.5131 41.9936 10.3471 42.4364 10.4439C42.81 10.5269 42.976 10.693 42.9206 10.9559C42.6162 12.4502 42.5056 14.4012 42.6301 16.7949C42.6439 17.0855 42.464 17.2377 42.0905 17.2515C41.7861 17.2792 41.5923 17.1131 41.5093 16.7534C41.2188 15.3836 40.693 14.6364 39.9181 14.5534C39.1433 14.4565 37.8841 14.415 36.1269 14.415C35.9332 14.415 35.8363 14.4842 35.8363 14.6226V22.0528C35.8363 22.6062 36.0439 22.9798 36.4451 23.1735C36.7634 23.3396 37.4552 23.4918 38.5068 23.6163C39.0464 23.6717 39.2816 23.9069 39.2125 24.322C39.1433 24.6817 38.659 24.8339 37.7596 24.7509C35.1584 24.5434 32.9998 24.5572 31.298 24.7786C30.8275 24.8478 30.5923 24.6541 30.5923 24.1975C30.5923 23.9069 30.8275 23.7408 31.298 23.6993C32.3772 23.5748 32.9168 22.6339 32.9168 20.8628V6.74957C32.9168 6.03007 32.7923 5.46277 32.5294 5.07535C32.2665 4.68793 31.7822 4.32818 31.0904 4.00994C30.6476 3.81623 30.4816 3.5395 30.5923 3.19358C30.6476 2.98603 30.7307 2.87534 30.8552 2.84767C30.9797 2.82 31.2564 2.83383 31.7269 2.91685C32.4187 3.02754 34.0514 3.08289 36.625 3.08289C39.6691 3.08289 42.2842 3.01371 44.498 2.88918C45.2313 2.84767 45.6049 2.90301 45.6049 3.06905C45.5773 3.11056 45.5773 3.15207 45.5634 3.20742Z" fill="white" fill-opacity="0.7"/>
<path d="M56.3009 24.1839C56.3009 24.6267 56.0518 24.8204 55.5537 24.7651C54.0317 24.6267 52.1499 24.6405 49.9084 24.8342C49.4518 24.8757 49.1751 24.8619 49.0782 24.8066C48.9675 24.7374 48.926 24.5575 48.926 24.2669C48.926 24.004 49.2304 23.7827 49.8254 23.6028C50.4204 23.4229 50.7248 22.8833 50.7248 21.9701V7.02661C50.7248 6.14107 50.6002 5.47692 50.3373 5.06182C50.0744 4.64673 49.6317 4.31465 48.9675 4.09326C48.6216 3.96874 48.4556 3.8027 48.4556 3.58131C48.4556 3.24924 48.7046 3.00018 49.2027 2.83414C50.0191 2.55741 50.8078 2.18382 51.5273 1.71338C52.1914 1.31212 52.6065 1.11841 52.7864 1.11841C53.1877 1.11841 53.3952 1.39514 53.3952 1.96244C53.3952 1.92093 53.3675 2.47439 53.326 3.60899C53.2984 4.70207 53.2845 5.76749 53.2984 6.8329L53.3675 21.5827C53.3675 22.2606 53.5336 22.7449 53.8657 23.0493C54.1977 23.3537 54.765 23.5474 55.5675 23.6581C56.0518 23.6858 56.3009 23.8657 56.3009 24.1839Z" fill="white" fill-opacity="0.7"/>
<path d="M71.355 23.0771C71.355 23.3123 70.9399 23.6582 70.0959 24.1287C69.2519 24.5991 68.5739 24.8344 68.0758 24.8344C67.6468 24.8344 67.2733 24.6268 66.9412 24.2117C66.6091 23.7966 66.3739 23.5891 66.2493 23.5891C66.1525 23.5891 65.6267 23.8104 64.6858 24.2671C63.8003 24.7098 62.8179 24.9312 61.8355 24.945C60.9361 24.945 60.1751 24.6821 59.5663 24.1564C58.9021 23.5752 58.5701 22.7865 58.5701 21.7765C58.5701 19.867 60.7562 18.511 65.1009 17.6809C65.8481 17.5425 66.2355 17.2381 66.2355 16.7676L66.2632 15.7161C66.3324 13.9173 65.5298 13.0041 63.8695 13.0041C63.399 13.0041 62.9424 13.433 62.5273 14.2771C62.0984 15.1211 61.4896 15.5777 60.7009 15.6469C59.8015 15.7299 59.3449 15.3563 59.3449 14.5123C59.3449 13.9865 60.0229 13.3639 61.3651 12.6582C62.7764 11.9249 64.1324 11.5513 65.4192 11.5513C67.6468 11.5513 68.7538 12.6167 68.7399 14.7337L68.6707 21.5413C68.6569 22.2608 68.9613 22.6205 69.584 22.6205C69.8192 22.6067 70.0406 22.579 70.2758 22.5375C70.6217 22.4821 70.8154 22.4545 70.8708 22.4545C71.2028 22.4268 71.355 22.6482 71.355 23.0771ZM66.2632 19.3136C66.277 19.0368 66.2078 18.857 66.0695 18.7739C65.9311 18.6909 65.7097 18.6633 65.4192 18.7186C62.7625 19.189 61.4342 20.0607 61.4342 21.306C61.4342 22.5513 62.1261 23.2016 63.4959 23.2155C64.077 23.2155 64.6582 23.1048 65.1978 22.8972C65.8758 22.662 66.2217 22.3576 66.2217 22.0255L66.2632 19.3136Z" fill="white" fill-opacity="0.7"/>
<path d="M83.6696 21.1122C83.6696 22.2744 83.2268 23.2015 82.3274 23.8933C81.428 24.5851 80.2104 24.9311 78.6607 24.9311C77.623 24.9311 76.5714 24.8204 75.5614 24.599C74.662 24.4053 74.15 24.2254 74.0117 24.0594C73.9148 23.9071 73.8733 23.1461 73.8733 21.804C73.8733 21.2229 74.0117 20.9185 74.2746 20.8908C74.5374 20.8631 74.7588 21.0153 74.9525 21.3197C75.7827 22.7587 77.111 23.4782 78.9513 23.4782C80.501 23.4782 81.2758 22.9386 81.2758 21.8593C81.2897 21.4027 81.096 20.9738 80.7501 20.6694C80.3626 20.3096 79.6155 19.8807 78.5085 19.3964C76.9035 18.6769 75.8242 18.0543 75.2846 17.5147C74.7035 16.9474 74.4129 16.1725 74.4129 15.204C74.4129 14.014 74.8695 13.087 75.7827 12.4367C76.6268 11.8002 77.7614 11.4819 79.1865 11.4819C80.0029 11.4819 80.8192 11.5511 81.6356 11.6895C82.4243 11.8278 82.8394 12.0077 82.8809 12.2153C82.9777 12.8379 83.1576 13.7235 83.4205 14.8857C83.4482 15.0241 83.296 15.1486 82.9639 15.2316C82.6041 15.3147 82.3551 15.2455 82.2444 15.0518C81.3727 13.6266 80.2796 12.9209 78.9375 12.9209C77.4293 12.9209 76.6821 13.4052 76.6821 14.3738C76.6683 14.8719 76.8897 15.3562 77.2909 15.6606C77.6507 15.9373 78.5085 16.3662 79.8507 16.9474C81.262 17.5562 82.2167 18.0958 82.7287 18.5801C83.3375 19.2166 83.6696 20.0606 83.6696 21.1122Z" fill="white" fill-opacity="0.7"/>
<path d="M102.82 24.0871C102.82 24.4745 102.557 24.6821 102.045 24.6959C101.27 24.7097 100.26 24.7651 99.0284 24.8619C98.4057 24.9865 97.9768 24.9034 97.7139 24.6267C96.0258 22.828 94.5453 20.8632 93.2862 18.7462C93.217 18.594 93.0787 18.4971 92.9126 18.4833C92.7327 18.4833 92.4007 18.6493 91.9441 18.9814C91.4321 19.272 91.1692 19.6732 91.1692 20.199C91.1692 20.5726 91.1831 21.1122 91.1969 21.8179C91.2107 22.5236 91.3906 22.9802 91.7227 23.2015C91.9579 23.3537 92.4837 23.4783 93.3277 23.5613C93.8397 23.6305 94.1026 23.8242 94.1026 24.1424C94.1026 24.3915 94.0611 24.5575 93.978 24.6129C93.895 24.6682 93.6736 24.6821 93.3277 24.6544C92.2208 24.5575 90.3667 24.6129 87.7516 24.8204C87.0874 24.8758 86.7277 24.7927 86.6723 24.5714C86.6447 24.4607 86.6308 24.35 86.6447 24.2393C86.6447 23.8934 86.9767 23.6443 87.6547 23.4644C88.2635 23.3122 88.5679 22.5927 88.5679 21.3336V6.91594C88.5679 6.01656 88.4849 5.38008 88.3051 5.03417C88.0698 4.57756 87.5579 4.23165 86.783 3.98259C86.4233 3.85806 86.2434 3.69202 86.2434 3.47064C86.2434 3.1524 86.5063 2.90334 87.0183 2.72346C87.8484 2.44673 88.6371 2.05931 89.3843 1.58887C89.9931 1.18761 90.3667 0.993896 90.5051 0.993896C90.9617 0.993896 91.1831 1.28447 91.1831 1.85176C91.1831 1.76874 91.183 2.3222 91.1692 3.48447C91.1554 4.28699 91.1554 5.36624 91.1554 6.72223L91.1831 17.0581C91.1831 17.3487 91.2661 17.4871 91.4183 17.4871C91.5705 17.4871 91.8334 17.3487 92.1793 17.0581C93.0925 16.3386 94.2133 15.4116 95.5416 14.2493C95.8045 13.9726 95.9428 13.7512 95.9428 13.5851C95.9428 13.2807 95.5001 13.0732 94.6007 12.9625C94.2133 12.921 94.0334 12.6996 94.0611 12.3122C94.0887 11.9248 94.2824 11.7587 94.6422 11.8141C95.7906 11.9524 96.9529 12.0078 98.1152 12.0078C99.1667 12.0216 100.218 12.0216 101.27 12.0216C101.616 12.0355 101.782 12.2292 101.782 12.6304C101.782 13.004 101.505 13.2116 100.979 13.2392C100.149 13.2669 99.3328 13.4606 98.5856 13.8204C97.534 14.2908 96.4271 15.121 95.2372 16.311C95.1541 16.3663 95.0988 16.4632 95.0988 16.56C95.0988 16.7122 95.2925 17.0858 95.6661 17.6669C97.0359 19.7562 98.3365 21.3336 99.568 22.399C100.357 23.077 101.076 23.4091 101.768 23.4091C102.28 23.4091 102.584 23.4506 102.709 23.5198C102.764 23.589 102.82 23.7827 102.82 24.0871Z" fill="white" fill-opacity="0.7"/>
<path d="M58.5563 29.8432C58.5563 29.8847 58.4871 29.9263 58.3349 29.9678C58.2242 30.0093 58.1274 30.1061 58.0859 30.2307C57.7815 30.9363 57.4356 31.6281 57.0481 32.3061C57.0481 32.32 57.0205 32.32 56.9928 32.32C56.9789 32.32 56.9513 32.3061 56.9513 32.2923C56.8959 32.2231 56.7714 31.9464 56.55 31.4898C56.467 31.2684 56.3563 31.0609 56.2318 30.8533C56.2041 30.8533 56.0934 31.0609 55.8859 31.4621C55.6506 31.9187 55.5123 32.1816 55.4708 32.237C55.4708 32.2508 55.4569 32.2646 55.4293 32.2508C55.4016 32.2508 55.3877 32.237 55.3739 32.2231C55.2217 31.9741 54.862 31.3099 54.2947 30.2168C54.2531 30.1061 54.184 30.0231 54.0733 29.9678C53.9349 29.9124 53.8657 29.8571 53.8657 29.8294C53.8657 29.7464 53.9072 29.7049 54.0041 29.7187C54.3638 29.7602 54.7236 29.7602 55.0833 29.691C55.1525 29.6772 55.194 29.7049 55.194 29.7602C55.194 29.8432 55.1525 29.8986 55.0557 29.9263C54.9311 29.9539 54.862 29.9954 54.862 30.0646C54.862 30.12 54.8758 30.1891 54.9035 30.2445C54.9726 30.4382 55.0972 30.7011 55.2494 31.0055C55.4016 31.3099 55.4984 31.4621 55.5261 31.4621C55.6368 31.3099 55.7337 31.1577 55.8028 30.9778C55.8997 30.8118 55.9827 30.6319 56.0519 30.452C56.0519 30.3552 56.0242 30.2583 55.9689 30.1753C55.9274 30.0646 55.8443 29.9678 55.7337 29.9263C55.5953 29.8709 55.5261 29.8294 55.5261 29.7879C55.5261 29.7049 55.5815 29.6634 55.6645 29.6772C56.0104 29.7187 56.3701 29.7187 56.7161 29.6495C56.7852 29.6357 56.8267 29.6634 56.8267 29.7187C56.8267 29.8017 56.7714 29.8571 56.6745 29.8709C56.5777 29.8847 56.4947 29.9539 56.4947 30.0646C56.4947 30.12 56.5085 30.1891 56.5362 30.2445C56.8683 31.047 57.062 31.4483 57.1035 31.4483C57.2142 31.2961 57.2972 31.1439 57.3664 30.9778C57.5047 30.7149 57.6154 30.4382 57.7123 30.1615C57.7123 30.1476 57.7123 30.1338 57.7123 30.1338C57.7123 30.0369 57.6431 29.9678 57.4909 29.9124C57.3802 29.8709 57.3249 29.8432 57.3249 29.7879C57.3249 29.7187 57.3525 29.6772 57.4355 29.7049C57.6016 29.7325 57.7815 29.7464 57.9613 29.7602C58.1135 29.774 58.2657 29.774 58.4318 29.7602C58.5148 29.774 58.5701 29.7879 58.5563 29.8432Z" fill="white" fill-opacity="0.7"/>
<path d="M61.4064 31.6697C61.4064 31.7665 61.2819 31.8772 61.0328 32.0156C60.7699 32.1678 60.4655 32.237 60.1611 32.237C59.8567 32.2508 59.5662 32.1263 59.3448 31.9187C59.1096 31.6835 58.9712 31.3514 58.9989 31.0194C58.985 30.6458 59.1234 30.2722 59.4001 29.9955C59.6353 29.7602 59.9674 29.6219 60.2995 29.6357C60.5209 29.6357 60.7284 29.7049 60.8945 29.8433C61.0467 29.9401 61.1574 30.0923 61.2265 30.2584C61.2404 30.3137 61.2681 30.3414 61.3096 30.3414C61.3649 30.3552 61.4064 30.3967 61.3926 30.4521C61.3926 30.5351 61.2819 30.6181 61.0743 30.6735L59.5938 31.1162C59.6907 31.6282 59.9536 31.8772 60.3825 31.8772C60.6869 31.8634 60.9775 31.7665 61.2265 31.6005C61.2681 31.5728 61.3096 31.559 61.3649 31.559C61.3787 31.5728 61.4064 31.6005 61.4064 31.6697ZM60.6454 30.3829C60.6454 30.2584 60.5901 30.1477 60.507 30.0785C60.4102 29.9816 60.2857 29.9401 60.1611 29.9401C59.7737 29.9401 59.5662 30.2169 59.5662 30.7841V30.8672L60.4379 30.6043C60.5762 30.5628 60.6454 30.4797 60.6454 30.3829Z" fill="white" fill-opacity="0.7"/>
<path d="M64.6442 30.7563C64.658 31.1576 64.492 31.545 64.2014 31.8217C63.9385 32.0984 63.5788 32.2368 63.1914 32.2368C62.9561 32.2368 62.7209 32.1953 62.4995 32.1261C62.2643 32.0569 62.1536 31.9877 62.1536 31.9324C62.1536 31.8771 62.1536 31.711 62.1536 31.4204C62.1536 31.0607 62.1675 30.7978 62.1675 30.6318C62.1675 30.3827 62.1675 30.023 62.1675 29.5525C62.1536 29.0821 62.1675 28.7638 62.1675 28.6116C62.1813 28.5009 62.1536 28.3902 62.0983 28.2934C62.0153 28.2242 61.9184 28.1827 61.8215 28.1689C61.7662 28.155 61.7385 28.1135 61.7385 28.0582C61.7385 28.0167 61.78 27.9751 61.863 27.9475C62.0153 27.8921 62.1675 27.8091 62.3058 27.7261C62.3888 27.6707 62.4719 27.6292 62.5687 27.6016C62.6379 27.6016 62.6656 27.6569 62.6656 27.7676C62.6656 27.7814 62.6656 27.8921 62.6517 28.0997C62.6379 28.3072 62.6517 28.5009 62.6517 28.7085V29.8154C62.6517 29.9261 62.6932 29.9538 62.7624 29.8984C63.0115 29.7601 63.2882 29.677 63.5649 29.677C63.8555 29.6632 64.1322 29.7739 64.3536 29.9676C64.5612 30.2028 64.6719 30.4796 64.6442 30.7563ZM64.1322 31.0469C64.1461 30.784 64.0492 30.5211 63.8832 30.3274C63.7448 30.1613 63.5373 30.0645 63.3159 30.0645C63.1637 30.0645 62.9976 30.106 62.8731 30.189C62.7209 30.272 62.6517 30.355 62.6517 30.4381V31.2959C62.6517 31.711 62.8731 31.9186 63.3297 31.9186C63.5511 31.9324 63.7587 31.8494 63.9109 31.6833C64.0631 31.5035 64.1461 31.2821 64.1322 31.0469Z" fill="white" fill-opacity="0.7"/>
<path d="M69.8469 31.8911C69.8608 31.9049 69.8608 31.9187 69.8608 31.9326C69.8608 31.9741 69.7501 32.0571 69.5287 32.1539C69.3903 32.237 69.2381 32.2923 69.0859 32.3338C69.0444 32.3338 69.0029 32.2646 68.9475 32.1401C68.8922 32.0156 68.8645 31.9464 68.8369 31.9464C68.8092 31.9464 68.7123 32.0017 68.4771 32.1124C68.3111 32.2093 68.1174 32.2646 67.9236 32.2785C67.6469 32.2785 67.384 32.1678 67.1903 31.9741C66.9274 31.6973 66.789 31.3376 66.8167 30.9502C66.8167 30.5904 66.9828 30.2445 67.2595 30.0093C67.467 29.8017 67.7576 29.6772 68.062 29.6634C68.2972 29.6634 68.5324 29.691 68.7538 29.7326C68.8369 29.7464 68.8784 29.7187 68.8784 29.6634V28.5703C68.8922 28.4734 68.8507 28.3766 68.7815 28.3074C68.6985 28.252 68.6016 28.2105 68.5048 28.1829C68.4494 28.169 68.4079 28.1137 68.4079 28.0583C68.4079 28.003 68.4494 27.9615 68.5463 27.9338C68.6985 27.8785 68.8507 27.8231 69.0029 27.7401C69.0859 27.6847 69.1828 27.6432 69.2796 27.6294C69.3626 27.6294 69.4042 27.6847 69.4042 27.7954C69.4042 27.7954 69.4042 27.9061 69.3903 28.1137C69.3765 28.3212 69.3765 28.5426 69.3765 28.7363V31.6558C69.3765 31.7804 69.4318 31.8357 69.5425 31.8357C69.5979 31.8357 69.6532 31.8219 69.7086 31.8219C69.7501 31.7942 69.8192 31.8357 69.8469 31.8911ZM68.8507 31.5728V30.4244C68.8507 30.3275 68.7677 30.2307 68.6016 30.1338C68.4218 30.0231 68.228 29.9678 68.0205 29.9678C67.5777 29.9678 67.3563 30.2445 67.3563 30.798C67.3563 31.0747 67.4394 31.3514 67.6192 31.559C67.7714 31.7527 67.9928 31.8772 68.2419 31.8772C68.3803 31.8772 68.5048 31.8357 68.6293 31.7665C68.7815 31.6835 68.8507 31.6282 68.8507 31.5728Z" fill="white" fill-opacity="0.7"/>
<path d="M72.6281 31.6697C72.6281 31.7665 72.5036 31.8772 72.2545 32.0156C71.9916 32.1678 71.6872 32.237 71.3828 32.237C71.0784 32.2508 70.7878 32.1263 70.5665 31.9187C70.3312 31.6835 70.1929 31.3514 70.2205 31.0194C70.2067 30.6319 70.3451 30.2722 70.608 29.9955C70.8432 29.7602 71.1753 29.6219 71.5073 29.6357C71.7287 29.6357 71.9363 29.7049 72.1023 29.8433C72.2545 29.9401 72.3652 30.0923 72.4344 30.2584C72.4482 30.3137 72.4759 30.3414 72.5174 30.3414C72.5728 30.3552 72.6143 30.3967 72.6004 30.4521C72.6004 30.5351 72.4897 30.6181 72.2822 30.6735L70.8017 31.1162C70.8985 31.6282 71.1614 31.8772 71.5904 31.8772C71.8948 31.8634 72.1853 31.7665 72.4344 31.6005C72.4759 31.5728 72.5174 31.559 72.5728 31.559C72.6143 31.5728 72.6281 31.6005 72.6281 31.6697ZM71.8671 30.3829C71.8671 30.2584 71.8117 30.1477 71.7287 30.0785C71.6319 29.9816 71.5073 29.9401 71.3828 29.9401C70.9815 29.9401 70.7878 30.2307 70.7878 30.7841V30.8672L71.6595 30.6043C71.7979 30.5628 71.8671 30.4797 71.8671 30.3829Z" fill="white" fill-opacity="0.7"/>
<path d="M76.1424 29.8432C76.1424 29.8847 76.0733 29.9262 75.9349 29.9678C75.8519 29.9954 75.7689 30.0785 75.7135 30.2307C75.6028 30.4797 75.4229 30.8533 75.16 31.3376C74.9387 31.7527 74.7726 32.0571 74.6481 32.237C74.6343 32.2508 74.6204 32.2646 74.6066 32.2508C74.5927 32.2508 74.5651 32.237 74.5651 32.2231C74.1223 31.5866 73.7349 30.9225 73.4028 30.2168C73.3336 30.0785 73.2644 29.9954 73.1953 29.9678C73.0707 29.9124 73.0154 29.8709 73.0154 29.8294C73.0154 29.7464 73.0569 29.7049 73.1399 29.7187C73.5135 29.7464 73.8732 29.7325 74.2468 29.691C74.316 29.6772 74.3437 29.7049 74.3437 29.7602C74.3437 29.8156 74.3022 29.8847 74.2053 29.8986C74.0393 29.9401 73.9563 29.9954 73.9563 30.0646C73.9563 30.1061 73.9701 30.1615 73.9839 30.203C74.0946 30.4659 74.233 30.7288 74.3714 30.9778C74.5651 31.3237 74.6619 31.4898 74.6896 31.4898C74.8003 31.3376 74.8971 31.1715 74.9663 31.0055C75.1047 30.7426 75.2292 30.452 75.3399 30.1753C75.3538 30.1476 75.3538 30.1338 75.3538 30.1061C75.3538 30.0093 75.2846 29.9262 75.2016 29.8986C75.1047 29.8571 75.0493 29.8156 75.0493 29.7879C75.0493 29.7187 75.077 29.6772 75.1462 29.691C75.2984 29.7187 75.4506 29.7187 75.6028 29.7325C75.7412 29.7464 75.8795 29.7464 76.0179 29.7325C76.0871 29.7464 76.1286 29.774 76.1424 29.8432Z" fill="white" fill-opacity="0.7"/>
<path d="M78.9928 31.6697C78.9928 31.7665 78.8683 31.8772 78.6193 32.0156C78.3564 32.1678 78.052 32.237 77.7476 32.237C77.4431 32.2508 77.1526 32.1263 76.9312 31.9187C76.696 31.6835 76.5576 31.3514 76.5853 31.0194C76.5715 30.6458 76.7098 30.2722 76.9727 29.9955C77.2079 29.7602 77.54 29.6219 77.8721 29.6357C78.0935 29.6357 78.301 29.7049 78.4671 29.8433C78.6193 29.9401 78.73 30.0923 78.7991 30.2584C78.813 30.2999 78.8406 30.3414 78.8821 30.3414C78.9375 30.3552 78.979 30.3967 78.9652 30.4521C78.9652 30.5351 78.8545 30.6181 78.6469 30.6735L77.1664 31.1162C77.2633 31.6282 77.5262 31.8772 77.9551 31.8772C78.2595 31.8634 78.5501 31.7665 78.7991 31.6005C78.8406 31.5728 78.8822 31.559 78.9375 31.559C78.979 31.5728 78.9928 31.6005 78.9928 31.6697ZM78.2318 30.3829C78.2318 30.2584 78.1765 30.1477 78.0935 30.0785C77.9966 29.9816 77.8721 29.9401 77.7476 29.9401C77.3601 29.9401 77.1526 30.2169 77.1526 30.7841V30.8672L78.0243 30.6043C78.1626 30.5628 78.2318 30.4797 78.2318 30.3829Z" fill="white" fill-opacity="0.7"/>
<path d="M80.9716 32.1124C80.9716 32.1955 80.9301 32.237 80.8333 32.2231C80.4735 32.1955 80.0999 32.1955 79.7402 32.237C79.6848 32.2508 79.6295 32.2508 79.5742 32.237C79.5603 32.2231 79.5465 32.1816 79.5465 32.1263C79.5465 32.0709 79.6018 32.0294 79.7264 32.0017C79.8509 31.9741 79.9062 31.8634 79.9062 31.6835V28.7778C79.9201 28.6395 79.8924 28.5149 79.8371 28.3904C79.7679 28.2935 79.6848 28.2382 79.5742 28.1967C79.505 28.169 79.4773 28.1413 79.4773 28.0998C79.4773 28.0307 79.5188 27.9891 79.6157 27.9615C79.7817 27.9061 79.9201 27.8369 80.0723 27.7401C80.1415 27.6847 80.2245 27.6432 80.3213 27.6294C80.4043 27.6294 80.4459 27.6847 80.4459 27.7954C80.4459 27.7816 80.4459 27.8923 80.432 28.1137C80.4182 28.3351 80.4182 28.5288 80.432 28.7363L80.4459 31.6005C80.432 31.7112 80.4735 31.808 80.5427 31.8911C80.6396 31.9602 80.7503 32.0017 80.8748 32.0017C80.944 32.0156 80.9855 32.0571 80.9716 32.1124Z" fill="white" fill-opacity="0.7"/>
<path d="M84.0846 30.9086C84.0846 31.2683 83.9324 31.6143 83.6695 31.8495C83.3928 32.1124 83.0192 32.2507 82.6456 32.2369C82.2858 32.2507 81.9399 32.14 81.677 31.891C81.4418 31.6558 81.3173 31.3375 81.3311 31.0054C81.3311 30.6319 81.4833 30.286 81.76 30.0507C82.0368 29.8017 82.3965 29.6633 82.7701 29.6771C83.1299 29.6495 83.4758 29.774 83.7525 30.0092C83.9877 30.2583 84.1123 30.5765 84.0846 30.9086ZM83.5173 31.1023C83.5311 30.8117 83.4481 30.5212 83.2682 30.286C83.1299 30.0922 82.9085 29.9815 82.6594 29.9815C82.4519 29.9815 82.2443 30.0646 82.106 30.2168C81.9676 30.3828 81.8846 30.5904 81.8984 30.7979C81.8846 31.1023 81.9676 31.4067 82.1475 31.6558C82.2997 31.8356 82.5211 31.9463 82.7563 31.9325C82.9638 31.9463 83.1714 31.8495 83.3097 31.6973C83.4619 31.5312 83.5311 31.3237 83.5173 31.1023Z" fill="white" fill-opacity="0.7"/>
<path d="M87.4469 30.8257C87.4607 31.1993 87.3085 31.5729 87.0456 31.8496C86.8104 32.1125 86.4645 32.2647 86.1047 32.2647C85.8972 32.2647 85.6758 32.2232 85.4821 32.154C85.4544 32.1402 85.4544 32.1955 85.4544 32.3062V33.2748C85.4544 33.427 85.5789 33.5377 85.8418 33.5792C85.9248 33.593 85.994 33.6068 86.0632 33.6345C86.0909 33.6484 86.1185 33.6899 86.1047 33.7314C86.1047 33.8006 86.0632 33.8421 85.9663 33.8282C85.5651 33.8006 85.1777 33.8006 84.7764 33.8559C84.7349 33.8697 84.6796 33.8697 84.638 33.8559C84.6242 33.8421 84.6104 33.8144 84.6104 33.7729C84.6104 33.7314 84.6657 33.6899 84.7902 33.6345C84.9148 33.5792 84.9424 33.4962 84.9424 33.3301V30.4936C84.9424 30.2722 84.8733 30.12 84.7487 30.0647C84.5965 29.9955 84.5273 29.9402 84.5273 29.8986C84.5273 29.8571 84.5689 29.8156 84.6657 29.788C84.7902 29.7603 84.9009 29.7049 85.0116 29.6358C85.067 29.5942 85.1362 29.5666 85.1915 29.5527C85.2607 29.5527 85.3022 29.6081 85.3437 29.7326C85.399 29.8987 85.4406 29.9955 85.4682 29.9955C85.4959 29.9955 85.5651 29.9402 85.745 29.8433C85.9248 29.7464 86.1185 29.6773 86.3261 29.6773C86.6028 29.6634 86.8657 29.7603 87.0871 29.9402C87.3362 30.1615 87.4745 30.4936 87.4469 30.8257ZM86.8934 31.0886C86.9072 30.798 86.8242 30.5075 86.6305 30.2722C86.506 30.12 86.3261 30.037 86.1324 30.0232C85.9802 30.0232 85.828 30.0785 85.7034 30.1754C85.5236 30.2999 85.4267 30.5075 85.4406 30.7288V31.6421C85.4406 31.6974 85.5236 31.7666 85.6896 31.8219C85.8695 31.8911 86.0632 31.9326 86.2569 31.9326C86.6858 31.9326 86.8934 31.6421 86.8934 31.0886Z" fill="white" fill-opacity="0.7"/>
<path d="M93.2442 32.1124C93.2442 32.1816 93.2166 32.2093 93.1474 32.2093C92.7461 32.1816 92.331 32.1816 91.9297 32.2093C91.8467 32.2093 91.8052 32.1816 91.8052 32.0986C91.8052 32.0155 91.8606 32.0017 91.9713 31.9879C92.1096 31.974 92.1788 31.8633 92.1788 31.642V30.7841C92.1788 30.2998 91.9851 30.0646 91.5977 30.0646C91.404 30.0646 91.2102 30.1061 91.0304 30.1753C90.8782 30.2445 90.7952 30.3136 90.7952 30.369L90.7813 31.642C90.7675 31.7388 90.7952 31.8218 90.8228 31.9048C90.8643 31.9464 90.9197 31.9602 90.975 31.974C91.1687 32.0017 91.2518 32.0432 91.2518 32.0986C91.2518 32.1262 91.2518 32.1539 91.2379 32.1816C91.2241 32.2093 91.1826 32.2093 91.1272 32.2093C90.8782 32.1954 90.5323 32.2093 90.0618 32.2231C90.0203 32.2231 89.9788 32.2231 89.9373 32.2093C89.9235 32.1954 89.9096 32.1677 89.9096 32.1262C89.9096 32.0847 89.965 32.0432 90.0895 32.0294C90.214 32.0155 90.2832 31.891 90.2832 31.6696V30.7979C90.297 30.6042 90.2417 30.4105 90.1172 30.2445C90.0341 30.1338 89.8958 30.0646 89.7574 30.0784C89.5637 30.0784 89.3562 30.1199 89.1763 30.203C89.0102 30.286 88.9134 30.3828 88.9134 30.4797V31.6558C88.8995 31.7526 88.9411 31.8633 89.0102 31.9325C89.1071 31.9879 89.2316 32.0155 89.3423 32.0155C89.4253 32.0155 89.4807 32.0432 89.4807 32.0986C89.4807 32.1539 89.453 32.1954 89.37 32.1954C88.9826 32.1954 88.5951 32.2093 88.2077 32.2369C88.1524 32.2508 88.097 32.2508 88.0555 32.2369C88.0417 32.2231 88.0278 32.1954 88.0278 32.1677C88.0278 32.1401 88.1109 32.0709 88.2631 32.0294C88.3599 32.0017 88.4014 31.8772 88.4014 31.6558V30.6734C88.4014 30.4243 88.3322 30.2721 88.1939 30.2445C88.1247 30.2306 88.0555 30.203 87.9863 30.1753C87.9587 30.1614 87.9448 30.1338 87.9448 30.1061C87.9448 30.0646 88.0555 29.9816 88.2769 29.857C88.4153 29.774 88.5536 29.7048 88.7058 29.6633C88.7473 29.6633 88.7889 29.7325 88.8165 29.857C88.8442 29.9816 88.8719 30.0508 88.8857 30.0508C88.9549 30.0231 89.0241 29.9954 89.0794 29.9539C89.1901 29.8847 89.3146 29.8155 89.4392 29.774C89.6052 29.7048 89.7989 29.6772 89.9788 29.6633C90.1172 29.6633 90.2555 29.691 90.3662 29.7602C90.4492 29.8017 90.5184 29.8709 90.5738 29.9401L90.6568 30.0369L90.8228 29.9401C90.9474 29.8709 91.0719 29.8155 91.2103 29.7602C91.3763 29.7048 91.5562 29.6633 91.736 29.6633C92.3172 29.6633 92.6077 29.9816 92.6077 30.6319V31.6696C92.5939 31.7665 92.6354 31.8633 92.6908 31.9325C92.7876 31.9879 92.8845 32.0294 92.9952 32.0432C93.175 32.0432 93.2304 32.0847 93.2442 32.1124Z" fill="white" fill-opacity="0.7"/>
<path d="M95.9565 31.6697C95.9565 31.7665 95.8319 31.8772 95.5829 32.0156C95.32 32.1678 95.0156 32.237 94.7112 32.237C94.4068 32.2508 94.1162 32.1263 93.8948 31.9187C93.6596 31.6835 93.5212 31.3514 93.5489 31.0194C93.5351 30.6458 93.6734 30.2722 93.9502 29.9955C94.1854 29.7602 94.5175 29.6219 94.8495 29.6357C95.0709 29.6357 95.2785 29.7049 95.4445 29.8433C95.5967 29.9401 95.7074 30.0923 95.7766 30.2584C95.7904 30.3137 95.8181 30.3414 95.8596 30.3414C95.915 30.3552 95.9565 30.3967 95.9426 30.4521C95.9426 30.5351 95.8319 30.6181 95.6244 30.6735L94.1439 31.1162C94.2407 31.6282 94.5036 31.8772 94.9326 31.8772C95.237 31.8634 95.5275 31.7665 95.7766 31.6005C95.8181 31.5728 95.8596 31.559 95.915 31.559C95.9426 31.5728 95.9565 31.6005 95.9565 31.6697ZM95.1955 30.3829C95.1955 30.2584 95.1401 30.1477 95.0571 30.0785C94.9602 29.9816 94.8357 29.9401 94.7112 29.9401C94.3238 29.9401 94.1162 30.2169 94.1162 30.7841V30.8672L94.9879 30.6043C95.1263 30.5628 95.1955 30.4797 95.1955 30.3829Z" fill="white" fill-opacity="0.7"/>
<path d="M99.803 32.1401C99.803 32.2093 99.7615 32.2369 99.6647 32.2231C99.3188 32.1954 98.9728 32.1954 98.6131 32.2093C98.4886 32.2231 98.4194 32.2093 98.4194 32.1677C98.4194 32.1539 98.4194 32.1262 98.4194 32.1124C98.4194 32.0709 98.4747 32.0294 98.5993 32.0017C98.7238 31.974 98.7653 31.8633 98.7653 31.6696V30.8256C98.7653 30.3413 98.5578 30.0923 98.1288 30.0923C97.9489 30.0923 97.7552 30.1338 97.603 30.2306C97.4508 30.3136 97.3678 30.4105 97.3678 30.5074V31.6835C97.3678 31.891 97.5062 32.0017 97.7552 32.0155C97.8521 32.0294 97.9074 32.057 97.9074 32.1124C97.9074 32.1677 97.8936 32.1954 97.8659 32.2093C97.8244 32.2093 97.7967 32.2093 97.7552 32.2093C97.4093 32.1954 97.0634 32.2093 96.7175 32.2646C96.676 32.2784 96.6206 32.2784 96.5791 32.2784C96.5376 32.2646 96.5099 32.2369 96.5099 32.1816C96.5099 32.1262 96.5653 32.0847 96.6898 32.0432C96.8143 32.0017 96.8559 31.8633 96.8559 31.6143V30.6457C96.8697 30.535 96.842 30.4243 96.7867 30.3275C96.6898 30.2583 96.593 30.2168 96.4823 30.1891C96.4408 30.1753 96.4131 30.1338 96.4131 30.1061C96.4131 30.0646 96.4546 30.0231 96.5515 29.9954C96.6898 29.9401 96.8282 29.8709 96.9527 29.7879C97.0219 29.7325 97.1049 29.691 97.1879 29.6633C97.2433 29.6633 97.2848 29.7325 97.2986 29.857C97.3125 29.9816 97.3401 30.0508 97.3816 30.0508C97.4785 29.9816 97.5892 29.9124 97.6999 29.857C97.9074 29.7325 98.1427 29.6772 98.3917 29.6633C98.9452 29.6633 99.2219 29.9816 99.2357 30.6181V31.6558C99.2219 31.7665 99.2634 31.8633 99.3464 31.9464C99.4433 32.0017 99.5401 32.0432 99.6508 32.057C99.7615 32.057 99.803 32.0986 99.803 32.1401Z" fill="white" fill-opacity="0.7"/>
<path d="M101.878 31.905C101.878 32.0018 101.781 32.0987 101.602 32.1679C101.436 32.2371 101.27 32.2647 101.09 32.2647C100.619 32.2647 100.398 32.0157 100.398 31.5176V30.3553C100.412 30.2584 100.398 30.1616 100.37 30.0786C100.301 30.0232 100.218 29.9955 100.135 29.9817C100.107 29.9679 100.08 29.9402 100.08 29.8849C100.08 29.8295 100.093 29.788 100.121 29.7742C100.384 29.6358 100.592 29.4282 100.73 29.1653C100.758 29.1238 100.799 29.11 100.868 29.1238C100.91 29.1377 100.937 29.1653 100.937 29.2069L100.951 29.6081C100.951 29.6358 100.951 29.6496 100.965 29.6773C100.993 29.705 101.034 29.705 101.076 29.705H101.795C101.837 29.705 101.837 29.7603 101.795 29.8572C101.754 29.954 101.671 30.037 101.574 30.037H101.09C101.007 30.037 100.951 30.0509 100.937 30.0786C100.924 30.1339 100.91 30.1893 100.91 30.2308V31.2823C100.896 31.4484 100.924 31.6283 100.979 31.7805C101.048 31.8635 101.187 31.9188 101.408 31.9188C101.505 31.9188 101.588 31.905 101.685 31.8773C101.795 31.8496 101.851 31.8358 101.851 31.8358C101.851 31.8358 101.892 31.8635 101.878 31.905Z" fill="white" fill-opacity="0.7"/>
<path d="M103.331 32.0434C103.359 32.5553 103.082 33.0534 102.626 33.3025C102.598 33.3163 102.57 33.3302 102.529 33.344C102.501 33.344 102.473 33.3163 102.446 33.2471C102.432 33.2333 102.432 33.2056 102.432 33.1918C102.432 33.1503 102.487 33.0949 102.612 33.0119C102.792 32.9151 102.916 32.7214 102.93 32.5138C102.916 32.4031 102.847 32.3063 102.75 32.2509C102.598 32.1817 102.501 32.0295 102.501 31.8497C102.501 31.7528 102.543 31.6559 102.612 31.5868C102.681 31.5176 102.792 31.4761 102.888 31.4761C103.013 31.4761 103.138 31.5314 103.221 31.6283C103.29 31.7528 103.331 31.905 103.331 32.0434Z" fill="white" fill-opacity="0.7"/>
<path d="M57.0897 36.8307C57.0897 37.1905 56.9375 37.5364 56.6746 37.7716C56.3979 38.0345 56.0243 38.1729 55.6507 38.159C55.291 38.1729 54.9451 38.0622 54.6822 37.8131C54.4469 37.5779 54.3224 37.2597 54.3362 36.9276C54.3362 36.554 54.4884 36.2081 54.7652 35.9729C55.0419 35.7238 55.4017 35.5854 55.7752 35.5993C56.135 35.5716 56.4809 35.6961 56.7438 35.9313C56.9929 36.1804 57.1036 36.4986 57.0897 36.8307ZM56.5363 37.0244C56.5501 36.7339 56.4671 36.4433 56.2872 36.2081C56.1488 36.0144 55.9275 35.9037 55.6784 35.9037C55.4708 35.9037 55.2633 35.9867 55.1249 36.1389C54.9866 36.2911 54.9035 36.5125 54.9035 36.72C54.8897 37.0244 54.9727 37.3288 55.1526 37.5779C55.3048 37.7578 55.5262 37.8685 55.7614 37.8546C55.969 37.8685 56.1765 37.7716 56.3149 37.6194C56.4671 37.4534 56.5363 37.2458 56.5363 37.0244Z" fill="white" fill-opacity="0.7"/>
<path d="M61.0053 38.0622C61.0053 38.1314 60.9638 38.159 60.8669 38.1452C60.521 38.1175 60.1751 38.1175 59.8153 38.1314C59.6908 38.1452 59.6216 38.1314 59.6216 38.0899C59.6216 38.076 59.6216 38.0484 59.6216 38.0345C59.6216 37.993 59.677 37.9515 59.8015 37.9238C59.926 37.8962 59.9675 37.7855 59.9675 37.5918V36.7339C59.9675 36.2496 59.76 36.0005 59.331 36.0005C59.1512 36.0005 58.9575 36.0421 58.8053 36.1389C58.6531 36.2219 58.57 36.3188 58.57 36.4156V37.5918C58.57 37.7993 58.7084 37.91 58.9713 37.9238C59.0681 37.9377 59.1235 37.9653 59.1235 38.0207C59.1235 38.076 59.1097 38.1037 59.082 38.1175C59.0405 38.1175 59.0128 38.1175 58.9713 38.1175C58.6254 38.1037 58.2795 38.1175 57.9336 38.1729C57.892 38.1867 57.8367 38.1867 57.7952 38.1867C57.7537 38.1729 57.726 38.1452 57.726 38.0899C57.726 38.0345 57.7814 37.993 57.9059 37.9515C58.0304 37.91 58.0719 37.7716 58.0719 37.5226V36.554C58.0858 36.4433 58.0581 36.3326 58.0027 36.2358C57.9059 36.1666 57.809 36.1251 57.6983 36.0974C57.6568 36.0836 57.6292 36.0421 57.6292 36.0005C57.6292 35.959 57.6707 35.9175 57.7675 35.8899C57.9059 35.8345 58.0442 35.7653 58.1688 35.6685C58.238 35.6131 58.321 35.5716 58.404 35.5439C58.4593 35.5439 58.5009 35.6131 58.5147 35.7377C58.5285 35.8622 58.5562 35.9314 58.5977 35.9314C58.6946 35.8622 58.8053 35.793 58.9298 35.7515C59.1373 35.627 59.3726 35.5716 59.6216 35.5578C60.1751 35.5578 60.4518 35.876 60.4656 36.4987V37.5364C60.4518 37.6471 60.4933 37.744 60.5763 37.827C60.6732 37.8823 60.77 37.9238 60.8807 37.9377C60.9499 37.9792 61.0053 38.0068 61.0053 38.0622Z" fill="white" fill-opacity="0.7"/>
<path d="M63.6896 37.578C63.6896 37.6748 63.5651 37.7855 63.316 37.9239C63.0531 38.0761 62.7487 38.1591 62.4443 38.1591C62.1399 38.1729 61.8494 38.0484 61.628 37.8409C61.3928 37.6056 61.2544 37.2736 61.2821 36.9415C61.2682 36.5541 61.4066 36.1943 61.6695 35.9176C61.9047 35.6824 62.2368 35.544 62.5689 35.5578C62.7903 35.5578 62.9978 35.627 63.1638 35.7654C63.316 35.8622 63.4267 36.0144 63.4959 36.1805C63.5097 36.2358 63.5374 36.2635 63.5789 36.2773C63.6343 36.2912 63.6758 36.3327 63.662 36.388C63.662 36.471 63.5513 36.5541 63.3437 36.6094L61.8632 37.0522C61.9601 37.5641 62.223 37.8132 62.6519 37.8132C62.9563 37.7994 63.2469 37.7025 63.4959 37.5365C63.5374 37.5088 63.5789 37.4949 63.6343 37.4949C63.6758 37.4949 63.6896 37.5365 63.6896 37.578ZM62.9286 36.2912C62.9286 36.1666 62.8733 36.0559 62.7903 35.9868C62.6934 35.8899 62.5689 35.8484 62.4443 35.8484C62.0569 35.8484 61.8494 36.1251 61.8494 36.7063V36.7893L62.7211 36.5264C62.8594 36.471 62.9286 36.4019 62.9286 36.2912Z" fill="white" fill-opacity="0.7"/>
<path d="M68.8227 37.813C68.8227 37.8268 68.8366 37.8407 68.8366 37.8545C68.8366 37.896 68.7259 37.979 68.5045 38.0759C68.3661 38.1589 68.2139 38.2143 68.0617 38.2558C68.0202 38.2558 67.9787 38.1866 67.9234 38.0621C67.868 37.9375 67.8404 37.8684 67.8127 37.8684L67.4529 38.0344C67.2869 38.1312 67.0932 38.1866 66.8995 38.2004C66.6227 38.2004 66.3598 38.0897 66.1661 37.896C65.9032 37.6193 65.7649 37.2595 65.7925 36.886C65.7925 36.5262 65.9586 36.1665 66.2353 35.9451C66.4429 35.7375 66.7334 35.613 67.0378 35.5992C67.2731 35.5992 67.5083 35.6268 67.7297 35.6683C67.8127 35.6822 67.8542 35.6545 67.8542 35.5992V34.5061C67.868 34.4092 67.8265 34.3124 67.7573 34.2432C67.6743 34.1878 67.5775 34.1463 67.4806 34.1186C67.4253 34.1048 67.3837 34.0495 67.3837 33.9941C67.3837 33.9388 67.4253 33.8973 67.5221 33.8696C67.6743 33.8142 67.8265 33.7589 67.9787 33.6759C68.0617 33.6205 68.1586 33.579 68.2554 33.5652C68.3385 33.5652 68.3661 33.6205 68.3661 33.7312C68.3661 33.7312 68.3661 33.8419 68.3523 34.0495C68.3385 34.257 68.3385 34.4784 68.3385 34.6721V37.5916C68.3385 37.7161 68.3938 37.7715 68.5045 37.7715C68.5599 37.7715 68.6152 37.7577 68.6705 37.7577C68.7397 37.7023 68.8089 37.7438 68.8227 37.813ZM67.8404 37.4948V36.3463C67.8404 36.2495 67.7573 36.1526 67.5913 36.0558C67.4114 35.9451 67.2177 35.8897 67.0102 35.8897C66.5674 35.8897 66.346 36.1665 66.346 36.7199C66.346 36.9967 66.429 37.2595 66.6089 37.4671C66.7611 37.6608 66.9963 37.7715 67.2315 37.7853C67.3699 37.7853 67.4944 37.7438 67.619 37.6746C67.7573 37.6055 67.8404 37.5363 67.8404 37.4948Z" fill="white" fill-opacity="0.7"/>
<path d="M71.2443 35.8483C71.2443 36.1112 71.1751 36.2358 71.0229 36.2358C70.9399 36.2219 70.8707 36.2081 70.7877 36.1943C70.6908 36.1666 70.5939 36.1528 70.4971 36.1528C70.2619 36.1528 70.1373 36.3188 70.1373 36.637V37.5779C70.1235 37.6748 70.1788 37.7578 70.248 37.8131C70.3587 37.8685 70.4694 37.8962 70.5801 37.9238C70.677 37.9515 70.7185 37.9792 70.7185 38.0345C70.7185 38.0899 70.7046 38.1314 70.6908 38.1452C70.677 38.159 70.6355 38.1591 70.5663 38.1591C70.1927 38.1175 69.8191 38.1175 69.4455 38.1591C69.3902 38.1729 69.3348 38.1729 69.2795 38.1591C69.2656 38.1452 69.2518 38.1037 69.2518 38.0484C69.2518 37.993 69.3071 37.9377 69.4317 37.91C69.5562 37.8823 69.6115 37.7716 69.6115 37.6056V36.5817C69.6254 36.4848 69.5977 36.388 69.5562 36.305C69.4732 36.2219 69.3763 36.1666 69.2656 36.1112L69.2518 36.0974C69.2103 36.0836 69.1826 36.0421 69.1826 36.0005C69.1826 35.959 69.2241 35.9175 69.321 35.8899C69.4732 35.8345 69.5977 35.7653 69.7222 35.6685C69.7776 35.6131 69.8468 35.5716 69.916 35.5439C69.999 35.5439 70.0405 35.6131 70.0543 35.7377C70.0682 35.9037 70.0958 35.9867 70.1235 35.9867L70.4832 35.7515C70.6354 35.6546 70.8153 35.5993 70.9952 35.5993C71.1751 35.5993 71.2443 35.6823 71.2443 35.8483Z" fill="white" fill-opacity="0.7"/>
<path d="M74.4266 36.831C74.4266 37.1907 74.2744 37.5367 74.0115 37.7719C73.7348 38.0348 73.3612 38.1731 72.9876 38.1593C72.6279 38.1731 72.282 38.0624 72.0191 37.8134C71.7839 37.5782 71.6593 37.2599 71.6732 36.9279C71.6732 36.5543 71.8254 36.2084 72.1021 35.9731C72.3788 35.7241 72.7386 35.5857 73.1122 35.5995C73.4719 35.5857 73.8178 35.6964 74.0807 35.9316C74.3159 36.1807 74.4405 36.4989 74.4266 36.831ZM73.8593 37.0247C73.8732 36.7341 73.7902 36.4436 73.6103 36.2083C73.4719 36.0146 73.2505 35.9039 73.0015 35.9039C72.7939 35.9039 72.5864 35.987 72.448 36.1392C72.3096 36.3052 72.2266 36.5128 72.2405 36.7203C72.2266 37.0247 72.3096 37.3291 72.4895 37.5782C72.6417 37.758 72.8631 37.8687 73.0983 37.8549C73.3059 37.8687 73.5134 37.7719 73.6518 37.6197C73.804 37.4536 73.8732 37.2461 73.8593 37.0247Z" fill="white" fill-opacity="0.7"/>
<path d="M77.7889 36.7476C77.8027 37.1212 77.6505 37.4948 77.3876 37.7716C77.1524 38.0344 76.8065 38.1867 76.4468 38.1867C76.2392 38.1867 76.0178 38.1451 75.8241 38.076C75.7964 38.0621 75.7964 38.1175 75.7964 38.2282V39.1967C75.7964 39.3489 75.921 39.4458 76.1839 39.5011C76.2669 39.515 76.3361 39.5288 76.4052 39.5565C76.4329 39.5703 76.4606 39.6118 76.4468 39.6533C76.4468 39.7225 76.4052 39.764 76.3084 39.7502C75.9071 39.7225 75.5197 39.7225 75.1184 39.7779C75.0769 39.7917 75.0354 39.7917 74.9801 39.7779C74.9662 39.764 74.9524 39.7363 74.9524 39.6948C74.9524 39.6533 75.0078 39.6118 75.1323 39.5565C75.2568 39.5011 75.2845 39.4181 75.2845 39.2521V36.4294C75.2845 36.1942 75.2153 36.0558 75.0908 36.0005C74.9386 35.9313 74.8694 35.8759 74.8694 35.8344C74.8694 35.7929 74.9109 35.7514 75.0078 35.7237C75.1323 35.6961 75.243 35.6407 75.3537 35.5715C75.409 35.53 75.4782 35.5024 75.5335 35.4885C75.6027 35.4885 75.6442 35.5439 75.6857 35.6684C75.7411 35.8344 75.7826 35.9313 75.8103 35.9313C75.8379 35.9313 75.9071 35.8759 76.087 35.7791C76.2669 35.6822 76.4606 35.6131 76.6681 35.6131C76.9449 35.5992 77.2216 35.6961 77.4291 35.8759C77.692 36.0835 77.8166 36.4017 77.7889 36.7476ZM77.2354 36.9967C77.2493 36.7061 77.1663 36.4156 76.9725 36.1804C76.848 36.0282 76.6681 35.9313 76.4744 35.9313C76.3222 35.9313 76.17 35.9866 76.0455 36.0835C75.8656 36.208 75.7688 36.4156 75.7826 36.637V37.5502C75.7826 37.6055 75.8656 37.6747 76.0317 37.73C76.2115 37.7992 76.4052 37.8407 76.599 37.8407C77.0279 37.8407 77.2354 37.564 77.2354 36.9967Z" fill="white" fill-opacity="0.7"/>
<path d="M82.5487 37.8131C82.5487 37.8546 82.4657 37.9237 82.2997 38.0206C82.1751 38.1036 82.0506 38.1451 81.9122 38.159C81.8292 38.159 81.7462 38.1175 81.6909 38.0344C81.6217 37.9514 81.5802 37.9099 81.5525 37.9099C81.4418 37.9514 81.3449 37.9929 81.2481 38.0483C81.0821 38.1313 80.8883 38.1866 80.6946 38.1866C80.5286 38.1866 80.3764 38.1313 80.2519 38.0344C80.1273 37.9237 80.0443 37.7439 80.0581 37.5778C80.0581 37.2042 80.4871 36.9414 81.3311 36.7753C81.4695 36.7476 81.5525 36.6923 81.5525 36.5954V36.3879C81.5663 36.042 81.4141 35.8621 81.0821 35.8621C80.9852 35.8621 80.9022 35.9451 80.8192 36.1112C80.7638 36.2495 80.6254 36.3464 80.4732 36.3602C80.2934 36.3741 80.2104 36.3049 80.2104 36.1388C80.2104 36.042 80.3349 35.9174 80.5978 35.7791C80.833 35.6407 81.1097 35.5715 81.3865 35.5715C81.8154 35.5715 82.0368 35.7791 82.0368 36.1942L82.0229 37.5225C82.0229 37.6609 82.0783 37.73 82.2028 37.73C82.2443 37.73 82.2997 37.7162 82.3412 37.7162C82.4104 37.7024 82.4519 37.7024 82.4519 37.7024C82.521 37.6885 82.5487 37.73 82.5487 37.8131ZM81.5525 37.0797C81.5525 37.0244 81.5387 36.9829 81.511 36.969C81.4695 36.9552 81.428 36.9414 81.3865 36.9552C80.8745 37.052 80.6116 37.2181 80.6116 37.4533C80.6116 37.7024 80.75 37.8269 81.0129 37.8269C81.1236 37.8269 81.2342 37.7992 81.3449 37.7715C81.4833 37.73 81.5387 37.6609 81.5387 37.6055L81.5525 37.0797Z" fill="white" fill-opacity="0.7"/>
<path d="M84.7071 37.8132C84.7071 37.91 84.6103 38.0069 84.4304 38.0761C84.2644 38.1453 84.0983 38.1729 83.9184 38.1729C83.448 38.1729 83.2266 37.9239 83.2266 37.4258V36.2635C83.2404 36.1666 83.2266 36.0698 83.1851 35.9868C83.1159 35.9314 83.0329 35.9037 82.9499 35.8899C82.9222 35.8761 82.8945 35.8484 82.8945 35.7931C82.8945 35.7377 82.9084 35.6962 82.936 35.6824C83.1989 35.544 83.4065 35.3365 83.5449 35.0736C83.5725 35.032 83.614 35.0182 83.6832 35.032C83.7247 35.0459 83.7524 35.0736 83.7524 35.1151L83.7662 35.5163C83.7662 35.544 83.7662 35.5578 83.7801 35.5855C83.7939 35.5993 83.8216 35.6132 83.8769 35.6132H84.5964C84.6379 35.6132 84.6379 35.6685 84.5964 35.7654C84.5549 35.8622 84.4719 35.9453 84.375 35.9453H83.8908C83.8077 35.9453 83.7524 35.9591 83.7386 35.9868C83.7247 36.0421 83.7109 36.0836 83.7109 36.139V37.1905C83.6971 37.3566 83.7247 37.5365 83.7801 37.6887C83.8354 37.7855 83.9876 37.827 84.209 37.827C84.3059 37.827 84.3889 37.8132 84.4857 37.7855C84.5964 37.7578 84.6518 37.744 84.6518 37.744C84.6933 37.7717 84.7071 37.7855 84.7071 37.8132Z" fill="white" fill-opacity="0.7"/>
<path d="M89.3563 37.8129C89.3563 37.8544 89.2733 37.9236 89.1073 38.0204C88.9828 38.1035 88.8582 38.145 88.7199 38.1588C88.6368 38.1588 88.5538 38.1173 88.4985 38.0343C88.4293 37.9513 88.3878 37.9097 88.3601 37.9097C88.2494 37.9513 88.1526 37.9928 88.0557 38.0481C87.8897 38.1311 87.696 38.1865 87.5022 38.1865C87.3362 38.1865 87.184 38.1311 87.0595 38.0343C86.9349 37.9236 86.8519 37.7437 86.8658 37.5777C86.8658 37.2041 87.2947 36.9412 88.1387 36.7751C88.2771 36.7475 88.3601 36.6921 88.3601 36.5953V36.3877C88.3739 36.0418 88.2217 35.8619 87.8897 35.8619C87.7928 35.8619 87.7098 35.945 87.6268 36.111C87.5714 36.2632 87.4331 36.3601 87.267 36.3739C87.0871 36.3877 87.0041 36.3185 87.0041 36.1525C87.0041 36.0556 87.1287 35.9311 87.3915 35.7928C87.6268 35.6544 87.9035 35.5852 88.1802 35.5852C88.6092 35.5852 88.8306 35.7928 88.8306 36.2078L88.8167 37.5362C88.8167 37.6745 88.8721 37.7437 88.9966 37.7437C89.0381 37.7437 89.0934 37.7299 89.135 37.7299C89.2041 37.716 89.2456 37.716 89.2456 37.716C89.3148 37.7022 89.3425 37.7437 89.3563 37.8129ZM88.3601 37.0796C88.3601 37.0242 88.3463 36.9827 88.3186 36.9689C88.2771 36.955 88.2356 36.9412 88.1941 36.955C87.6821 37.0519 87.4192 37.2179 87.4192 37.4531C87.4192 37.7022 87.5576 37.8267 87.8205 37.8267C87.9312 37.8267 88.0419 37.7991 88.1526 37.7714C88.2909 37.7299 88.3463 37.6607 88.3463 37.6053L88.3601 37.0796Z" fill="white" fill-opacity="0.7"/>
<path d="M93.1337 37.8132C93.1337 37.91 93.0369 38.0069 92.857 38.0761C92.6909 38.1453 92.5249 38.1729 92.345 38.1729C91.8884 38.1729 91.6532 37.9239 91.6532 37.4258V36.2635C91.667 36.1666 91.6532 36.0698 91.6255 35.9868C91.5564 35.9314 91.4733 35.9037 91.3903 35.8899C91.3626 35.8761 91.335 35.8484 91.335 35.7931C91.335 35.7377 91.3488 35.6962 91.3765 35.6824C91.6394 35.544 91.8469 35.3365 91.9853 35.0736C92.013 35.032 92.0545 35.0182 92.1236 35.032C92.1652 35.0459 92.1928 35.0736 92.1928 35.1151L92.2067 35.5163C92.2067 35.544 92.2067 35.5578 92.2205 35.5855C92.2482 35.6132 92.2897 35.6132 92.3174 35.6132H93.0369C93.0784 35.6132 93.0784 35.6685 93.0369 35.7654C92.9953 35.8622 92.9123 35.9453 92.8155 35.9453H92.3312C92.2482 35.9453 92.1928 35.9591 92.179 35.9868C92.1652 36.0421 92.1513 36.0836 92.1513 36.139V37.1905C92.1375 37.3566 92.1652 37.5365 92.2205 37.6887C92.2897 37.7855 92.428 37.827 92.6494 37.827C92.7463 37.827 92.8293 37.8132 92.9262 37.7855C93.0369 37.7578 93.0922 37.744 93.0922 37.744C93.1337 37.7717 93.1475 37.7855 93.1337 37.8132Z" fill="white" fill-opacity="0.7"/>
<path d="M94.7528 34.4091C94.7528 34.5059 94.7113 34.6166 94.6421 34.6858C94.5867 34.7688 94.4899 34.8103 94.393 34.8103C94.2962 34.8103 94.2131 34.7827 94.1439 34.7273C94.0748 34.672 94.0471 34.5751 94.0471 34.4921C94.0471 34.3952 94.0886 34.2984 94.1578 34.2292C94.227 34.16 94.31 34.1047 94.4068 34.1047C94.6421 34.0908 94.7528 34.2015 94.7528 34.4091ZM95.0987 38.0343C95.0848 38.1034 95.0572 38.1311 95.0295 38.1449C94.9741 38.1449 94.9326 38.1449 94.8773 38.1449C94.559 38.1173 94.2546 38.1311 93.9364 38.1588C93.8811 38.1726 93.8257 38.1726 93.7842 38.1449C93.7565 38.1311 93.7565 38.0896 93.7565 38.0343C93.7565 37.9789 93.8119 37.9374 93.9226 37.9097C94.0333 37.882 94.1024 37.7575 94.1024 37.55V36.7059C94.1163 36.5814 94.0886 36.4569 94.0471 36.3462C93.9779 36.2355 93.8811 36.1663 93.7565 36.1386C93.6873 36.111 93.6597 36.0833 93.6597 36.028C93.6597 35.9726 93.7012 35.9173 93.798 35.8896C93.9641 35.8342 94.1301 35.7651 94.2823 35.6682C94.3377 35.6129 94.4068 35.5852 94.4899 35.5575C94.5729 35.5575 94.6144 35.6129 94.6144 35.7235C94.6006 36.2908 94.6006 36.8581 94.6006 37.4393C94.5867 37.5361 94.6144 37.6468 94.6559 37.7437C94.7251 37.8267 94.8081 37.8682 94.9188 37.882C95.0433 37.9236 95.1125 37.9789 95.0987 38.0343Z" fill="white" fill-opacity="0.7"/>
<path d="M100.758 38.0346C100.758 38.1038 100.73 38.1315 100.661 38.1315C100.259 38.1038 99.8444 38.1038 99.4431 38.1315C99.3601 38.1315 99.3186 38.1038 99.3186 38.0208C99.3186 37.9377 99.3739 37.9239 99.4846 37.9239C99.623 37.9101 99.706 37.7994 99.706 37.578V36.7201C99.706 36.2358 99.5123 36.0006 99.1248 36.0006C98.9311 36.0006 98.7374 36.0421 98.5576 36.1113C98.4054 36.1805 98.3223 36.2497 98.3223 36.305L98.3085 37.578C98.2947 37.6748 98.3223 37.7579 98.35 37.8409C98.3915 37.8824 98.4469 37.8962 98.5022 37.9101C98.6959 37.9377 98.7789 37.9793 98.7789 38.0346C98.7789 38.0623 98.7789 38.0899 98.7651 38.1176C98.7513 38.1453 98.7098 38.1453 98.6544 38.1453C98.4054 38.1315 98.0594 38.1453 97.589 38.1591C97.5475 38.1591 97.506 38.1591 97.4645 38.1453C97.4506 38.1315 97.4368 38.1038 97.4368 38.0484C97.4368 37.9931 97.4921 37.9516 97.6167 37.9516C97.7412 37.9516 97.8104 37.8132 97.8104 37.5918V36.7201C97.8242 36.5264 97.7689 36.3327 97.6443 36.1805C97.5613 36.0698 97.423 36.0006 97.2846 36.0145C97.0909 36.0145 96.8833 36.056 96.7035 36.139C96.5374 36.222 96.4544 36.3189 96.4544 36.4157V37.5918C96.4406 37.6887 96.4821 37.7994 96.5513 37.8686C96.6481 37.9239 96.7726 37.9516 96.8833 37.9516C96.9664 37.9516 97.0217 37.9793 97.0217 38.0484C97.0217 38.1176 96.9802 38.1453 96.911 38.1453C96.5236 38.1453 96.1362 38.1591 95.7487 38.1868C95.6934 38.2006 95.638 38.2006 95.5965 38.1868C95.5827 38.173 95.5689 38.1453 95.5689 38.1038C95.5689 38.0623 95.6519 38.0069 95.8041 37.9654C95.9009 37.9377 95.9424 37.8132 95.9424 37.5918V36.6094C95.9424 36.3604 95.8733 36.2082 95.7349 36.1805C95.6657 36.1667 95.5965 36.139 95.5273 36.1113C95.4997 36.0975 95.4858 36.0698 95.4858 36.0421C95.4858 36.0006 95.5965 35.9176 95.8179 35.7931C95.9563 35.7101 96.0946 35.6409 96.2468 35.5994C96.2884 35.5994 96.3299 35.6685 96.3575 35.7931C96.3852 35.9176 96.4129 35.9868 96.4267 35.9868C96.4959 35.9591 96.5651 35.9314 96.6204 35.8899C96.7311 35.8208 96.8557 35.7516 96.9802 35.7101C97.1462 35.6409 97.3399 35.6132 97.5198 35.6132C97.6582 35.6132 97.7965 35.6409 97.9072 35.7101C97.9903 35.7516 98.0594 35.8208 98.1148 35.8899L98.184 35.9868L98.35 35.8899C98.4745 35.8208 98.5991 35.7654 98.7374 35.7101C98.9035 35.6409 99.0833 35.6132 99.2632 35.6132C99.8443 35.6132 100.149 35.9314 100.149 36.5818V37.6195C100.135 37.7164 100.176 37.8132 100.232 37.8824C100.329 37.9377 100.425 37.9792 100.536 37.9931C100.702 37.9654 100.758 37.9931 100.758 38.0346Z" fill="white" fill-opacity="0.7"/>
<path d="M103.47 37.5779C103.47 37.6747 103.345 37.7854 103.096 37.9238C102.833 38.076 102.529 38.1452 102.224 38.1452C101.92 38.159 101.629 38.0345 101.408 37.8269C101.173 37.5917 101.034 37.2596 101.048 36.9276C101.034 36.5401 101.173 36.1804 101.45 35.9037C101.685 35.6684 102.017 35.5301 102.349 35.5439C102.57 35.5439 102.778 35.6131 102.944 35.7515C103.096 35.8483 103.207 36.0005 103.276 36.1666C103.29 36.2219 103.318 36.2496 103.359 36.2634C103.414 36.2773 103.456 36.3188 103.442 36.3741C103.442 36.4571 103.331 36.5401 103.124 36.5955L101.643 37.0383C101.74 37.5502 102.003 37.7993 102.432 37.7993C102.736 37.7854 103.027 37.6886 103.276 37.5225C103.318 37.4949 103.359 37.481 103.414 37.481C103.456 37.4949 103.47 37.5225 103.47 37.5779ZM102.709 36.2911C102.709 36.1666 102.653 36.0559 102.57 35.9867C102.473 35.8898 102.349 35.8483 102.224 35.8483C101.837 35.8483 101.629 36.1251 101.629 36.7062V36.7892L102.501 36.5263C102.64 36.471 102.709 36.4018 102.709 36.2911Z" fill="white" fill-opacity="0.7"/>
</svg>
