<svg width="167" height="32" viewBox="0 0 167 32" fill="none" xmlns="http://www.w3.org/2000/svg">
<path fill-rule="evenodd" clip-rule="evenodd" d="M116.404 6.97319C113.898 6.97319 112.018 7.8912 111.078 9.4212L110.608 10.3392V7.4322H106.534V25.1802H110.921V14.6232C110.921 12.1752 112.331 10.6452 114.838 10.6452C117.188 10.6452 118.441 12.0222 118.441 14.4702V25.1802H122.828V13.7052C122.671 9.57419 120.321 6.97319 116.404 6.97319ZM95.2537 6.97319C90.0835 6.97319 86.95 10.1862 86.95 15.2352V17.6832C86.95 22.5792 90.2402 25.4862 95.4104 25.4862C98.8572 25.4862 101.364 24.2622 102.774 21.6612L100.111 20.1312C99.0138 21.6612 97.1338 22.5792 95.4104 22.5792C92.7469 22.5792 91.1802 21.0492 91.1802 18.2952V17.5302H103.401V14.6232C103.244 10.0332 100.111 6.97319 95.2537 6.97319ZM99.3272 14.9292H91.1802V14.4702C91.1802 11.5632 92.5903 9.8802 95.2537 9.8802C97.7605 9.8802 99.3272 11.4102 99.3272 14.1642V14.9292ZM166.07 4.5252V1.15919H151.029V4.5252H156.356V21.8142H151.029V25.1802H166.07V21.8142H160.743V4.5252H166.07ZM51.542 0.700195C44.8051 0.700195 40.5749 4.83119 40.5749 11.4102V14.9292C40.5749 21.5082 44.8051 25.6392 51.542 25.6392C58.2789 25.6392 62.5091 21.5082 62.5091 14.9292V11.4102C62.5091 4.83119 58.2789 0.700195 51.542 0.700195ZM57.9656 15.2352C57.9656 19.6722 55.6155 22.1202 51.542 22.1202C47.4685 22.1202 45.1184 19.6722 45.1184 15.2352V11.1042C45.1184 6.66719 47.4685 4.21919 51.542 4.21919C55.6155 4.21919 57.9656 6.66719 57.9656 11.1042V15.2352ZM76.2963 7.1262C73.9462 7.1262 72.0661 8.04419 70.9694 9.57419L70.4994 10.1862V7.4322H66.4259V31.3002H70.8127V22.7322L71.2828 23.3442C72.2228 24.7212 74.2596 25.6392 76.453 25.6392C80.2131 25.6392 83.9733 23.1912 83.9733 17.8362V14.7762C83.8166 10.9512 81.4665 6.9732 76.2963 7.1262ZM79.4297 17.6832C79.4297 20.5902 77.7064 22.2732 75.0429 22.2732C72.5361 22.2732 70.6561 20.4372 70.6561 17.6832V15.0822C70.6561 12.3282 72.3795 10.4922 75.0429 10.4922C77.7064 10.4922 79.4297 12.3282 79.4297 15.0822V17.6832ZM134.735 1.15919L125.962 25.1802H130.348L132.072 19.9782H142.255L143.979 25.0272H148.366L139.592 1.0062L134.735 1.15919ZM133.168 16.6122L137.085 4.5252L141.002 16.6122H133.168ZM29.2945 13.2462C30.0779 11.1042 29.7645 8.80919 28.6678 6.97319C26.9444 4.06619 23.4976 2.5362 20.2075 3.3012C18.3274 1.3122 15.5073 0.394193 12.6872 0.853193C9.86707 1.46519 7.67366 3.4542 6.73362 6.0552C4.5402 6.5142 2.66013 7.8912 1.56342 9.7272C-0.159977 12.6342 0.153369 16.3062 2.50346 18.7542C1.7201 20.8962 2.03344 23.1912 3.13015 25.0272C4.85355 27.9342 8.30035 29.4642 11.5905 28.6992C13.1572 30.3822 15.1939 31.3002 17.544 31.3002C20.9908 31.3002 23.9676 29.1582 25.0643 25.9452C27.2577 25.4862 29.1378 24.1092 30.2345 22.2732C31.9579 19.3662 31.6446 15.6942 29.2945 13.2462ZM17.544 29.3112C16.134 29.3112 14.8806 28.8522 13.7839 27.9342L13.9406 27.7812L20.2075 24.2622C20.5208 24.1092 20.6775 23.8032 20.6775 23.3442V14.7762L23.3409 16.3062V23.4972C23.3409 26.7102 20.8342 29.3112 17.544 29.3112ZM4.85355 23.9562C4.22686 22.7322 3.91351 21.5082 4.22686 20.1312L4.38353 20.2842L10.6504 23.8032C10.9638 23.9562 11.2771 23.9562 11.7471 23.8032L19.4241 19.5192V22.4262C19.4241 22.4262 19.4241 22.4262 19.4241 22.5792L13.1572 26.0982C10.1804 27.6282 6.57695 26.7102 4.85355 23.9562ZM3.28682 10.7982C3.91351 9.57419 5.01022 8.8092 6.42028 8.35019V15.5412C6.42028 15.8472 6.57695 16.1532 6.89029 16.4592L14.4106 20.7432L11.7471 22.2732C11.7471 22.2732 11.7471 22.2732 11.5905 22.2732L5.32357 18.7542C2.66013 16.9182 1.7201 13.3992 3.28682 10.7982ZM24.9077 15.6942L17.3874 11.4102L20.0508 9.8802C20.0508 9.8802 20.0508 9.8802 20.2075 9.8802L26.4744 13.3992C28.5111 14.4702 29.6078 16.6122 29.4512 18.9072C29.2945 21.0492 27.7278 23.0382 25.691 23.8032V16.6122C25.5343 16.1532 25.221 15.8472 24.9077 15.6942ZM27.5711 11.8692L27.4144 11.7162L21.1475 8.1972C20.8342 8.0442 20.3641 8.0442 20.0508 8.1972L12.5305 12.4812V9.57419C12.5305 9.57419 12.5305 9.5742 12.5305 9.4212L18.7974 5.9022C20.8342 4.8312 23.1843 4.83119 25.0643 6.20819C26.9444 7.43219 27.8844 9.57419 27.5711 11.8692ZM11.1205 17.0712L8.45702 15.5412V8.35019C8.45702 6.0552 9.7104 4.06619 11.9038 3.14819C13.9406 2.23019 16.4473 2.53619 18.1707 3.91319L18.0141 4.0662L11.7471 7.5852C11.4338 7.7382 11.2771 8.04419 11.2771 8.50319L11.1205 17.0712ZM12.5305 14.0112L15.9773 12.1752L19.4241 14.0112V17.8362L15.9773 19.6722L12.5305 17.8362V14.0112Z" fill="white" fill-opacity="0.7"/>
</svg>
