<svg width="177" height="44" viewBox="0 0 177 44" fill="none" xmlns="http://www.w3.org/2000/svg">
<g clip-path="url(#clip0_763_5461)">
<path d="M83.7304 27.8219C83.7375 27.0881 83.5826 26.3612 83.294 25.6897C83.0124 25.039 82.604 24.4437 82.0972 23.9314C81.5832 23.4261 80.9778 23.0176 80.309 22.7338C78.901 22.1454 77.317 22.1454 75.909 22.7338C74.5714 23.3014 73.5013 24.3537 72.9381 25.6759C72.3538 27.0396 72.3538 28.5765 72.9381 29.9471C73.5013 31.2694 74.5643 32.3216 75.909 32.8892C77.317 33.4777 78.901 33.4777 80.309 32.8892C80.9778 32.6054 81.5832 32.2039 82.0972 31.6916C82.604 31.1863 83.0124 30.5909 83.294 29.9333C83.5826 29.2687 83.7304 28.5488 83.7304 27.8219ZM78.1055 19.0094C80.1541 18.9818 82.1394 19.6602 83.7304 20.9339V13.0975C83.7093 12.2115 84.4204 11.4777 85.3215 11.4569H85.3989C85.8424 11.443 86.2789 11.6092 86.5957 11.9207C86.9196 12.2253 87.0956 12.6545 87.0815 13.0975V27.8288C87.1308 30.1756 86.1733 32.4323 84.4556 34.0592C80.9567 37.4997 75.2824 37.4928 71.7836 34.0522C68.2847 30.6117 68.2917 25.0321 71.7906 21.5916C73.4661 19.944 75.74 19.0164 78.1055 19.0094ZM106.871 27.8219C106.92 30.1687 105.963 32.4254 104.245 34.0522C100.746 37.4443 95.1141 37.4028 91.6645 33.9692C88.2149 30.5286 88.2571 24.9906 91.749 21.5985C95.2479 18.2064 100.88 18.248 104.329 21.6816C105.125 22.4777 105.766 23.4122 106.202 24.4437C106.646 25.5167 106.885 26.6589 106.892 27.815H106.871V27.8219ZM97.909 22.2977C97.1487 22.2908 96.3954 22.443 95.6984 22.7407C94.3608 23.3084 93.2907 24.3606 92.7275 25.6828C92.1432 27.0466 92.1432 28.5834 92.7275 29.9541C93.2907 31.2763 94.3538 32.3285 95.6984 32.8962C97.1064 33.4846 98.6904 33.4846 100.098 32.8962C100.767 32.6123 101.373 32.2108 101.887 31.6986C102.393 31.1932 102.802 30.5979 103.083 29.9402C103.675 28.5765 103.675 27.0327 103.083 25.669C102.802 25.0182 102.393 24.4229 101.887 23.9106C101.373 23.4053 100.767 22.9969 100.098 22.713C99.4085 22.4292 98.6764 22.2838 97.9301 22.2907H97.909V22.2977ZM122.408 31.6432C123.309 31.6224 124.056 32.3216 124.077 33.2077V33.2838C124.077 33.7407 123.88 34.1838 123.535 34.4953C119.789 37.6727 114.129 37.2643 110.898 33.5815C107.666 29.8987 108.082 24.3329 111.827 21.1554C115.192 18.3033 120.169 18.3033 123.535 21.1554C123.908 21.467 124.119 21.9239 124.112 22.4015C124.126 22.8446 123.957 23.2668 123.64 23.5784C123.323 23.8899 122.894 24.056 122.443 24.0491C122.049 24.0491 121.662 23.9176 121.359 23.6683C120.852 23.2391 120.275 22.893 119.649 22.6438C119.022 22.4084 118.36 22.2908 117.691 22.2977C116.945 22.2977 116.206 22.443 115.523 22.7269C114.854 23.0038 114.249 23.4053 113.735 23.9037C113.221 24.4091 112.806 25.0044 112.524 25.6621C112.235 26.3454 112.086 27.0783 112.086 27.8184C112.086 28.5586 112.235 29.2915 112.524 29.9748C112.806 30.6325 113.221 31.2278 113.735 31.7332C114.249 32.2316 114.861 32.6331 115.523 32.91C116.206 33.2008 116.945 33.3461 117.691 33.3392C118.36 33.3461 119.022 33.2354 119.649 33C120.268 32.7577 120.845 32.4185 121.345 31.9893C121.662 31.7609 122.042 31.6362 122.429 31.6432H122.408ZM126.013 34.9799V13.1045C126.006 12.1976 126.745 11.4569 127.66 11.45H127.695C128.139 11.443 128.561 11.6161 128.871 11.9276C129.188 12.2391 129.371 12.6614 129.357 13.1045V25.3782L138.924 19.2587C139.192 19.0925 139.501 19.0025 139.818 19.0094C140.043 19.0094 140.269 19.051 140.473 19.134C140.677 19.2102 140.86 19.3348 141.015 19.4871C141.163 19.6463 141.289 19.8263 141.374 20.0201C141.465 20.2209 141.508 20.4355 141.508 20.6501C141.543 21.1693 141.304 21.6608 140.867 21.9585L134.165 26.2297L141.043 33.8446C141.346 34.1561 141.508 34.5645 141.508 34.9937C141.508 35.2083 141.465 35.4229 141.374 35.6237C141.289 35.8175 141.163 36.0044 141.015 36.1567C140.86 36.309 140.677 36.4267 140.473 36.5098C140.262 36.5928 140.043 36.6413 139.818 36.6344C139.403 36.6482 139.001 36.489 138.699 36.2052L131.307 28.0434L129.357 29.3033V34.9799C129.364 35.416 129.188 35.8383 128.871 36.1429C128.561 36.4613 128.139 36.6344 127.695 36.6274C127.245 36.6344 126.815 36.4613 126.498 36.1429C126.189 35.8383 126.02 35.416 126.027 34.9868H126.013V34.9799ZM157.657 26.1812C157.481 25.6072 157.207 25.0665 156.848 24.5821C156.144 23.6337 155.158 22.9276 154.032 22.5607C153.462 22.3738 152.863 22.2769 152.265 22.2769C151.659 22.2769 151.061 22.3738 150.491 22.5607C149.928 22.7476 149.393 23.0107 148.907 23.3568C148.428 23.696 148.006 24.1114 147.661 24.5821C147.309 25.0667 147.041 25.6067 146.879 26.1812H157.657ZM156.939 31.6778C157.841 31.6501 158.594 32.3424 158.622 33.2215V33.3115C158.629 33.7546 158.46 34.1768 158.143 34.4884C154.398 37.6728 148.745 37.2643 145.506 33.5884C142.268 29.9056 142.683 24.3468 146.422 21.1624C148.048 19.7778 150.132 19.0164 152.286 19.0164C155.905 19.0371 159.164 21.1693 160.586 24.4368C161.03 25.5098 161.255 26.6658 161.241 27.8219C161.255 28.2649 161.079 28.6872 160.755 28.9987C160.438 29.3103 160.009 29.4764 159.558 29.4626H146.9C147.076 30.0371 147.344 30.5771 147.696 31.0617C148.041 31.5324 148.463 31.9478 148.942 32.287C149.421 32.6331 149.949 32.8962 150.512 33.0831C151.089 33.27 151.688 33.3669 152.3 33.3669C152.962 33.3738 153.617 33.27 154.236 33.0554C154.834 32.8408 155.384 32.5223 155.862 32.1139C156.165 31.8439 156.559 31.6916 156.961 31.6778H156.939ZM166.408 20.6432V20.9547C167.19 20.3386 168.077 19.8471 169.02 19.5079C169.985 19.1687 171.005 18.9956 172.026 19.0094C172.533 19.0094 173.04 19.0441 173.54 19.1064C174.047 19.1617 174.546 19.2725 175.025 19.4456C175.448 19.584 175.828 19.8125 176.152 20.1101C176.454 20.4009 176.616 20.7955 176.602 21.2108C176.602 21.4323 176.56 21.6539 176.468 21.8546C176.384 22.0485 176.257 22.2354 176.109 22.3877C175.954 22.54 175.771 22.6576 175.567 22.7407C175.356 22.8238 175.138 22.8722 174.913 22.8653C174.666 22.8584 174.427 22.7961 174.208 22.6923C173.519 22.4292 172.779 22.2908 172.04 22.2977C171.294 22.2977 170.555 22.443 169.872 22.7269C168.527 23.2875 167.457 24.34 166.887 25.6621C166.591 26.3335 166.443 27.0604 166.45 27.7942V34.966C166.45 35.8729 165.704 36.6067 164.782 36.6067C164.331 36.6136 163.902 36.4405 163.585 36.129C163.268 35.8244 163.092 35.4091 163.099 34.9729V20.6432C163.092 20.2071 163.268 19.7917 163.585 19.4871C163.902 19.1756 164.331 18.9956 164.782 19.0094C165.704 19.0094 166.45 19.7432 166.45 20.6501H166.408V20.6432ZM61.3362 16.7942C59.9423 15.8389 56.7391 15.4858 54.2399 15.9635C53.9442 13.5821 52.6136 11.4984 50.2834 9.65009L48.9458 8.69478L48.0095 10.0654C46.7986 12.073 46.2495 14.4059 46.4396 16.7388C46.5381 18.0264 46.9605 19.2794 47.6575 20.3732C46.2072 21.1139 44.581 21.4808 42.9477 21.4393H0.883711L0.771071 21.9169C0.362751 24.2914 0.362751 31.7332 5.11475 37.4512C8.72627 41.7986 14.0767 44 21.1096 44C36.3512 44 47.6434 36.7936 52.9304 23.7514C55.0284 23.8068 59.4987 23.7514 61.7727 19.2863C61.829 19.1687 61.9487 18.9264 62.3499 18.0403L62.5823 17.5626L61.301 16.7873L61.3362 16.7942ZM34.5138 0H28.1144V5.95343H34.5138V0ZM34.5138 7.14412H28.1144V13.0975H34.5138V7.14412ZM26.9458 7.14412H20.5464V13.0975H26.9458V7.14412ZM19.3778 7.14412H12.9855V13.0975H19.3848L19.3778 7.14412ZM11.8168 14.2882H5.42451V20.2417H11.8239L11.8168 14.2882ZM19.3778 14.2882H12.9855V20.2417H19.3848L19.3778 14.2882ZM26.9458 14.2882H20.5464V20.2417H26.9458V14.2882ZM34.5138 14.2882H28.1144V20.2417H34.5138V14.2882ZM42.0747 14.2882H35.6754V20.2417H42.0747V14.2882Z" fill="white" fill-opacity="0.7"/>
</g>
<defs>
<clipPath id="clip0_763_5461">
<rect width="176" height="44" fill="white" transform="translate(0.609131)"/>
</clipPath>
</defs>
</svg>
