<svg width="150" height="48" viewBox="0 0 150 48" fill="none" xmlns="http://www.w3.org/2000/svg">
<path d="M31.1599 24.6998C31.5692 22.1702 29.8504 19.7879 27.3208 19.3787C24.7913 18.9694 22.409 20.6883 21.9998 23.2178C21.5905 25.7473 23.3094 28.1296 25.8389 28.5388C28.3684 28.9481 30.7507 27.2293 31.1599 24.6998Z" fill="white" fill-opacity="0.7"/>
<path d="M26.5788 14.5245C32.8081 14.5245 38.5945 15.4187 42.9576 16.9206C48.2141 18.7304 51.4462 21.4733 51.4462 23.9572C51.4462 26.4412 48.0208 29.4597 42.3759 31.3305C38.1081 32.7445 32.4919 33.4825 26.5788 33.4825C20.6658 33.4825 14.7758 32.7898 10.4608 31.3148C4.99995 29.4486 1.71143 26.4967 1.71143 23.9572C1.71143 21.4178 4.79742 18.771 9.98083 16.964C14.3597 15.4372 20.2894 14.5245 26.5797 14.5245H26.5788Z" stroke="white" stroke-opacity="0.7" stroke-width="2.22459"/>
<path d="M18.3677 19.2677C21.4796 13.8716 25.1445 9.30591 28.6254 6.27632C32.8192 2.62621 36.8106 1.19742 38.9616 2.43848C41.2042 3.73132 42.0171 8.15455 40.8177 13.9798C39.9105 18.3836 37.7446 23.6169 34.79 28.7393C31.7613 33.9911 28.2934 38.6178 24.8596 41.6187C20.515 45.4168 16.3147 46.791 14.1146 45.5222C11.9802 44.2913 11.1636 40.2584 12.1883 34.866C13.0539 30.3096 15.2243 24.7165 18.3668 19.2686L18.3677 19.2677Z" stroke="white" stroke-opacity="0.7" stroke-width="2.22459"/>
<path d="M18.3751 28.7522C15.2539 23.3617 13.1288 17.9055 12.2428 13.3768C11.1756 7.92058 11.9303 3.74889 14.0795 2.50413C16.3193 1.20759 20.5585 2.71129 25.0048 6.6601C28.3673 9.6453 31.8196 14.136 34.7816 19.2529C37.8186 24.4991 40.0954 29.8148 40.9814 34.288C42.1022 39.9486 41.195 44.2738 38.9977 45.5463C36.8652 46.7808 32.9635 45.4741 28.8029 41.8934C25.2878 38.8684 21.5267 34.1946 18.3751 28.7513V28.7522Z" stroke="white" stroke-opacity="0.7" stroke-width="2.22459"/>
<path d="M83.3631 32.7769L77.0376 23.2184C80.2355 22.9372 83.1171 20.6179 83.1171 16.4009C83.1171 12.1839 80.0598 9.3374 75.7725 9.3374H66.3545V32.7769H69.2713V23.4644H73.9451L79.9192 32.7769H83.3631ZM75.4211 20.899H69.2713V11.9379H75.4211C78.1972 11.9379 80.0949 13.7653 80.0949 16.4009C80.0949 19.0365 78.1972 20.899 75.4211 20.899ZM94.2219 33.1986C96.9981 33.1986 99.2823 32.2849 100.969 30.5981L99.704 28.8762C98.3686 30.2467 96.4007 31.0198 94.4679 31.0198C90.8131 31.0198 88.5641 28.3491 88.3532 25.1512H102.094V24.4835C102.094 19.3879 99.0714 15.3818 93.9407 15.3818C89.0912 15.3818 85.577 19.3528 85.577 24.2726C85.577 29.579 89.1966 33.1986 94.2219 33.1986ZM99.4931 23.2184H88.3532C88.4938 20.6179 90.286 17.5606 93.9056 17.5606C97.7712 17.5606 99.458 20.6882 99.4931 23.2184ZM119.594 32.7769V21.1099C119.594 16.9983 116.607 15.3818 113.023 15.3818C110.247 15.3818 108.068 16.2955 106.24 18.1931L107.47 20.0205C108.981 18.404 110.633 17.666 112.671 17.666C115.131 17.666 116.959 18.9662 116.959 21.2504V24.3078C115.588 22.7264 113.655 21.9884 111.336 21.9884C108.454 21.9884 105.397 23.7806 105.397 27.576C105.397 31.3713 108.454 33.1986 111.336 33.1986C113.62 33.1986 115.553 32.3904 116.959 30.8441V32.7769H119.594ZM112.285 31.301C109.825 31.301 108.103 29.7547 108.103 27.6111C108.103 25.4675 109.825 23.8861 112.285 23.8861C114.147 23.8861 115.939 24.5889 116.959 25.9946V29.1925C115.939 30.5981 114.147 31.301 112.285 31.301ZM132.351 33.1986C135.443 33.1986 137.27 31.9335 138.571 30.2467L136.814 28.6302C135.689 30.1413 134.248 30.8441 132.491 30.8441C128.872 30.8441 126.623 28.0328 126.623 24.2726C126.623 20.5125 128.872 17.7363 132.491 17.7363C134.248 17.7363 135.689 18.404 136.814 19.9502L138.571 18.3337C137.27 16.6469 135.443 15.3818 132.351 15.3818C127.29 15.3818 123.881 19.2474 123.881 24.2726C123.881 29.2979 127.29 33.1986 132.351 33.1986ZM146.548 33.1986C148.094 33.1986 149.043 32.7418 149.711 32.1092L148.938 30.1413C148.586 30.5279 147.883 30.8441 147.145 30.8441C145.986 30.8441 145.423 29.9305 145.423 28.6653V18.1228H148.867V15.8035H145.423V11.1648H142.788V15.8035H139.976V18.1228H142.788V29.2276C142.788 31.7578 144.053 33.1986 146.548 33.1986Z" fill="white" fill-opacity="0.7"/>
</svg>
