<svg width="135" height="28" viewBox="0 0 135 28" fill="none" xmlns="http://www.w3.org/2000/svg">
<g clip-path="url(#clip0_764_5595)">
<path d="M25.7751 28.0079C25.018 28.0079 24.2729 27.7134 23.716 27.1554L6.4858 9.92365V25.0965C6.4858 26.7051 5.18247 28.0081 3.5742 28.0081C1.96698 28.0081 0.662598 26.7048 0.662598 25.0965V2.89405C0.662598 1.71542 1.37308 0.654413 2.4608 0.203814C2.99267 -0.0170538 3.57817 -0.0749575 4.143 0.0374492C4.70783 0.149856 5.22654 0.427507 5.63333 0.835176L22.8635 18.0669V2.89405C22.8635 1.28551 24.1668 -0.0175558 25.7751 -0.0175558C27.3836 -0.0175558 28.6867 1.28578 28.6867 2.89405V25.0965C28.6863 25.8686 28.3794 26.6089 27.8335 27.1549C27.2875 27.7008 26.5472 28.0074 25.7751 28.0079ZM39.258 0.0104756L38.4579 1.50374L32.2703 12.7491L31.4702 14.169L32.2703 15.5873L38.4581 26.4698L39.2941 27.9615H55.4905L56.2906 26.3241L60.9129 17.0067L62.9872 12.785H58.2926L46.4647 12.8211C44.9263 12.8001 43.5111 14.1941 43.5111 15.7327C43.5111 17.271 44.9263 18.6663 46.4647 18.6443L53.598 18.6082L51.8512 22.138H42.6794L38.1291 14.1312L42.7155 5.83342H52.4715L54.746 10.501H60.6064L56.9125 1.64914L56.1111 0.0104756H39.2582M68.7544 -0.0256771C67.2286 -0.0070768 65.8593 1.39764 65.8789 2.92208V10.5097H71.7021V2.92208C71.7205 1.37275 70.3021 -0.0453253 68.7544 -0.0256771ZM78.0878 28.0639C77.3158 28.0634 76.5756 27.7565 76.0299 27.2105C75.4841 26.6646 75.1774 25.9243 75.1772 25.1523V2.94985C75.1772 1.34158 76.4806 0.038507 78.0888 0.038507C79.6974 0.038507 81.0004 1.34158 81.0004 2.95011V18.1227L98.2311 0.890715C98.638 0.483226 99.1567 0.205699 99.7215 0.0933016C100.286 -0.0190959 100.872 0.0386956 101.404 0.259353C101.936 0.479921 102.39 0.853243 102.71 1.33213C103.03 1.81102 103.201 2.37398 103.201 2.94985V25.1523C103.201 26.7603 101.897 28.0637 100.289 28.0637C98.6804 28.0637 97.3773 26.7603 97.3773 25.1521V9.97971L80.1467 27.2115C79.8763 27.482 79.5553 27.6965 79.202 27.8428C78.8487 27.9891 78.4699 28.0642 78.0875 28.0639M124.768 14.0288L133.825 5.00453C134.964 3.87017 134.968 2.02638 133.832 0.886262C132.698 -0.25281 130.856 -0.255168 129.715 0.879188L120.644 9.9192L111.573 0.879188C110.433 -0.256216 108.59 -0.252548 107.456 0.886262C106.32 2.02638 106.324 3.87017 107.462 5.00453L116.519 14.0291L107.489 23.028C106.348 24.1636 106.346 26.0061 107.481 27.1449C107.751 27.4172 108.073 27.6331 108.427 27.7803C108.781 27.9274 109.161 28.0028 109.544 28.0021C110.287 28.0021 111.03 27.7192 111.598 27.152L120.644 18.139L129.689 27.152C129.959 27.4219 130.279 27.636 130.632 27.7818C130.984 27.9277 131.362 28.0026 131.744 28.0021C132.492 28.0021 133.237 27.7168 133.807 27.1449C134.941 26.0061 134.939 24.1636 133.8 23.0282L124.768 14.0288ZM68.7544 27.9811C67.2286 27.9628 65.8593 26.5581 65.8789 25.0336V12.8457H71.7021V25.0336C71.7205 26.5814 70.3021 27.9997 68.7544 27.9811Z" fill="white" fill-opacity="0.7"/>
</g>
<defs>
<clipPath id="clip0_764_5595">
<rect width="134.132" height="28" fill="white" transform="translate(0.579834)"/>
</clipPath>
</defs>
</svg>
