<svg width="145" height="44" viewBox="0 0 145 44" fill="none" xmlns="http://www.w3.org/2000/svg">
<path fill-rule="evenodd" clip-rule="evenodd" d="M53.201 13.511V32.8041H60.2089V36.1249H49.4619V13.511C49.4854 13.511 53.201 13.511 53.201 13.511ZM73.4251 23.0991V21.0645H76.9761V36.1249H73.4251V34.0903C72.9548 34.8386 72.2728 35.4467 71.4027 35.8676C70.5326 36.2886 69.639 36.5224 68.7453 36.5224C67.593 36.5224 66.5348 36.3119 65.5942 35.891C64.677 35.4934 63.8304 34.9088 63.1485 34.1605C62.4665 33.4355 61.9256 32.5702 61.5493 31.6348C61.1731 30.676 60.9614 29.647 60.9849 28.5947C60.9849 27.5423 61.1731 26.5368 61.5493 25.578C61.9256 24.6425 62.4665 23.7773 63.1485 23.0523C63.8304 22.304 64.677 21.7193 65.5942 21.3218C66.5583 20.9008 67.593 20.6904 68.7453 20.6904C69.639 20.6904 70.5091 20.9008 71.4027 21.3452C72.2963 21.7895 72.9548 22.3507 73.4251 23.0991ZM73.0959 30.4422C73.3075 29.8575 73.4251 29.2261 73.4251 28.5947C73.4251 27.9399 73.3075 27.3319 73.0959 26.7472C72.8842 26.186 72.5785 25.6715 72.1787 25.2272C71.779 24.7828 71.3086 24.4321 70.7678 24.1982C70.2269 23.941 69.5919 23.8006 68.9335 23.8006C68.2515 23.8006 67.6636 23.941 67.1227 24.1982C66.5818 24.4554 66.1115 24.8062 65.7353 25.2272C65.3355 25.6715 65.0298 26.186 64.8416 26.7472C64.63 27.3319 64.5359 27.9633 64.5359 28.5947C64.5359 29.2495 64.63 29.8575 64.8416 30.4422C65.0533 31.0268 65.3355 31.5413 65.7353 31.9622C66.135 32.4065 66.6054 32.7573 67.1227 32.9912C67.6636 33.2484 68.275 33.3887 68.9335 33.3887C69.6155 33.3887 70.2269 33.2484 70.7678 32.9912C71.3086 32.7339 71.779 32.3832 72.1787 31.9622C72.5785 31.5179 72.8842 31.0034 73.0959 30.4422ZM79.751 36.1249V21.0645H89.3692V24.5256H83.302V36.1249H79.751ZM102.209 23.0991V21.0645H105.76V36.1249H102.209V34.0903C101.739 34.8386 101.057 35.4467 100.187 35.8676C99.3166 36.2886 98.423 36.5224 97.5294 36.5224C96.3771 36.5224 95.3424 36.3119 94.3782 35.891C93.4611 35.4934 92.6145 34.9088 91.9325 34.1605C91.2505 33.4355 90.7097 32.5702 90.3334 31.6348C89.9571 30.676 89.7455 29.647 89.769 28.5947C89.769 27.5423 89.9571 26.5368 90.3334 25.578C90.7097 24.6425 91.227 23.7773 91.9325 23.0523C92.6145 22.304 93.4611 21.7193 94.3782 21.3218C95.3424 20.9008 96.3771 20.6904 97.5294 20.6904C98.423 20.6904 99.2931 20.9008 100.187 21.3452C101.057 21.7661 101.739 22.3507 102.209 23.0991ZM101.88 30.4422C102.092 29.8575 102.209 29.2261 102.209 28.5947C102.209 27.9399 102.092 27.3319 101.88 26.7472C101.668 26.186 101.363 25.6715 100.963 25.2272C100.563 24.7828 100.093 24.4321 99.5518 24.1982C99.0109 23.941 98.376 23.8006 97.7175 23.8006C97.0356 23.8006 96.4476 23.941 95.9068 24.1982C95.3659 24.4554 94.8956 24.8062 94.5193 25.2272C94.1195 25.6715 93.8138 26.186 93.6257 26.7472C93.414 27.3319 93.32 27.9633 93.32 28.5947C93.32 29.2495 93.414 29.8575 93.6257 30.4422C93.8373 31.0268 94.1195 31.5413 94.5193 31.9622C94.9191 32.4065 95.3894 32.7573 95.9068 32.9912C96.4476 33.2484 97.0591 33.3887 97.7175 33.3887C98.3995 33.3887 99.0109 33.2484 99.5518 32.9912C100.093 32.7339 100.563 32.3832 100.963 31.9622C101.386 31.5179 101.692 31.0034 101.88 30.4422ZM119.964 21.0645H123.562L117.753 36.1249H113.309L107.453 21.0645H111.051L115.496 32.5936L119.964 21.0645ZM131.275 20.6904C136.096 20.6904 139.389 24.9465 138.777 29.9043H127.019C127.019 31.2139 128.336 33.7161 131.464 33.7161C134.168 33.7161 135.955 31.3542 135.955 31.3542L138.354 33.2017C136.214 35.4701 134.474 36.5224 131.722 36.5224C126.831 36.5224 123.491 33.4355 123.491 28.5947C123.491 24.2216 126.925 20.6904 131.275 20.6904ZM127.019 27.2851H135.508C135.485 27.0045 135.015 23.4732 131.228 23.4732C127.466 23.4732 127.042 27.0045 127.019 27.2851ZM141.058 36.1249V13.511H144.609V36.1249H141.058Z" fill="white" fill-opacity="0.7"/>
<path fill-rule="evenodd" clip-rule="evenodd" d="M43.2301 9.93303C43.2536 10.0032 43.2536 10.05 43.2536 10.1201V19.5679C43.2536 19.8251 43.1125 20.0356 42.9009 20.1759L34.9288 24.7361V33.7863C34.9288 34.0436 34.7877 34.2541 34.5761 34.3944L17.95 43.9123C17.903 43.9357 17.8794 43.9591 17.8324 43.9591C17.8089 43.9591 17.8089 43.9825 17.7854 43.9825C17.6678 44.0058 17.5502 44.0058 17.4326 43.9825C17.4091 43.9825 17.3856 43.9591 17.3856 43.9591C17.3386 43.9357 17.315 43.9357 17.268 43.9123L0.64193 34.3944C0.430283 34.2774 0.289185 34.0436 0.289185 33.7863V5.443C0.289185 5.37284 0.289184 5.32607 0.312701 5.25591C0.312701 5.23253 0.336217 5.20914 0.336217 5.20914C0.359733 5.16237 0.359732 5.13899 0.383249 5.09222C0.406765 5.06883 0.406766 5.04544 0.430283 5.02206C0.453799 4.99867 0.477314 4.97529 0.500831 4.9519C0.524347 4.92851 0.547864 4.92852 0.57138 4.90513C0.594897 4.88174 0.618414 4.85836 0.64193 4.83497L8.94321 0.087696C9.15486 -0.029232 9.41354 -0.029232 9.62519 0.087696L17.9265 4.83497C17.95 4.85836 17.9735 4.88174 17.997 4.90513C18.0205 4.92852 18.0441 4.92851 18.0676 4.9519C18.0911 4.97529 18.1146 4.99867 18.1381 5.02206C18.1616 5.04544 18.1616 5.06883 18.1852 5.09222C18.2087 5.1156 18.2087 5.16237 18.2322 5.20914C18.2322 5.23253 18.2557 5.25592 18.2557 5.2793C18.2792 5.34946 18.2792 5.39623 18.2792 5.46638V23.1459L25.2166 19.1703V10.1201C25.2166 10.05 25.2165 10.0032 25.2401 9.93303C25.2401 9.90965 25.2636 9.88626 25.2636 9.86287C25.2871 9.8161 25.2871 9.79272 25.3106 9.74595C25.3341 9.72256 25.3341 9.69918 25.3576 9.67579C25.3812 9.6524 25.4047 9.62902 25.4282 9.60564C25.4517 9.58225 25.4752 9.58225 25.4987 9.55886C25.5223 9.53548 25.5458 9.51209 25.5693 9.48871L33.8706 4.74143C34.0822 4.6245 34.3409 4.6245 34.5526 4.74143L42.8538 9.48871C42.8774 9.51209 42.9009 9.53548 42.9244 9.55886C42.9479 9.58225 42.9714 9.58225 42.9949 9.60564C43.0185 9.62902 43.042 9.6524 43.0655 9.67579C43.089 9.69918 43.089 9.72256 43.1125 9.74595C43.136 9.76933 43.136 9.8161 43.1596 9.86287C43.2301 9.90965 43.2301 9.90965 43.2301 9.93303ZM41.8661 19.147V11.2894L38.9501 12.9498L34.9288 15.2416V23.0991L41.8661 19.147ZM33.5649 33.3654V25.5078L29.6141 27.7529L18.3263 34.1605V42.0882L33.5649 33.3654ZM1.70017 6.63566V33.3654L16.9388 42.0882V34.1605L8.96673 29.6705C8.94321 29.6471 8.91969 29.6237 8.89618 29.6237C8.87266 29.6003 8.84915 29.6003 8.82563 29.5769C8.80212 29.5535 8.7786 29.5302 8.7786 29.5068C8.75508 29.4834 8.73156 29.46 8.73156 29.4366C8.70805 29.4132 8.70805 29.3898 8.68453 29.3431C8.68453 29.3197 8.66102 29.2963 8.66102 29.2729C8.66102 29.2495 8.66102 29.2028 8.6375 29.1794C8.6375 29.156 8.6375 29.1326 8.6375 29.1092V10.6346L4.6162 8.34281L1.70017 6.63566ZM9.31947 1.46745L2.40566 5.443L9.31947 9.41855L16.2333 5.443L9.31947 1.46745ZM12.9175 26.2094L16.9388 23.9176V6.63566L14.0228 8.29604L10.0015 10.5878V27.8698C10.025 27.8932 12.9175 26.2094 12.9175 26.2094ZM34.2468 6.14457L27.333 10.1201L34.2468 14.0957L41.1607 10.1201C41.1842 10.1201 34.2468 6.14457 34.2468 6.14457ZM33.5649 15.2883L29.5436 12.9965L26.6275 11.3362V19.1937L30.6488 21.4855L33.5649 23.1459C33.5649 23.1225 33.5649 15.2883 33.5649 15.2883ZM17.6208 32.9678L27.7798 27.1916L32.8594 24.3152L25.9456 20.363L17.9735 24.9232L10.7069 29.0858C10.7305 29.0624 17.6208 32.9678 17.6208 32.9678Z" fill="white" fill-opacity="0.7"/>
</svg>
