<svg width="153" height="44" viewBox="0 0 153 44" fill="none" xmlns="http://www.w3.org/2000/svg">
<g clip-path="url(#clip0_763_5475)">
<path d="M57.7582 22.253C57.7582 17.6039 56.4342 15.2187 53.7812 15.0873C52.725 15.0367 51.6941 15.2035 50.6935 15.5926C49.8951 15.8806 49.3544 16.1636 49.0714 16.4466V27.5439C50.7693 28.6102 52.2752 29.1054 53.5841 29.0246C56.3685 28.8426 57.7582 26.5838 57.7582 22.253ZM61.0277 22.445C61.0277 24.805 60.4719 26.7657 59.3601 28.3272C58.117 30.0908 56.3988 31.0004 54.1955 31.051C52.538 31.1015 50.8249 30.5861 49.0714 29.4945V39.5811L46.2263 38.5654V16.1788C46.6912 15.6078 47.2926 15.1125 48.0203 14.6982C49.7132 13.7127 51.7699 13.2023 54.1905 13.1771L54.2309 13.2175C56.4443 13.1872 58.1473 14.0968 59.345 15.9413C60.4719 17.6291 61.0277 19.797 61.0277 22.445ZM78.4165 29.065C78.4165 32.2335 78.0981 34.4266 77.4665 35.6496C76.8297 36.8674 75.6169 37.8427 73.823 38.5704C72.3676 39.1415 70.796 39.4548 69.1081 39.5053L68.6382 37.7114C70.3513 37.4789 71.559 37.2464 72.2615 37.0089C73.641 36.544 74.586 35.8264 75.1065 34.8663C75.526 34.083 75.7281 32.5923 75.7281 30.389V29.6461C73.7825 30.5305 71.746 30.9701 69.6135 30.9701C68.2137 30.9701 66.9756 30.5305 65.9144 29.6461C64.7218 28.686 64.1204 27.4631 64.1204 25.9875V14.1524L66.9655 13.1771V25.093C66.9655 26.3665 67.3748 27.3468 68.1985 28.0341C69.0222 28.7214 70.0834 29.0498 71.3872 29.0246C72.691 28.9942 74.0857 28.4939 75.5714 27.5035V13.6066H78.4165V29.065ZM89.5289 30.8943C89.1904 30.9246 88.8771 30.9347 88.5941 30.9347C86.9871 30.9347 85.7288 30.5507 84.8343 29.7826C83.9399 29.0144 83.4952 27.9532 83.4952 26.5989V15.3955H81.5446V13.6066H83.4952V8.85642L86.3352 7.84573V13.6066H89.5289V15.3955H86.3352V26.5231C86.3352 27.5894 86.6232 28.3474 87.1943 28.787C87.6845 29.1509 88.4677 29.3581 89.5289 29.4137V30.8943ZM106.736 30.6619H103.891V19.6808C103.891 18.564 103.628 17.6039 103.107 16.8004C102.506 15.8908 101.672 15.4359 100.601 15.4359C99.2972 15.4359 97.6649 16.1232 95.7093 17.4977V30.6568H92.8642V4.41447L95.7143 3.52002V15.4713C97.5335 14.1473 99.5145 13.4853 101.677 13.4853C103.183 13.4853 104.401 13.9907 105.336 15.0064C106.271 16.0171 106.741 17.2804 106.741 18.7813L106.736 30.6619ZM121.871 21.8032C121.871 20.0194 121.532 18.5438 120.855 17.3765C120.052 15.9565 118.803 15.2035 117.115 15.1277C113.998 15.3096 112.441 17.5432 112.441 21.8235C112.441 23.7892 112.765 25.4265 113.416 26.7455C114.25 28.4232 115.503 29.252 117.171 29.2216C120.304 29.1964 121.871 26.7253 121.871 21.8032ZM124.984 21.8235C124.984 24.3653 124.332 26.4827 123.033 28.1705C121.603 30.0605 119.632 31.0105 117.115 31.0105C114.619 31.0105 112.674 30.0605 111.269 28.1705C109.995 26.4827 109.364 24.3653 109.364 21.8235C109.364 19.4332 110.051 17.4219 111.425 15.7846C112.881 14.0463 114.791 13.1771 117.151 13.1771C119.511 13.1771 121.436 14.0463 122.917 15.7846C124.291 17.4219 124.979 19.4332 124.984 21.8235ZM141.281 30.6619H138.436V19.0592C138.436 17.7858 138.052 16.7953 137.289 16.0777C136.521 15.3652 135.505 15.0216 134.231 15.0468C132.882 15.0721 131.593 15.5118 130.376 16.3708V30.6619H127.531V16.0171C129.168 14.8245 130.674 14.0463 132.048 13.6824C133.347 13.3438 134.489 13.1771 135.48 13.1771C136.157 13.1771 136.788 13.2428 137.385 13.3742C138.502 13.6319 139.411 14.112 140.108 14.8144C140.892 15.5926 141.281 16.5275 141.281 17.619V30.6619Z" fill="white" fill-opacity="0.7"/>
<path d="M18.1445 4.52043C16.6791 4.52548 15.2843 4.65182 14.0563 4.86911C10.433 5.5109 9.7761 6.85005 9.7761 9.32116V12.5857H18.3366V13.6721H6.55709C4.07081 13.6721 1.88774 15.168 1.21058 18.013C0.422251 21.2725 0.391931 23.309 1.21058 26.715C1.81699 29.2518 3.27237 31.0559 5.75865 31.0559H8.69973V27.1445C8.69973 24.3197 11.1456 21.8233 14.0462 21.8233H22.5966C24.9767 21.8233 26.8768 19.8626 26.8768 17.4774V9.32116C26.8768 7.00165 24.9212 5.25823 22.5966 4.86911C21.1311 4.62655 19.605 4.51537 18.1445 4.52043ZM13.5156 7.1482C14.4 7.1482 15.1226 7.88094 15.1226 8.7855C15.1226 9.68501 14.4 10.4127 13.5156 10.4127C12.6262 10.4127 11.9086 9.68501 11.9086 8.7855C11.9086 7.88094 12.6262 7.1482 13.5156 7.1482Z" fill="white" fill-opacity="0.7"/>
<path d="M27.9481 13.6673V17.4675C27.9481 20.4136 25.4517 22.8949 22.6016 22.8949H14.0512C11.7115 22.8949 9.771 24.9011 9.771 27.2408V35.3919C9.771 37.7114 11.7873 39.0759 14.0512 39.7379C16.7599 40.5363 19.3624 40.6778 22.6016 39.7379C24.7543 39.1163 26.8818 37.858 26.8818 35.3919V32.1274H18.3365V31.0409H31.1671C33.6534 31.0409 34.5832 29.3076 35.4473 26.7001C36.3418 24.0167 36.3014 21.4395 35.4473 17.9981C34.8308 15.5219 33.6584 13.6572 31.1671 13.6572L27.9481 13.6673ZM23.1423 34.3155C24.0317 34.3155 24.7493 35.0432 24.7493 35.9427C24.7493 36.8473 24.0317 37.58 23.1423 37.58C22.258 37.58 21.5353 36.8473 21.5353 35.9427C21.5353 35.0382 22.258 34.3155 23.1423 34.3155Z" fill="white" fill-opacity="0.7"/>
<path d="M146.834 11.0699H147.335V7.94182H148.517V7.56787H145.657V7.94182H146.839L146.834 11.0699ZM148.957 11.0699H149.381V8.21471L150.306 11.0699H150.781L151.746 8.22481V11.0699H152.211V7.57292H151.595L150.544 10.5696L149.644 7.57292H148.957V11.0699Z" fill="white" fill-opacity="0.7"/>
</g>
<defs>
<clipPath id="clip0_763_5475">
<rect width="151.602" height="44" fill="white" transform="translate(0.609131)"/>
</clipPath>
</defs>
</svg>
