<svg width="248" height="44" viewBox="0 0 248 44" fill="none" xmlns="http://www.w3.org/2000/svg">
<g clip-path="url(#clip0_764_5576)">
<path d="M21.9745 1.51318L24.3429 1.64476L26.7113 2.17108L28.2903 2.82897L29.7376 3.61845L30.9219 4.5395L31.8429 5.32897L33.0271 6.77634L34.2113 8.61845L35.264 10.7237L35.1324 11.3816H32.6324L31.3166 11.7763L30.264 12.5658L29.8692 13.3553L29.7376 14.0132L29.8692 15.7237L30.3955 17.6974L31.5798 20.329L33.1587 23.2237L34.2113 25.0658L35.0008 25.9869L34.7376 26.5132L33.685 27.0395L33.2903 27.5658L33.0271 29.2763L32.6324 33.3553L31.8429 38.6184L31.3166 40.329L30.5271 41.3816L29.4745 42.1711L28.1587 42.6974L26.9745 42.9606H25.1324L23.9482 42.5658L22.8955 41.6448L22.3692 40.4606L22.1061 38.2237L21.9745 36.25L21.8429 29.0132L21.5798 27.6974L20.9219 26.9079L20.264 26.6448H18.9482L19.4745 24.6711L20.6587 21.9079L21.185 19.6711V16.25L20.6587 13.4869L20.264 12.6974L19.6061 12.0395L18.685 11.6448H16.7113L15.264 12.0395L13.5534 12.829H13.2903L13.4219 10.9869L13.9482 8.61845L14.6061 6.77634L15.3955 5.32897L16.4482 4.01318L17.764 2.82897L19.3429 2.0395L20.7903 1.64476L21.9745 1.51318Z" fill="white" fill-opacity="0.7"/>
<path d="M8.42194 1.64478H11.3167L14.2114 2.17109L16.4483 2.82899V3.22372L15.3956 4.40793L14.343 6.25004L13.6851 7.82899L13.1588 9.80267L12.8956 11.25L12.764 18.3553L12.6325 19.9342V21.5132L13.0272 23.0921L13.8167 24.4079L14.8693 25.5921L14.6061 26.1185L13.6851 27.1711L12.5009 28.4869L11.3167 29.9342L10.264 30.8553L9.86931 30.9869H8.94825L7.89562 30.329L6.97457 29.2764L5.92194 27.4342L5.00089 25.4606L3.42194 20.7237L2.36931 16.6448L1.71141 13.2237L1.57983 12.1711V8.61846L2.10615 6.38162L3.0272 4.53951L4.21141 3.22372L5.5272 2.43425L6.84299 1.90793L8.42194 1.64478Z" fill="white" fill-opacity="0.7"/>
<path d="M209.869 13.6184H213.948L216.448 14.0131L218.685 14.671L220.79 15.7237L222.238 16.7763L223.554 18.0921L224.738 19.9342L225.396 21.5131L225.922 23.6184L226.054 26.1184L225.79 28.3552L225.133 30.4605L224.343 32.0395L223.159 33.4868L221.843 34.671L221.712 34.9342L222.238 35.1974L223.685 36.1184L225.527 37.4342L225.659 37.8289L224.606 38.75L223.948 39.2763L222.501 38.3552L220.001 36.6447L219.475 36.5131L217.106 37.3026L214.606 37.6974H209.343L206.975 37.3026L204.606 36.5131L202.369 35.3289L201.054 34.2763L199.738 32.9605L198.554 31.1184L197.896 29.4079L197.501 27.5658V23.6184L198.027 21.3816L199.08 19.2763L200.133 17.8289L201.054 16.9079L202.896 15.5921L205.133 14.5395L207.764 13.8816L209.869 13.6184ZM210.001 15.4605L207.764 15.8553L205.527 16.6447L203.685 17.8289L202.501 18.8816L201.317 20.5921L200.659 22.171L200.264 23.8816V27.171L200.79 29.4079L201.712 31.25L202.896 32.6974L204.212 33.75L206.054 34.8026L207.896 35.4605L209.343 35.7237L210.79 35.8552H212.896L214.869 35.5921L216.712 35.0658L218.29 34.4079L219.738 33.4868L221.185 32.0395L222.238 30.3289L222.764 28.8816L223.027 27.6974L223.159 26.5131V24.5395L222.764 22.4342L221.843 20.3289L220.922 19.1447L220.264 18.3552L218.685 17.171L216.843 16.25L214.343 15.5921L213.422 15.4605H210.001Z" fill="white" fill-opacity="0.7"/>
<path d="M182.896 13.6184H187.106L189.606 14.0131L191.843 14.671L193.159 15.3289L194.475 16.5131L195.264 17.8289L195.659 19.0131L195.79 20.4605L195.659 20.7237H193.027L192.632 20.3289L192.369 18.75L191.58 17.4342L190.527 16.6447L189.343 16.1184L187.501 15.7237L186.58 15.5921H183.027L180.79 15.9868L179.343 16.5131L178.29 17.4342L177.764 18.4868L177.632 18.8816V20.4605L178.159 21.7763L179.211 22.6974L180.527 23.2237L183.553 23.8816L190.132 25.0658L192.896 25.8553L194.475 26.6447L195.659 27.6974L196.317 29.0131L196.58 30.5921L196.448 32.4342L195.922 34.0131L195.001 35.1974L193.817 36.1184L192.501 36.7763L190.79 37.3026L189.343 37.5658L187.896 37.6974H183.159L180.527 37.3026L178.29 36.6447L176.711 35.8553L175.396 34.671L174.606 33.4868L174.08 32.171L173.817 30.7237V29.671L174.211 29.5395H176.58L176.843 29.8026L177.106 31.6447L177.764 32.9605L178.422 33.75L179.869 34.671L181.711 35.3289L183.422 35.5921H188.159L190.264 35.1974L191.58 34.671L192.632 33.75L193.159 32.8289L193.29 32.3026V29.9342L192.764 28.75L191.711 27.9605L189.738 27.3026L183.948 26.25L179.869 25.4605L177.764 24.8026L176.448 24.0131L175.396 22.8289L174.738 21.5131L174.475 19.5395L174.738 18.0921L175.527 16.5131L176.448 15.4605L177.764 14.671L180.264 14.0131L182.896 13.6184Z" fill="white" fill-opacity="0.7"/>
<path d="M128.817 21.6448H132.369L134.738 22.1711L135.79 22.6974L137.106 23.75L137.764 24.4079L137.896 22.3027L138.159 22.0395H140.132L140.264 22.1711L140.396 27.1711V37.9606L140.001 39.5395L139.211 40.8553L138.159 41.9079L136.317 42.829L134.08 43.3553L133.159 43.4869H128.685L125.922 42.9606L124.738 42.4342L123.948 41.9079L123.027 40.8553L122.501 39.8027L122.369 38.4869H124.343L125.001 39.1448L125.659 40.4606V40.7237L126.185 40.9869L127.501 41.5132L130.001 41.9079H132.238L134.475 41.5132L135.79 40.9869L137.106 39.8027L137.632 38.75L137.896 37.3027L138.027 34.2764L136.58 35.4606L135.001 36.25L132.896 36.7764L131.975 36.9079H128.685L126.317 36.3816L124.475 35.5921L123.159 34.5395L122.238 33.2237L121.58 31.5132L121.448 30.8553V27.6974L121.975 25.8553L122.896 24.4079L123.817 23.4869L125.132 22.6974L126.843 22.0395L128.817 21.6448ZM129.08 23.3553L127.632 23.75L126.054 24.5395L125.001 25.4606L124.343 26.5132L123.948 27.6974L123.817 28.4869V30.1974L124.211 31.9079L125.132 33.3553L126.317 34.2764L127.764 34.9342L128.948 35.1974L130.132 35.329H131.711L133.554 35.0658L135.132 34.4079L136.185 33.6185L136.975 32.6974L137.632 31.3816L137.896 30.329V27.829L137.369 26.3816L136.843 25.5921L136.317 24.9342L135.132 24.1448L133.817 23.6185L132.764 23.3553H129.08Z" fill="white" fill-opacity="0.7"/>
<path d="M51.9746 14.1448H66.843L68.422 14.4079L70.0009 15.0658L71.3167 16.1185L72.2377 17.4342L72.8956 19.1448L73.0272 19.9342V21.3816L72.6325 22.9606L71.843 24.4079L70.6588 25.7237L68.8167 26.7764L66.7114 27.3027L65.2641 27.4342H54.6062V36.9079L54.343 37.1711H51.9746L51.7114 36.6448V14.5395L51.9746 14.1448ZM54.8693 15.9869L54.6062 16.25V25.329L54.7377 25.4606H66.0535L67.7641 24.9342L68.9483 24.1448L69.7377 22.9606L70.1325 21.9079L70.2641 20.5921L69.8693 19.0132L69.2114 17.829L68.0272 16.7764L66.9746 16.25L65.5272 15.9869H54.8693Z" fill="white" fill-opacity="0.7"/>
<path d="M30.1325 0.986816H32.8957L35.1325 1.38155L37.2378 2.17103L38.5536 2.9605L39.8694 4.01313L40.7904 4.93419L41.4483 5.98682L41.7115 7.17103V8.48682L41.3167 11.6447L40.5273 14.9342L39.6062 17.6973L38.1588 20.9868L36.8431 23.4868L35.6588 25.4605L35.1325 25.3289L34.8694 24.671L35.6588 22.5658L35.7904 21.7763V20.1973L35.5273 17.5658V15.3289L35.7904 13.3552V11.1184L35.2641 9.40787L34.2115 7.56576L33.0273 5.98682L31.8431 4.67103L30.6588 3.6184L28.6852 2.43418L27.2378 1.77629V1.51313L29.0799 1.1184L30.1325 0.986816Z" fill="white" fill-opacity="0.7"/>
<path d="M161.58 21.5132H163.159L165.264 21.7763L167.369 22.4342L168.817 23.2237L169.738 24.0132L170.79 25.4606L171.448 27.0395L171.712 28.0921V29.9342L171.58 30.0658H155.133L155.527 32.1711L156.317 33.6184L157.238 34.5395L159.08 35.4606L160.527 35.8553L161.712 35.9869H162.896L164.606 35.7237L166.185 35.1974L167.238 34.5395L168.29 33.3553L168.948 32.1711H171.448L171.054 33.4869L170.264 34.6711L169.606 35.329L168.685 36.1184L166.712 37.0395L164.606 37.5658H160.264L158.422 37.1711L156.843 36.5132L155.396 35.5921L154.343 34.5395L153.422 33.0921L152.896 31.7763L152.633 30.7237V28.2237L153.027 26.6448L153.948 24.9342L155.133 23.6184L156.58 22.6974L158.159 22.0395L160.133 21.6448L161.58 21.5132ZM161.185 23.0921L159.606 23.3553L158.027 24.0132L156.712 25.0658L155.79 26.5132L155.264 27.9606L155.396 28.6184H169.212L169.343 28.0921L168.948 26.7763L168.159 25.5921L167.106 24.5395L165.527 23.6184L163.422 23.0921H161.185Z" fill="white" fill-opacity="0.7"/>
<path d="M29.3431 -0.0656738H33.5536L35.7905 0.329063L37.8957 1.11854L39.7378 2.30275L41.0536 3.48696L42.1063 4.67117L42.7642 6.11854L42.8957 6.77643V9.93433L42.501 12.5659L41.5799 15.8554L40.2642 19.5396L38.2905 23.6185L36.7115 26.2501H39.3431L40.9221 25.987H42.2378L42.8957 26.3817L43.1589 27.0396L43.0273 27.8291L42.501 28.6185L41.3168 29.6712L39.4747 30.5922L38.0273 30.987L37.1063 31.1185H34.0799L33.9484 31.3817L33.5536 36.1185L33.0273 38.7501L32.501 40.3291L31.7115 41.6449L30.6589 42.6975L28.8168 43.6185L27.3694 44.0133H24.7378L23.5536 43.487L22.8957 42.9606L22.1063 41.6449L21.3168 39.2764L21.0536 37.3027L20.9221 33.8817V31.7764L19.3431 32.5659L17.7642 32.9606H15.9221L14.2115 32.5659L13.1589 31.908L12.6326 31.2501L12.501 30.5922L11.3168 31.7764L10.1326 32.3027H8.81679L7.76416 31.908L6.57995 30.8554L5.39574 29.1449L4.34311 27.0396L3.02732 23.6185L1.97469 20.1975L1.05363 16.2501L0.395739 12.4343L0.26416 10.987V9.80275L0.527318 7.69748L1.05363 5.85538L2.10627 3.75012L3.1589 2.56591L4.47469 1.64485L5.92205 0.986958L7.63258 0.592221L8.81679 0.460642H10.9221L13.6852 0.855379L16.5799 1.64485H17.3694L19.0799 0.855379L20.5273 0.460642L21.4484 0.329063H23.4221L25.6589 0.460642L28.0273 0.197484L29.3431 -0.0656738ZM30.2642 0.592221L27.6326 0.986958L26.4484 1.25012H25.001L22.8957 0.986958L20.9221 1.11854L19.3431 1.51327L17.501 2.43433L16.4484 2.30275L13.6852 1.51327L12.1063 1.25012L9.60627 1.11854L7.10627 1.38169L5.52732 1.90801L4.21153 2.69748L3.1589 3.61854L2.23784 4.93433L1.44837 6.77643L1.05363 9.27643V11.7764L1.44837 14.6712L2.501 19.408L3.55363 23.0922L4.86942 26.5133L5.92205 28.6185L7.10627 30.3291L8.1589 31.2501L9.07995 31.6449L10.2642 31.5133L11.1852 30.987L12.1063 30.0659L13.2905 28.6185L14.8694 26.908L15.3957 26.2501L16.0536 26.3817L17.1063 26.7764L18.4221 26.908L18.2905 27.6975L17.6326 28.487L16.0536 29.2764L14.2115 29.6712L13.4221 30.1975L13.2905 30.987L14.2115 31.7764L15.5273 32.1712L17.3694 32.3027L19.2115 31.908L20.5273 31.1185L21.4484 30.3291V36.6449L21.8431 40.0659L22.3694 41.3817L23.5536 42.6975L24.8694 43.3554L25.2642 43.487H27.3694L29.3431 42.9606L30.7905 42.0396L31.7115 40.987L32.3694 39.408L32.8957 35.987L33.5536 30.7238V30.0659L34.3431 30.3291H37.3694L39.4747 29.8027L40.9221 29.0133L42.2378 27.8291L42.501 27.4343L42.3694 26.908L42.2378 26.7764H40.7905L38.9484 27.0396H37.2378L35.9221 26.6449L36.5799 25.3291L37.7642 23.3554L39.3431 20.1975L40.5273 17.1712L41.5799 13.8817L42.1063 11.3817L42.3694 8.75012L42.2378 6.51327L41.7115 5.19748L40.1326 3.48696L38.6852 2.43433L36.5799 1.38169L34.8694 0.855379L33.1589 0.592221H30.2642ZM15.5273 26.908L14.3431 28.2238L13.8168 29.0133L15.001 28.8817L16.4484 28.487L17.2378 27.9606L17.501 27.4343L15.7905 26.908H15.5273Z" fill="white" fill-opacity="0.7"/>
<path d="M98.5536 21.6448H103.422L105.527 22.0395L107.106 22.6974L108.027 23.3553L108.817 24.5395L109.212 25.7237V26.5132L109.08 26.6448H106.843L106.448 25.4606L105.922 24.5395L105.001 23.8816L103.027 23.3553L101.843 23.2237H100.264L98.422 23.4869L97.1063 23.8816L96.3168 24.4079L95.7905 25.1974L95.6589 26.25L96.0536 27.1711L97.1063 27.829L98.9484 28.2237L103.29 28.75L106.054 29.1448L107.633 29.6711L108.948 30.4606L109.738 31.5132L110.001 32.6974L109.869 34.1448L109.212 35.4606L108.027 36.5132L106.448 37.1711L104.475 37.5658L103.027 37.6974H99.6063L97.501 37.4342L95.6589 36.9079L94.6063 36.3816L93.5536 35.4606L92.7641 33.8816L92.6326 32.5658L92.7641 32.4342H95.001L95.2641 32.6974L95.5273 33.8816L96.0536 34.6711L96.9747 35.329L98.8168 35.8553L99.8694 35.9869H103.29L104.869 35.7237L106.448 35.0658L107.106 34.2764L107.238 33.8816V32.6974L106.843 31.9079L106.054 31.25L105.396 30.9869L97.8957 29.9342L95.5273 29.4079L94.4747 28.8816L93.5536 27.829L93.2905 27.1711L93.1589 25.7237L93.5536 24.1448L94.3431 23.0921L95.3957 22.4342L97.1063 21.9079L98.5536 21.6448Z" fill="white" fill-opacity="0.7"/>
<path d="M80.922 21.5132H83.0273L84.8694 21.7763L86.9746 22.4342L88.6852 23.3553L89.7378 24.2763L90.6588 25.5921L91.3167 27.3027L91.4483 28.0921V31.3816L90.922 33.0921L90.2641 34.2763L89.0799 35.5921L87.6325 36.5132L85.922 37.1711L83.9483 37.5658H79.6062L77.6325 37.1711L76.0536 36.5132L74.6062 35.4606L73.5536 34.2763L72.6325 32.4342L72.2378 30.8553V28.4869L72.7641 26.3816L73.5536 24.9342L74.7378 23.6184L76.1852 22.6974L77.7641 22.0395L79.4746 21.6448L80.922 21.5132ZM80.5273 23.2237L78.422 23.75L77.2378 24.4079L75.922 25.5921L75.2641 26.6448L74.8694 27.829L74.7378 28.4869V30.4606L75.1325 32.1711L75.7904 33.4869L76.5799 34.4079L78.0273 35.329L79.4746 35.8553L80.1325 35.9869H83.5536L85.5273 35.4606L86.5799 34.9342L87.8957 33.75L88.5536 32.6974L88.9483 31.5132L89.0799 30.7237V28.2237L88.5536 26.5132L87.7641 25.1974L86.4483 24.1448L84.7378 23.4869L83.422 23.2237H80.5273Z" fill="white" fill-opacity="0.7"/>
<path d="M228.027 14.1448H230.396L230.659 14.5395V35.0658H247.633V37.1711H228.159L227.764 36.7764V14.5395L228.027 14.1448Z" fill="white" fill-opacity="0.7"/>
<path d="M16.8429 12.0396H18.5534L19.6061 12.5659L20.1324 13.2238L20.6587 15.5922L20.7903 16.6448V19.5396L20.264 21.6448L19.0797 24.6711L18.5534 26.1185L17.6324 26.2501L16.3166 25.8553L15.1324 25.0659L14.0797 24.0132L13.4218 22.6974L13.1587 21.7764V19.408L13.2903 18.0922V13.7501L13.8166 13.2238L15.7903 12.3027L16.8429 12.0396ZM17.6324 12.9606L16.9745 13.2238L16.8429 13.7501L17.2376 14.408L17.764 14.6711H18.685L19.4745 14.0132L19.2113 13.3553L18.0271 12.9606H17.6324Z" fill="white" fill-opacity="0.7"/>
<path d="M113.685 17.0396H115.79L115.922 17.1711L116.053 21.908L119.869 22.0396L120.001 22.1711V23.3553L119.738 23.6185L116.053 23.7501V34.6711L116.711 35.329L117.632 35.5922H119.869L120.001 35.7238V36.908L119.738 37.1711L119.211 37.3027H116.58L115.132 36.908L114.08 36.2501L113.685 35.5922L113.553 35.0659L113.422 23.8817L113.29 23.7501L110.527 23.6185L110.396 22.4343L110.659 22.0396L113.29 21.908L113.422 21.7764L113.553 17.1711L113.685 17.0396Z" fill="white" fill-opacity="0.7"/>
<path d="M149.343 21.6448H152.896L153.027 21.7764V23.3553L152.632 23.6185H149.606L147.896 24.1448L146.711 25.0658L145.922 26.3816L145.527 27.6974L145.396 28.75L145.264 37.0395H143.027L142.896 36.9079V22.0395L143.553 21.9079H145.001L145.264 22.0395L145.396 24.1448L146.185 23.0921L146.974 22.4342L148.553 21.7764L149.343 21.6448Z" fill="white" fill-opacity="0.7"/>
<path d="M33.0273 11.7764L35.2642 11.9079L35.3958 12.0395L35.2642 13.8816L35.1326 15.0658V18.0922L35.3958 21.1185L35.1326 22.9606L34.4747 24.2764L34.08 23.7501L32.501 20.7237L31.4484 18.7501L30.6589 16.5132L30.3958 15.4606V13.6185L30.7905 12.829L31.58 12.1711L32.2379 11.9079L33.0273 11.7764ZM32.8958 12.5658L31.7115 12.9606L31.4484 13.2237L31.58 13.8816L32.2379 14.2764H33.1589L33.9484 13.6185V12.9606L33.6852 12.6974L32.8958 12.5658Z" fill="white" fill-opacity="0.7"/>
<path d="M19.6061 27.0396L20.5272 27.1711L21.1851 27.829L21.3167 28.2238V29.1448L20.5272 30.1974L19.6061 30.9869L18.2903 31.5132L17.3693 31.6448H16.1851L14.8693 31.3817L13.8167 30.8553L13.9482 30.329L15.9219 29.8027L17.3693 29.2764L18.0272 28.7501L18.9482 27.5659L19.6061 27.0396Z" fill="white" fill-opacity="0.7"/>
<path d="M34.7377 26.908H35.6587L36.4482 27.3027L36.9745 27.4343H38.9482L40.7903 27.1711H41.8429L41.4482 27.829L40.3956 28.6185L39.0798 29.2764L37.6324 29.6711L36.5798 29.8027H35.264L34.0798 29.6711L33.685 29.408L33.5535 28.3553L33.9482 27.4343L34.7377 26.908Z" fill="white" fill-opacity="0.7"/>
</g>
<defs>
<clipPath id="clip0_764_5576">
<rect width="247.368" height="44" fill="white" transform="translate(0.211426)"/>
</clipPath>
</defs>
</svg>
