<svg width="18" height="18" viewBox="0 0 18 18" fill="none" xmlns="http://www.w3.org/2000/svg">
<path d="M16.1429 0.666748C16.7754 0.666748 17.3334 1.22478 17.3334 1.89443L17.3334 16.1429C17.3334 16.8126 16.7754 17.3334 16.1429 17.3334L1.82002 17.3334C1.18758 17.3334 0.666748 16.8126 0.666748 16.1429L0.666748 1.89443C0.666748 1.22478 1.18758 0.666748 1.82002 0.666748L16.1429 0.666748ZM5.68907 14.9525L5.68907 7.02836L3.23371 7.02836L3.23371 14.9525L5.68907 14.9525ZM4.46139 5.91228C5.24264 5.91228 5.87508 5.27984 5.87508 4.49859C5.87508 3.71734 5.24264 3.0477 4.46139 3.0477C3.64294 3.0477 3.0105 3.71734 3.0105 4.49859C3.0105 5.27984 3.64294 5.91228 4.46139 5.91228ZM14.9525 14.9525L14.9525 10.5998C14.9525 8.47925 14.4688 6.80514 11.9763 6.80514C10.7858 6.80514 9.96734 7.47478 9.63252 8.10722L9.59532 8.10722L9.59532 7.02836L7.25157 7.02836L7.25157 14.9525L9.70693 14.9525L9.70693 11.0462C9.70693 10.0045 9.89294 9.00008 11.195 9.00008C12.4599 9.00008 12.4599 10.1906 12.4599 11.0834L12.4599 14.9525L14.9525 14.9525Z" fill="#E9F0FF"/>
</svg>
