<svg width="1440" height="901" viewBox="0 0 1440 901" fill="none" xmlns="http://www.w3.org/2000/svg">
<g opacity="0.8">
<path d="M1257.26 450.5C1257.26 746.943 1016.94 987.258 720.5 987.258C424.057 987.258 183.742 746.943 183.742 450.5C183.742 154.057 424.057 -86.2576 720.5 -86.2576C1016.94 -86.2576 1257.26 154.057 1257.26 450.5Z" fill="white" fill-opacity="0.01"/>
<path d="M1367 450.5C1367 807.553 1077.55 1097 720.5 1097C363.447 1097 73.999 807.553 73.999 450.5C73.999 93.4474 363.447 -196.001 720.5 -196.001C1077.55 -196.001 1367 93.4474 1367 450.5Z" fill="white" fill-opacity="0.01"/>
<path d="M1488 450.5C1488 874.379 1144.38 1218 720.5 1218C296.621 1218 -47 874.379 -47 450.5C-47 26.6215 296.621 -317 720.5 -317C1144.38 -317 1488 26.6215 1488 450.5Z" fill="white" fill-opacity="0.01"/>
<g style="mix-blend-mode:lighten" filter="url(#filter0_f_775_5955)">
<path d="M1143.29 449.797C1143.29 683.687 953.687 873.293 719.797 873.293C485.906 873.293 296.3 683.687 296.3 449.797C296.3 215.906 485.906 26.2997 719.797 26.2997C953.687 26.2997 1143.29 215.906 1143.29 449.797Z" fill="url(#paint0_radial_775_5955)" fill-opacity="0.7"/>
</g>
<path d="M1162.99 449.797C1162.99 694.566 964.566 892.991 719.797 892.991C475.027 892.991 276.603 694.566 276.603 449.797C276.603 205.027 475.027 6.6022 719.797 6.6022C964.566 6.6022 1162.99 205.027 1162.99 449.797Z" fill="white" fill-opacity="0.01"/>
<path d="M1039.18 449.797C1039.18 626.186 896.186 769.178 719.796 769.178C543.407 769.178 400.415 626.186 400.415 449.797C400.415 273.407 543.407 130.415 719.796 130.415C896.186 130.415 1039.18 273.407 1039.18 449.797Z" fill="white" fill-opacity="0.01"/>
<path opacity="0.35" d="M817.384 181.54L819.655 188.964L811.894 188.798L819.457 190.544L815.434 197.182L820.728 191.505L824.465 198.309L822.195 190.885L829.956 191.051L822.392 189.305L826.415 182.666L821.122 188.344L817.384 181.54Z" fill="white"/>
<path opacity="0.05" d="M860.204 358.956L847.071 380.729L831.823 360.382L844.112 382.641L818.867 385.673L844.289 386.161L834.292 409.54L847.425 387.767L862.673 408.114L850.384 385.855L875.629 382.823L850.207 382.335L860.204 358.956Z" fill="white"/>
<path opacity="0.2" d="M369.522 352.433L363.044 361.76L356.211 352.69L361.049 362.964L349.778 364.347L361.095 365.293L356.657 375.746L363.134 366.419L369.968 375.488L365.129 365.215L376.401 363.832L365.084 362.886L369.522 352.433Z" fill="white"/>
<path opacity="0.05" d="M1123.26 404.513L1105.08 414.223L1102.91 393.731L1102.23 414.328L1083.4 405.966L1100.89 416.851L1084.23 428.982L1102.41 419.271L1104.59 439.763L1105.26 419.167L1124.1 427.528L1106.6 416.643L1123.26 404.513Z" fill="white"/>
</g>
<defs>
<filter id="filter0_f_775_5955" x="-112.791" y="-382.791" width="1665.18" height="1665.18" filterUnits="userSpaceOnUse" color-interpolation-filters="sRGB">
<feFlood flood-opacity="0" result="BackgroundImageFix"/>
<feBlend mode="normal" in="SourceGraphic" in2="BackgroundImageFix" result="shape"/>
<feGaussianBlur stdDeviation="204.545" result="effect1_foregroundBlur_775_5955"/>
</filter>
<radialGradient id="paint0_radial_775_5955" cx="0" cy="0" r="1" gradientUnits="userSpaceOnUse" gradientTransform="translate(720 450) rotate(-84.0278) scale(610.312 369.86)">
<stop stop-color="white" stop-opacity="0.93"/>
<stop offset="0.250637" stop-color="#D0C9FA" stop-opacity="0.770383"/>
<stop offset="0.369792" stop-color="#654DFD" stop-opacity="0.770383"/>
<stop offset="0.493846" stop-color="#2400FF" stop-opacity="0.770383"/>
<stop offset="0.71875" stop-color="#0C0054" stop-opacity="0.877197"/>
<stop offset="0.885417" stop-color="#02000F"/>
</radialGradient>
</defs>
</svg>
