<svg width="1248" height="1283" viewBox="0 0 1248 1283" fill="none" xmlns="http://www.w3.org/2000/svg">
<g opacity="0.9">
<path d="M952.258 450.5C952.258 746.943 711.943 987.258 415.5 987.258C119.057 987.258 -121.258 746.943 -121.258 450.5C-121.258 154.057 119.057 -86.2576 415.5 -86.2576C711.943 -86.2576 952.258 154.057 952.258 450.5Z" fill="white" fill-opacity="0.01"/>
<path d="M1062 450.5C1062 807.553 772.552 1097 415.5 1097C58.4473 1097 -231.001 807.553 -231.001 450.5C-231.001 93.4474 58.4473 -196.001 415.5 -196.001C772.552 -196.001 1062 93.4474 1062 450.5Z" fill="white" fill-opacity="0.01"/>
<path d="M1183 450.5C1183 874.379 839.379 1218 415.5 1218C-8.37854 1218 -352 874.379 -352 450.5C-352 26.6215 -8.37854 -317 415.5 -317C839.379 -317 1183 26.6215 1183 450.5Z" fill="white" fill-opacity="0.01"/>
<g style="mix-blend-mode:lighten" filter="url(#filter0_f_388_2861)">
<path d="M838.293 449.797C838.293 683.687 648.687 873.293 414.797 873.293C180.906 873.293 -8.7002 683.687 -8.7002 449.797C-8.7002 215.906 180.906 26.2997 414.797 26.2997C648.687 26.2997 838.293 215.906 838.293 449.797Z" fill="url(#paint0_radial_388_2861)" fill-opacity="0.7"/>
</g>
<path d="M734.178 449.797C734.178 626.186 591.186 769.178 414.797 769.178C238.407 769.178 95.4153 626.186 95.4153 449.797C95.4153 273.407 238.407 130.415 414.797 130.415C591.186 130.415 734.178 273.407 734.178 449.797Z" fill="white" fill-opacity="0.01"/>
<path d="M857.991 449.797C857.991 694.566 659.566 892.991 414.797 892.991C170.027 892.991 -28.3977 694.566 -28.3977 449.797C-28.3977 205.027 170.027 6.6022 414.797 6.6022C659.566 6.6022 857.991 205.027 857.991 449.797Z" fill="white" fill-opacity="0.01"/>
<g filter="url(#filter1_i_388_2861)">
<path d="M239.66 434.5C239.66 531.978 318.682 611 416.16 611C513.638 611 592.66 531.978 592.66 434.5C592.66 337.022 513.638 258 416.16 258C318.682 258 239.66 337.022 239.66 434.5Z" fill="#D9E5FF"/>
</g>
<g filter="url(#filter2_i_388_2861)">
<path d="M486.548 437.701C504.51 455.663 533.631 455.663 551.593 437.701C569.554 419.74 569.554 390.618 551.593 372.657C533.631 354.695 504.51 354.695 486.548 372.657C468.587 390.618 468.587 419.74 486.548 437.701Z" fill="#CCD8F2"/>
</g>
<g filter="url(#filter3_i_388_2861)">
<path d="M430.773 327.529C443.505 329.035 455.047 319.935 456.553 307.203C458.058 294.471 448.958 282.93 436.226 281.424C423.495 279.918 411.953 289.018 410.447 301.75C408.941 314.481 418.042 326.023 430.773 327.529Z" fill="#CCD8F2"/>
</g>
<g filter="url(#filter4_i_388_2861)">
<path d="M402.108 562.437C419.426 564.485 435.125 552.107 437.173 534.79C439.221 517.472 426.843 501.773 409.526 499.725C392.208 497.677 376.509 510.055 374.461 527.372C372.412 544.69 384.791 560.389 402.108 562.437Z" fill="#CCD8F2"/>
</g>
<g filter="url(#filter5_i_388_2861)">
<path d="M357.525 509.119C367.536 510.303 376.612 503.147 377.796 493.135C378.98 483.124 371.824 474.048 361.813 472.864C351.801 471.68 342.725 478.836 341.541 488.847C340.357 498.859 347.513 507.935 357.525 509.119Z" fill="#CCD8F2"/>
</g>
<g filter="url(#filter6_i_388_2861)">
<path d="M320.475 358.597C331.114 359.855 340.759 352.251 342.017 341.612C343.275 330.973 335.671 321.328 325.032 320.07C314.393 318.812 304.748 326.416 303.49 337.055C302.232 347.694 309.836 357.338 320.475 358.597Z" fill="#CCD8F2"/>
</g>
<g filter="url(#filter7_i_388_2861)">
<path d="M268.238 419.085C273.962 419.762 279.151 415.671 279.828 409.946C280.505 404.222 276.414 399.033 270.69 398.356C264.966 397.679 259.777 401.771 259.1 407.495C258.423 413.219 262.514 418.408 268.238 419.085Z" fill="#CCD8F2"/>
</g>
<g filter="url(#filter8_i_388_2861)">
<path d="M397.02 296.052C402.744 296.729 407.933 292.638 408.61 286.914C409.287 281.19 405.196 276.001 399.472 275.324C393.747 274.647 388.558 278.738 387.881 284.462C387.204 290.186 391.296 295.375 397.02 296.052Z" fill="#CCD8F2"/>
</g>
<g filter="url(#filter9_i_388_2861)">
<path d="M574.095 445.531C579.819 446.208 585.008 442.117 585.685 436.393C586.362 430.669 582.271 425.479 576.547 424.802C570.822 424.125 565.633 428.217 564.956 433.941C564.279 439.665 568.371 444.854 574.095 445.531Z" fill="#CCD8F2"/>
</g>
<g filter="url(#filter10_i_388_2861)">
<path d="M467.72 558.886C477.816 560.08 486.968 552.864 488.162 542.768C489.357 532.672 482.14 523.519 472.044 522.325C461.948 521.131 452.796 528.347 451.602 538.443C450.407 548.539 457.624 557.692 467.72 558.886Z" fill="#CCD8F2"/>
</g>
<g filter="url(#filter11_i_388_2861)">
<path d="M340.27 581.91C346.176 582.608 351.531 578.387 352.229 572.481C352.928 566.575 348.706 561.221 342.8 560.522C336.894 559.824 331.54 564.045 330.841 569.951C330.143 575.857 334.364 581.211 340.27 581.91Z" fill="#CCD8F2"/>
</g>
<g filter="url(#filter12_i_388_2861)">
<path d="M359.917 529.348C363.211 529.738 366.197 527.383 366.587 524.089C366.976 520.795 364.622 517.808 361.327 517.419C358.033 517.029 355.047 519.384 354.657 522.678C354.268 525.972 356.622 528.959 359.917 529.348Z" fill="#CCD8F2"/>
</g>
<g filter="url(#filter13_i_388_2861)">
<path d="M512.845 354.573C516.139 354.963 519.125 352.608 519.515 349.314C519.905 346.02 517.55 343.033 514.256 342.644C510.961 342.254 507.975 344.609 507.586 347.903C507.196 351.197 509.551 354.183 512.845 354.573Z" fill="#CCD8F2"/>
</g>
<path opacity="0.5" d="M248.964 316.826L247.602 323.312L241.886 319.959L246.822 324.381L241.06 327.655L247.358 325.591L247.312 332.218L248.674 325.733L254.39 329.086L249.454 324.664L255.216 321.39L248.918 323.453L248.964 316.826Z" fill="white"/>
<path d="M344.338 433.701C338.424 472.203 325.889 509.679 341.797 547.462C351.894 570.084 366.799 588.006 391.323 591.771C391.585 603.362 379.346 630.022 390.058 639.822C403.118 652.028 408.873 610.104 410.764 602.244C411.072 609.089 405.818 638.852 416.177 637.734C424.542 636.308 430.205 612.716 430 605.21C429.18 610.515 423.63 642.286 436.587 637.483C446.786 632.931 446.832 601.685 444.952 591.885C491.822 582.793 498.648 511.812 493.646 473.675C491.298 453.608 483.287 421.803 467.014 408.421C450.08 394.948 406.821 384.886 386.07 391.891C365.318 398.884 354.754 419.008 343.951 436.371" fill="#A1BFFF"/>
<path d="M344.338 433.701C338.424 472.203 325.889 509.679 341.797 547.462C351.894 570.084 366.799 588.006 391.323 591.771C391.585 603.362 379.346 630.022 390.058 639.822C403.118 652.028 408.873 610.104 410.764 602.244C411.072 609.089 405.818 638.852 416.177 637.734C424.542 636.308 430.205 612.716 430 605.21C429.18 610.515 423.63 642.286 436.587 637.483C446.786 632.931 446.832 601.685 444.952 591.885C491.822 582.793 498.648 511.812 493.646 473.675C491.298 453.608 483.287 421.803 467.014 408.421C450.08 394.948 406.821 384.886 386.07 391.891C365.318 398.884 354.754 419.008 343.951 436.371" fill="#6078DF" fill-opacity="0.5"/>
<path d="M486.66 407.132C501.178 427.484 507.811 463.841 506.728 488.585C505.919 499.788 503.913 509.896 499.56 520.551C498.204 523.517 494.33 536.955 489.84 536.716C483.515 536.647 472.666 510.067 471.139 505.298C460.94 477.451 457.601 446.136 462.456 417.445C464.495 404.166 477.281 391.64 486.66 407.12" fill="#6078DF"/>
<path d="M333.683 427.986C325.091 451.578 322.504 474.28 326.857 498.955C329.923 514.379 337.706 537.32 351.848 515.942C360.657 502.8 364.053 486.566 366.435 471.074C367.928 461.331 371.939 447.003 367.552 437.272C363.164 427.529 341.638 417.433 333.683 427.986Z" fill="#6078DF"/>
<path d="M383.712 475.055C388.304 476.436 393.375 487.365 389.307 489.27C385.774 490.924 384.304 482.95 383.666 479.516C382.629 482.322 377.193 489.258 376.259 483.155C375.723 479.436 380.396 475.42 383.723 475.055" fill="#E9F0FF"/>
<path d="M439.654 493.411C434.856 493.354 426.742 502.241 430.059 505.287C432.942 507.922 436.725 500.758 438.366 497.678C438.514 500.666 441.625 508.914 444.337 503.382C445.967 500.005 442.708 494.768 439.654 493.422" fill="#E9F0FF"/>
<path d="M397.683 479.333C403.187 480.52 404.418 492.088 399.119 489.601C396.657 488.22 396.122 480.771 397.683 479.333Z" fill="#E9F0FF"/>
<path d="M421.626 480.999C426.275 484.17 423.062 495.362 419.084 491.049C417.329 488.836 419.643 481.74 421.626 480.999Z" fill="#E9F0FF"/>
<path d="M421.637 514.071C426.287 517.242 423.073 528.434 419.096 524.121C417.341 521.908 419.654 514.812 421.637 514.071Z" fill="#E9F0FF"/>
<path d="M409.922 500.427C413.432 504.842 407.039 514.573 404.521 509.268C403.495 506.633 407.803 500.541 409.922 500.427Z" fill="#E9F0FF"/>
<path d="M447.186 474.645C452.383 476.812 451.494 488.414 446.731 485.003C444.554 483.189 445.397 475.774 447.186 474.645Z" fill="#E9F0FF"/>
<path d="M386.401 497.677C391.598 499.845 390.709 511.447 385.945 508.036C383.769 506.222 384.612 498.807 386.401 497.677Z" fill="#E9F0FF"/>
<path d="M477.746 346.364L500.463 331.184L416.16 346.364H477.746Z" fill="#A1BFFF"/>
<path d="M416.16 346.364L354.542 331.722L332.494 334.16L354.542 346.364H416.16Z" fill="#A1BFFF"/>
<path fill-rule="evenodd" clip-rule="evenodd" d="M477.746 346.364H354.542L354.574 346.397C331.488 364.619 316.66 392.83 316.66 424.556C316.66 438.253 320.324 445.127 326.452 447.727C335.498 452.687 362.789 444.124 367.575 439.493C368.035 441.028 368.27 443.106 368.527 445.375C369.293 452.138 370.251 460.592 377.922 461.405C385.775 462.208 391.832 453.419 396.044 447.306C397.086 445.794 398.016 444.446 398.831 443.447C401.667 457.06 406.486 465.868 417.117 465.134C427.748 464.4 430.75 448.694 431.575 443.447C433.776 453.873 441.418 467.495 457.06 460.297C466.856 455.429 468.327 447.646 467.102 439.755C493.538 450.672 515.66 458.212 515.66 424.556C515.66 392.83 500.833 364.619 477.746 346.364Z" fill="#A1BFFF"/>
<circle cx="11.4815" cy="11.4815" r="11.4815" transform="matrix(-1 0 0 1 404.785 370.306)" fill="#6078DF"/>
<circle cx="439.229" cy="381.787" r="11.4815" fill="#6078DF"/>
<circle cx="8.93002" cy="8.93002" r="8.93002" transform="matrix(-1 0 0 1 402.233 372.857)" fill="#040A17"/>
<circle cx="439.229" cy="381.787" r="8.93002" fill="#040A17"/>
<circle cx="2.97667" cy="2.97667" r="2.97667" transform="matrix(-1 0 0 1 393.728 373.708)" fill="#E4E5FF"/>
<circle cx="441.78" cy="376.684" r="2.97667" fill="#E4E5FF"/>
<circle cx="1.70096" cy="1.70096" r="1.70096" transform="matrix(-1 0 0 1 388.625 378.81)" fill="#A5A6CC"/>
<circle cx="445.607" cy="380.511" r="1.70096" fill="#A5A6CC"/>
<g filter="url(#filter14_i_388_2861)">
<path d="M401.504 408.397C415.033 397.065 416.82 376.904 405.496 363.366C394.172 349.827 374.025 348.038 360.496 359.37C346.967 370.702 345.18 390.864 356.504 404.402C367.828 417.941 387.975 419.729 401.504 408.397Z" fill="#D9E5FF"/>
</g>
<g filter="url(#filter15_i_388_2861)">
<path d="M473.504 408.397C487.033 397.065 488.82 376.904 477.496 363.366C466.172 349.827 446.025 348.038 432.496 359.37C418.967 370.702 417.18 390.864 428.504 404.402C439.828 417.941 459.975 419.729 473.504 408.397Z" fill="#D9E5FF"/>
</g>
<path fill-rule="evenodd" clip-rule="evenodd" d="M391.883 393.37C394.237 390.899 395.742 387.713 396.213 384.307C396.388 383.041 397.408 382 398.686 382C399.964 382 401.013 383.039 400.879 384.31C400.381 389.03 398.371 393.459 395.142 396.849C391.391 400.787 386.304 403 381 403C375.696 403 370.609 400.787 366.858 396.849C363.629 393.459 361.619 389.03 361.121 384.31C360.987 383.039 362.036 382 363.314 382C364.592 382 365.612 383.041 365.787 384.307C366.258 387.713 367.763 390.899 370.117 393.37C372.997 396.394 376.911 398.1 381 398.1C385.089 398.1 389.003 396.394 391.883 393.37Z" fill="#A1BFFF"/>
<path fill-rule="evenodd" clip-rule="evenodd" d="M463.883 393.37C466.237 390.899 467.742 387.713 468.213 384.307C468.388 383.041 469.408 382 470.686 382C471.964 382 473.013 383.039 472.879 384.31C472.381 389.03 470.371 393.459 467.142 396.849C463.391 400.787 458.304 403 453 403C447.696 403 442.609 400.787 438.858 396.849C435.629 393.459 433.619 389.03 433.121 384.31C432.987 383.039 434.036 382 435.314 382C436.592 382 437.612 383.041 437.787 384.307C438.258 387.713 439.763 390.899 442.117 393.37C444.997 396.394 448.911 398.1 453 398.1C457.089 398.1 461.003 396.394 463.883 393.37Z" fill="#A1BFFF"/>
<g filter="url(#filter16_i_388_2861)">
<path d="M414.676 437.591C415.433 438.635 416.99 438.635 417.746 437.591L429.938 420.761C430.419 420.097 430.419 419.2 429.938 418.536L417.746 401.706C416.99 400.662 415.433 400.662 414.676 401.706L402.484 418.536C402.004 419.2 402.004 420.097 402.484 420.761L414.676 437.591Z" fill="#6078DF"/>
</g>
<path d="M408.626 368.333C408.109 367.097 407.461 365.873 406.691 364.678C405.163 362.28 403.163 359.983 400.78 357.853C395.877 353.668 389.294 350.221 381.765 347.997L375.996 346.503C373.988 346.029 371.964 345.6 369.959 345.088C365.945 344.117 361.974 343.049 358.104 341.774C354.257 340.501 350.464 339.017 347.308 337.024C344.089 335.064 341.854 332.593 340 330.107C342.109 332.522 344.57 334.866 347.865 336.616C351.098 338.4 354.885 339.676 358.749 340.742C362.624 341.81 366.611 342.686 370.629 343.465C372.63 343.877 374.674 344.216 376.69 344.59L382.903 345.89C391.117 347.893 398.796 351.338 404.781 355.821C407.7 358.095 410.219 360.59 412.237 363.243C413.247 364.566 414.134 365.925 414.875 367.326C414.896 367.366 414.917 367.398 414.938 367.438C411.921 354.118 403.027 335.023 376.89 330.951C370.638 329.977 364.985 329.242 357.55 327.896C344.273 325.504 336.413 323.113 331.912 319.816C330.273 318.626 327.399 319.265 327.497 320.805C328.22 331.203 333.545 351.003 363.559 352.379C389.054 353.55 402.036 361.667 409.002 369.257C408.885 368.947 408.768 368.637 408.626 368.333Z" fill="#6078DF"/>
<path d="M423.973 368.333C424.49 367.097 425.139 365.873 425.909 364.678C427.436 362.28 429.437 359.983 431.82 357.853C436.723 353.668 443.306 350.221 450.835 347.997L456.604 346.503C458.612 346.029 460.636 345.6 462.641 345.088C466.655 344.117 470.626 343.049 474.496 341.774C478.343 340.501 482.136 339.017 485.292 337.024C488.51 335.064 490.746 332.593 492.6 330.107C490.49 332.522 488.03 334.866 484.735 336.616C481.502 338.4 477.715 339.676 473.851 340.742C469.976 341.81 465.989 342.686 461.971 343.465C459.969 343.877 457.926 344.216 455.91 344.59L449.696 345.89C441.482 347.893 433.804 351.338 427.818 355.821C424.9 358.095 422.38 360.59 420.362 363.243C419.353 364.566 418.465 365.925 417.724 367.326C417.704 367.366 417.683 367.398 417.662 367.438C420.678 354.118 429.573 335.023 455.709 330.951C461.962 329.977 467.614 329.242 475.05 327.896C488.326 325.504 496.187 323.113 500.687 319.816C502.327 318.626 505.201 319.265 505.102 320.805C504.38 331.203 499.055 351.003 469.041 352.379C443.545 353.55 430.564 361.667 423.598 369.257C423.715 368.947 423.832 368.637 423.973 368.333Z" fill="#6078DF"/>
<path d="M-305.348 600.099L257.685 507.033L375.479 552.72L494.92 541.713L554.75 505.752L565.004 515.553L530.364 539.217L612.096 500.467L647.284 456.552L661.094 466.067L597.887 540.179L570.498 553.033L631.684 548.061L628.778 562.177L518.161 557.981L435.783 559.2L347.099 589.551L259.805 565.066L276.83 590.258L254.636 596.656L218.815 558.681L-309.803 700L-305.348 600.099Z" fill="#11121D"/>
<mask id="mask0_388_2861" style="mask-type:luminance" maskUnits="userSpaceOnUse" x="-313" y="456" width="975" height="244">
<path d="M-305.847 600L257.685 507.033L375.479 552.72L494.92 541.713L554.75 505.752L565.004 515.553L530.364 539.217L612.095 500.467L647.284 456.552L661.094 466.067L597.887 540.179L570.498 553.033L631.684 548.06L628.778 562.177L518.161 557.981L435.783 559.199L347.599 589.546L259.805 565.066L276.83 590.258L254.636 596.656L218.661 559.199L-312.839 700L-305.847 600Z" fill="white"/>
</mask>
<g mask="url(#mask0_388_2861)">
<path d="M-335.166 702.5C-321.067 660.181 -298.337 617.602 -267.494 575.722C-265.24 572.653 -262.831 569.489 -258.728 566.803C-254.01 563.716 -247.567 561.539 -241.279 559.457C-222.903 553.338 -204.528 547.22 -186.152 541.101C-205.498 588.436 -224.885 635.779 -244.226 683.137C-227.974 636.892 -209.262 587.796 -149.283 547.471C-134.961 548.428 -118.076 545.113 -105.789 538.948C-132.464 587.733 -155.547 636.634 -174.936 685.497C-147.545 632.839 -103.717 580.557 -45.895 531.611C-34.1255 536.147 -17.066 537.2 -0.519653 534.402C-6.68194 586.591 -12.807 639.004 -3.81961 689.203C13.1152 636.834 37.9566 584.186 70.4328 531.926C75.2506 537.112 92.1088 536.956 101.261 531.634C111.752 582.435 120.177 633.602 126.488 685.098C141.949 639.468 157.388 593.703 161.745 548.814C162.689 539.147 164.527 527.95 179.798 520.552C200.196 571.086 279.068 606.253 285.945 659.359C289.119 615.795 288.572 572.62 284.331 529.99C283.453 521.133 282.554 511.888 289.676 502.806C296.841 493.716 314.829 485.014 331.592 485.564L383.846 637.871C397.048 593.998 394.207 550.836 375.578 511.452C370.007 499.691 363.143 487.316 371.69 474.267C383.841 455.782 430.843 442.277 458.815 449.874C474.722 508.178 490.629 566.482 506.578 624.78C518.22 572.808 491.791 525.395 488.126 474.979C487.257 462.85 492.743 446.487 516.162 441.026C581.849 472.354 572.166 532.013 604.628 577.087C616.717 527.803 550.484 489.36 565.526 439.931C568.94 428.748 575.374 415.267 560.597 409.274C554.94 406.968 547.054 406.346 539.401 405.846C383.106 395.622 211.899 416.431 49.262 450.412C-57.0654 472.634 -216.251 502.565 -267.136 565.6C-283.359 585.683 -294.479 606.529 -306.832 626.867C-323.168 653.692 -326.49 676.419 -335.166 702.5Z" fill="#1A1B30"/>
<g style="mix-blend-mode:multiply" opacity="0.24">
<path d="M427.193 542.329C415.553 542.801 403.709 542.714 392.354 541.197C377.099 539.146 363.305 534.571 348.258 532.106C301.463 524.498 253.341 538.307 205.358 542.785C143.04 548.616 9.1608 590 -60.9477 604.5C-84.8392 608.5 -110.868 618.144 -143.339 624.72C-165.044 629.115 -189.339 636.5 -226.839 636.5C-269.339 634 -285.464 634.988 -323.339 624.72C-335.619 621.395 -320.682 607.874 -329.786 613.5C-334.529 616.426 -335.029 620.758 -334.976 624.72C-334.737 651.846 -364.129 688.108 -338.839 711.351C-294.763 751.838 -174.627 769.768 -92.9761 782.905C-11.3254 796.042 99.784 651.017 184.401 647.409C269.018 643.801 353.029 636.354 437.813 634.24C479.324 633.2 521.625 633.366 561.191 626.408C613.232 617.218 657.519 595.368 680.073 567.709C697.11 546.769 701.556 522.751 693.253 500.197C684.848 477.394 668.403 461.776 631.276 480.543C572.456 510.299 510.324 539.005 427.158 542.308L427.193 542.329Z" fill="#11121D"/>
</g>
</g>
<path d="M456.437 545.18C458.846 547.906 461.683 554.573 465.383 553.507C466.474 553.195 466.087 551.644 463.358 548.013C460.041 543.591 456.085 538.701 450.919 539.656C447.009 540.404 445.335 545.194 444.672 549.661C444.02 554.128 443.647 555.097 446.892 554.96C450.16 554.823 449.061 550.045 450.191 546.454C451.399 550.005 451.739 556.492 456.757 555.752C459.192 555.392 458.605 549.454 456.426 545.195" fill="#F4AA5A"/>
<path d="M402.386 549.91C403.952 552.893 404.818 559.832 408.721 559.184C409.876 558.996 409.932 557.416 408.319 553.507C406.354 548.745 403.883 543.444 398.573 543.807C394.537 544.111 391.54 548.676 389.628 553.035C387.715 557.395 387.066 558.313 390.272 558.543C393.502 558.771 393.791 553.909 395.921 550.467C396.084 554.128 394.565 560.602 399.668 560.436C402.151 560.353 403.275 554.391 402.374 549.918" fill="#F4AA5A"/>
<path opacity="0.35" d="M443.714 204.54L445.984 211.964L438.223 211.798L445.787 213.544L441.763 220.182L447.057 214.505L450.794 221.309L448.524 213.885L456.285 214.051L448.721 212.305L452.745 205.666L447.451 211.344L443.714 204.54Z" fill="white"/>
<path opacity="0.05" d="M620.793 268.044L607.66 289.816L592.411 269.469L604.7 291.729L579.455 294.761L604.877 295.248L594.88 318.627L608.013 296.855L623.262 317.202L610.973 294.942L636.218 291.91L610.796 291.423L620.793 268.044Z" fill="white"/>
<path opacity="0.2" d="M197.522 378.883L191.044 388.211L184.211 379.141L189.049 389.415L177.778 390.798L189.095 391.744L184.657 402.197L191.134 392.87L197.968 401.939L193.129 391.666L204.401 390.283L193.084 389.336L197.522 378.883Z" fill="white"/>
<path opacity="0.05" d="M316.944 232.487L298.768 242.198L296.593 221.706L295.915 242.302L277.08 233.941L294.578 244.826L277.919 256.956L296.095 247.246L298.271 267.738L298.949 247.141L317.783 255.503L300.286 244.618L316.944 232.487Z" fill="white"/>
</g>
<defs>
<filter id="filter0_f_388_2861" x="-417.791" y="-382.791" width="1665.18" height="1665.18" filterUnits="userSpaceOnUse" color-interpolation-filters="sRGB">
<feFlood flood-opacity="0" result="BackgroundImageFix"/>
<feBlend mode="normal" in="SourceGraphic" in2="BackgroundImageFix" result="shape"/>
<feGaussianBlur stdDeviation="204.545" result="effect1_foregroundBlur_388_2861"/>
</filter>
<filter id="filter1_i_388_2861" x="239.66" y="258" width="353" height="353" filterUnits="userSpaceOnUse" color-interpolation-filters="sRGB">
<feFlood flood-opacity="0" result="BackgroundImageFix"/>
<feBlend mode="normal" in="SourceGraphic" in2="BackgroundImageFix" result="shape"/>
<feColorMatrix in="SourceAlpha" type="matrix" values="0 0 0 0 0 0 0 0 0 0 0 0 0 0 0 0 0 0 127 0" result="hardAlpha"/>
<feOffset dx="-14" dy="-50"/>
<feComposite in2="hardAlpha" operator="arithmetic" k2="-1" k3="1"/>
<feColorMatrix type="matrix" values="0 0 0 0 0.8 0 0 0 0 0.847059 0 0 0 0 0.94902 0 0 0 1 0"/>
<feBlend mode="normal" in2="shape" result="effect1_innerShadow_388_2861"/>
</filter>
<filter id="filter2_i_388_2861" x="473.077" y="359.186" width="91.9868" height="91.9869" filterUnits="userSpaceOnUse" color-interpolation-filters="sRGB">
<feFlood flood-opacity="0" result="BackgroundImageFix"/>
<feBlend mode="normal" in="SourceGraphic" in2="BackgroundImageFix" result="shape"/>
<feColorMatrix in="SourceAlpha" type="matrix" values="0 0 0 0 0 0 0 0 0 0 0 0 0 0 0 0 0 0 127 0" result="hardAlpha"/>
<feOffset dx="5" dy="1"/>
<feComposite in2="hardAlpha" operator="arithmetic" k2="-1" k3="1"/>
<feColorMatrix type="matrix" values="0 0 0 0 0.686275 0 0 0 0 0.733333 0 0 0 0 0.835294 0 0 0 1 0"/>
<feBlend mode="normal" in2="shape" result="effect1_innerShadow_388_2861"/>
</filter>
<filter id="filter3_i_388_2861" x="410.284" y="281.261" width="46.4312" height="46.4312" filterUnits="userSpaceOnUse" color-interpolation-filters="sRGB">
<feFlood flood-opacity="0" result="BackgroundImageFix"/>
<feBlend mode="normal" in="SourceGraphic" in2="BackgroundImageFix" result="shape"/>
<feColorMatrix in="SourceAlpha" type="matrix" values="0 0 0 0 0 0 0 0 0 0 0 0 0 0 0 0 0 0 127 0" result="hardAlpha"/>
<feOffset dx="2" dy="2"/>
<feComposite in2="hardAlpha" operator="arithmetic" k2="-1" k3="1"/>
<feColorMatrix type="matrix" values="0 0 0 0 0.686667 0 0 0 0 0.733836 0 0 0 0 0.836035 0 0 0 1 0"/>
<feBlend mode="normal" in2="shape" result="effect1_innerShadow_388_2861"/>
</filter>
<filter id="filter4_i_388_2861" x="374.239" y="499.503" width="63.1555" height="63.1554" filterUnits="userSpaceOnUse" color-interpolation-filters="sRGB">
<feFlood flood-opacity="0" result="BackgroundImageFix"/>
<feBlend mode="normal" in="SourceGraphic" in2="BackgroundImageFix" result="shape"/>
<feColorMatrix in="SourceAlpha" type="matrix" values="0 0 0 0 0 0 0 0 0 0 0 0 0 0 0 0 0 0 127 0" result="hardAlpha"/>
<feOffset dx="2" dy="2"/>
<feComposite in2="hardAlpha" operator="arithmetic" k2="-1" k3="1"/>
<feColorMatrix type="matrix" values="0 0 0 0 0.686667 0 0 0 0 0.733836 0 0 0 0 0.836035 0 0 0 1 0"/>
<feBlend mode="normal" in2="shape" result="effect1_innerShadow_388_2861"/>
</filter>
<filter id="filter5_i_388_2861" x="341.413" y="472.736" width="36.5112" height="36.5112" filterUnits="userSpaceOnUse" color-interpolation-filters="sRGB">
<feFlood flood-opacity="0" result="BackgroundImageFix"/>
<feBlend mode="normal" in="SourceGraphic" in2="BackgroundImageFix" result="shape"/>
<feColorMatrix in="SourceAlpha" type="matrix" values="0 0 0 0 0 0 0 0 0 0 0 0 0 0 0 0 0 0 127 0" result="hardAlpha"/>
<feOffset dx="1" dy="2"/>
<feComposite in2="hardAlpha" operator="arithmetic" k2="-1" k3="1"/>
<feColorMatrix type="matrix" values="0 0 0 0 0.686275 0 0 0 0 0.733333 0 0 0 0 0.835294 0 0 0 1 0"/>
<feBlend mode="normal" in2="shape" result="effect1_innerShadow_388_2861"/>
</filter>
<filter id="filter6_i_388_2861" x="303.354" y="319.934" width="38.7991" height="38.799" filterUnits="userSpaceOnUse" color-interpolation-filters="sRGB">
<feFlood flood-opacity="0" result="BackgroundImageFix"/>
<feBlend mode="normal" in="SourceGraphic" in2="BackgroundImageFix" result="shape"/>
<feColorMatrix in="SourceAlpha" type="matrix" values="0 0 0 0 0 0 0 0 0 0 0 0 0 0 0 0 0 0 127 0" result="hardAlpha"/>
<feOffset dx="2" dy="2"/>
<feComposite in2="hardAlpha" operator="arithmetic" k2="-1" k3="1"/>
<feColorMatrix type="matrix" values="0 0 0 0 0.686667 0 0 0 0 0.733836 0 0 0 0 0.836035 0 0 0 1 0"/>
<feBlend mode="normal" in2="shape" result="effect1_innerShadow_388_2861"/>
</filter>
<filter id="filter7_i_388_2861" x="259.026" y="398.283" width="20.8752" height="20.8753" filterUnits="userSpaceOnUse" color-interpolation-filters="sRGB">
<feFlood flood-opacity="0" result="BackgroundImageFix"/>
<feBlend mode="normal" in="SourceGraphic" in2="BackgroundImageFix" result="shape"/>
<feColorMatrix in="SourceAlpha" type="matrix" values="0 0 0 0 0 0 0 0 0 0 0 0 0 0 0 0 0 0 127 0" result="hardAlpha"/>
<feOffset dx="1" dy="1"/>
<feComposite in2="hardAlpha" operator="arithmetic" k2="-1" k3="1"/>
<feColorMatrix type="matrix" values="0 0 0 0 0.686275 0 0 0 0 0.733333 0 0 0 0 0.835294 0 0 0 1 0"/>
<feBlend mode="normal" in2="shape" result="effect1_innerShadow_388_2861"/>
</filter>
<filter id="filter8_i_388_2861" x="387.808" y="275.25" width="20.8752" height="20.8753" filterUnits="userSpaceOnUse" color-interpolation-filters="sRGB">
<feFlood flood-opacity="0" result="BackgroundImageFix"/>
<feBlend mode="normal" in="SourceGraphic" in2="BackgroundImageFix" result="shape"/>
<feColorMatrix in="SourceAlpha" type="matrix" values="0 0 0 0 0 0 0 0 0 0 0 0 0 0 0 0 0 0 127 0" result="hardAlpha"/>
<feOffset dx="1" dy="1"/>
<feComposite in2="hardAlpha" operator="arithmetic" k2="-1" k3="1"/>
<feColorMatrix type="matrix" values="0 0 0 0 0.686275 0 0 0 0 0.733333 0 0 0 0 0.835294 0 0 0 1 0"/>
<feBlend mode="normal" in2="shape" result="effect1_innerShadow_388_2861"/>
</filter>
<filter id="filter9_i_388_2861" x="564.883" y="424.729" width="20.8752" height="20.8753" filterUnits="userSpaceOnUse" color-interpolation-filters="sRGB">
<feFlood flood-opacity="0" result="BackgroundImageFix"/>
<feBlend mode="normal" in="SourceGraphic" in2="BackgroundImageFix" result="shape"/>
<feColorMatrix in="SourceAlpha" type="matrix" values="0 0 0 0 0 0 0 0 0 0 0 0 0 0 0 0 0 0 127 0" result="hardAlpha"/>
<feOffset dx="1" dy="1"/>
<feComposite in2="hardAlpha" operator="arithmetic" k2="-1" k3="1"/>
<feColorMatrix type="matrix" values="0 0 0 0 0.686275 0 0 0 0 0.733333 0 0 0 0 0.835294 0 0 0 1 0"/>
<feBlend mode="normal" in2="shape" result="effect1_innerShadow_388_2861"/>
</filter>
<filter id="filter10_i_388_2861" x="451.472" y="522.196" width="36.8193" height="36.8194" filterUnits="userSpaceOnUse" color-interpolation-filters="sRGB">
<feFlood flood-opacity="0" result="BackgroundImageFix"/>
<feBlend mode="normal" in="SourceGraphic" in2="BackgroundImageFix" result="shape"/>
<feColorMatrix in="SourceAlpha" type="matrix" values="0 0 0 0 0 0 0 0 0 0 0 0 0 0 0 0 0 0 127 0" result="hardAlpha"/>
<feOffset dx="1" dy="1"/>
<feComposite in2="hardAlpha" operator="arithmetic" k2="-1" k3="1"/>
<feColorMatrix type="matrix" values="0 0 0 0 0.686275 0 0 0 0 0.733333 0 0 0 0 0.835294 0 0 0 1 0"/>
<feBlend mode="normal" in2="shape" result="effect1_innerShadow_388_2861"/>
</filter>
<filter id="filter11_i_388_2861" x="330.766" y="560.447" width="21.5388" height="21.5389" filterUnits="userSpaceOnUse" color-interpolation-filters="sRGB">
<feFlood flood-opacity="0" result="BackgroundImageFix"/>
<feBlend mode="normal" in="SourceGraphic" in2="BackgroundImageFix" result="shape"/>
<feColorMatrix in="SourceAlpha" type="matrix" values="0 0 0 0 0 0 0 0 0 0 0 0 0 0 0 0 0 0 127 0" result="hardAlpha"/>
<feOffset dx="1" dy="1"/>
<feComposite in2="hardAlpha" operator="arithmetic" k2="-1" k3="1"/>
<feColorMatrix type="matrix" values="0 0 0 0 0.686275 0 0 0 0 0.733333 0 0 0 0 0.835294 0 0 0 1 0"/>
<feBlend mode="normal" in2="shape" result="effect1_innerShadow_388_2861"/>
</filter>
<filter id="filter12_i_388_2861" x="354.615" y="517.377" width="12.0137" height="12.0137" filterUnits="userSpaceOnUse" color-interpolation-filters="sRGB">
<feFlood flood-opacity="0" result="BackgroundImageFix"/>
<feBlend mode="normal" in="SourceGraphic" in2="BackgroundImageFix" result="shape"/>
<feColorMatrix in="SourceAlpha" type="matrix" values="0 0 0 0 0 0 0 0 0 0 0 0 0 0 0 0 0 0 127 0" result="hardAlpha"/>
<feOffset dx="1"/>
<feComposite in2="hardAlpha" operator="arithmetic" k2="-1" k3="1"/>
<feColorMatrix type="matrix" values="0 0 0 0 0 0 0 0 0 0 0 0 0 0 0 0 0 0 0.25 0"/>
<feBlend mode="normal" in2="shape" result="effect1_innerShadow_388_2861"/>
</filter>
<filter id="filter13_i_388_2861" x="507.543" y="342.601" width="12.0137" height="12.0137" filterUnits="userSpaceOnUse" color-interpolation-filters="sRGB">
<feFlood flood-opacity="0" result="BackgroundImageFix"/>
<feBlend mode="normal" in="SourceGraphic" in2="BackgroundImageFix" result="shape"/>
<feColorMatrix in="SourceAlpha" type="matrix" values="0 0 0 0 0 0 0 0 0 0 0 0 0 0 0 0 0 0 127 0" result="hardAlpha"/>
<feOffset dx="1"/>
<feComposite in2="hardAlpha" operator="arithmetic" k2="-1" k3="1"/>
<feColorMatrix type="matrix" values="0 0 0 0 0.686275 0 0 0 0 0.733333 0 0 0 0 0.835294 0 0 0 1 0"/>
<feBlend mode="normal" in2="shape" result="effect1_innerShadow_388_2861"/>
</filter>
<filter id="filter14_i_388_2861" x="349.054" y="351.916" width="63.8911" height="63.9363" filterUnits="userSpaceOnUse" color-interpolation-filters="sRGB">
<feFlood flood-opacity="0" result="BackgroundImageFix"/>
<feBlend mode="normal" in="SourceGraphic" in2="BackgroundImageFix" result="shape"/>
<feColorMatrix in="SourceAlpha" type="matrix" values="0 0 0 0 0 0 0 0 0 0 0 0 0 0 0 0 0 0 127 0" result="hardAlpha"/>
<feOffset dy="-3"/>
<feComposite in2="hardAlpha" operator="arithmetic" k2="-1" k3="1"/>
<feColorMatrix type="matrix" values="0 0 0 0 0.568434 0 0 0 0 0.701908 0 0 0 0 0.986654 0 0 0 1 0"/>
<feBlend mode="normal" in2="shape" result="effect1_innerShadow_388_2861"/>
</filter>
<filter id="filter15_i_388_2861" x="421.054" y="351.916" width="63.8911" height="63.9363" filterUnits="userSpaceOnUse" color-interpolation-filters="sRGB">
<feFlood flood-opacity="0" result="BackgroundImageFix"/>
<feBlend mode="normal" in="SourceGraphic" in2="BackgroundImageFix" result="shape"/>
<feColorMatrix in="SourceAlpha" type="matrix" values="0 0 0 0 0 0 0 0 0 0 0 0 0 0 0 0 0 0 127 0" result="hardAlpha"/>
<feOffset dy="-3"/>
<feComposite in2="hardAlpha" operator="arithmetic" k2="-1" k3="1"/>
<feColorMatrix type="matrix" values="0 0 0 0 0.568434 0 0 0 0 0.701908 0 0 0 0 0.986654 0 0 0 1 0"/>
<feBlend mode="normal" in2="shape" result="effect1_innerShadow_388_2861"/>
</filter>
<filter id="filter16_i_388_2861" x="402.124" y="400.923" width="28.1748" height="37.4513" filterUnits="userSpaceOnUse" color-interpolation-filters="sRGB">
<feFlood flood-opacity="0" result="BackgroundImageFix"/>
<feBlend mode="normal" in="SourceGraphic" in2="BackgroundImageFix" result="shape"/>
<feColorMatrix in="SourceAlpha" type="matrix" values="0 0 0 0 0 0 0 0 0 0 0 0 0 0 0 0 0 0 127 0" result="hardAlpha"/>
<feOffset dy="-9"/>
<feComposite in2="hardAlpha" operator="arithmetic" k2="-1" k3="1"/>
<feColorMatrix type="matrix" values="0 0 0 0 0.361994 0 0 0 0 0.45073 0 0 0 0 0.831559 0 0 0 1 0"/>
<feBlend mode="normal" in2="shape" result="effect1_innerShadow_388_2861"/>
</filter>
<radialGradient id="paint0_radial_388_2861" cx="0" cy="0" r="1" gradientUnits="userSpaceOnUse" gradientTransform="translate(415 450) rotate(-84.0278) scale(610.312 369.86)">
<stop stop-color="white" stop-opacity="0.93"/>
<stop offset="0.250637" stop-color="#D0C9FA" stop-opacity="0.770383"/>
<stop offset="0.369792" stop-color="#654DFD" stop-opacity="0.770383"/>
<stop offset="0.493846" stop-color="#2400FF" stop-opacity="0.770383"/>
<stop offset="0.71875" stop-color="#0C0054" stop-opacity="0.877197"/>
<stop offset="0.885417" stop-color="#02000F"/>
</radialGradient>
</defs>
</svg>
