<svg width="1440" height="901" viewBox="0 0 1440 901" fill="none" xmlns="http://www.w3.org/2000/svg">
<path d="M1257.26 417.5C1257.26 713.943 1016.94 954.258 720.5 954.258C424.057 954.258 183.742 713.943 183.742 417.5C183.742 121.057 424.057 -119.258 720.5 -119.258C1016.94 -119.258 1257.26 121.057 1257.26 417.5Z" fill="white" fill-opacity="0.01"/>
<path d="M1367 417.5C1367 774.552 1077.55 1064 720.5 1064C363.447 1064 73.999 774.552 73.999 417.5C73.999 60.4473 363.447 -229.001 720.5 -229.001C1077.55 -229.001 1367 60.4473 1367 417.5Z" fill="white" fill-opacity="0.01"/>
<path d="M1488 417.5C1488 841.379 1144.38 1185 720.5 1185C296.621 1185 -47 841.379 -47 417.5C-47 -6.37854 296.621 -350 720.5 -350C1144.38 -350 1488 -6.37854 1488 417.5Z" fill="white" fill-opacity="0.01"/>
<g style="mix-blend-mode:lighten" filter="url(#filter0_f_1335_6136)">
<path d="M1143.29 416.796C1143.29 650.687 953.687 840.293 719.797 840.293C485.906 840.293 296.3 650.687 296.3 416.796C296.3 182.906 485.906 -6.70032 719.797 -6.70032C953.687 -6.70032 1143.29 182.906 1143.29 416.796Z" fill="url(#paint0_radial_1335_6136)" fill-opacity="0.7"/>
</g>
<path d="M1039.18 416.797C1039.18 593.186 896.186 736.178 719.797 736.178C543.407 736.178 400.415 593.186 400.415 416.797C400.415 240.407 543.407 97.4153 719.797 97.4153C896.186 97.4153 1039.18 240.407 1039.18 416.797Z" fill="white" fill-opacity="0.01"/>
<path d="M1162.99 416.796C1162.99 661.566 964.566 859.991 719.797 859.991C475.027 859.991 276.602 661.566 276.602 416.796C276.602 172.027 475.027 -26.3978 719.797 -26.3978C964.566 -26.3978 1162.99 172.027 1162.99 416.796Z" fill="white" fill-opacity="0.01"/>
<g filter="url(#filter1_i_1335_6136)">
<path d="M897 417.5C897 514.978 817.978 594 720.5 594C623.022 594 544 514.978 544 417.5C544 320.022 623.022 241 720.5 241C817.978 241 897 320.022 897 417.5Z" fill="#D9E5FF"/>
</g>
<g filter="url(#filter2_i_1335_6136)">
<path d="M650.112 420.701C632.15 438.663 603.029 438.663 585.067 420.701C567.106 402.74 567.106 373.618 585.067 355.657C603.029 337.695 632.15 337.695 650.112 355.657C668.073 373.618 668.073 402.74 650.112 420.701Z" fill="#CCD8F2"/>
</g>
<g filter="url(#filter3_i_1335_6136)">
<path d="M705.887 310.529C693.155 312.035 681.613 302.934 680.107 290.203C678.602 277.471 687.702 265.929 700.434 264.424C713.165 262.918 724.707 272.018 726.213 284.75C727.719 297.481 718.618 309.023 705.887 310.529Z" fill="#CCD8F2"/>
</g>
<g filter="url(#filter4_i_1335_6136)">
<path d="M734.552 545.437C717.234 547.485 701.535 535.107 699.487 517.79C697.439 500.472 709.817 484.773 727.134 482.725C744.452 480.677 760.151 493.055 762.199 510.372C764.247 527.69 751.869 543.389 734.552 545.437Z" fill="#CCD8F2"/>
</g>
<g filter="url(#filter5_i_1335_6136)">
<path d="M779.135 492.119C769.124 493.303 760.048 486.147 758.864 476.135C757.68 466.124 764.836 457.048 774.847 455.864C784.859 454.68 793.935 461.836 795.119 471.847C796.303 481.859 789.147 490.935 779.135 492.119Z" fill="#CCD8F2"/>
</g>
<g filter="url(#filter6_i_1335_6136)">
<path d="M816.185 341.597C805.546 342.855 795.902 335.251 794.643 324.612C793.385 313.973 800.989 304.328 811.628 303.07C822.267 301.812 831.912 309.416 833.17 320.055C834.428 330.694 826.824 340.338 816.185 341.597Z" fill="#CCD8F2"/>
</g>
<g filter="url(#filter7_i_1335_6136)">
<path d="M868.422 402.085C862.698 402.762 857.509 398.67 856.832 392.946C856.155 387.222 860.246 382.033 865.97 381.356C871.694 380.679 876.883 384.771 877.56 390.495C878.237 396.219 874.146 401.408 868.422 402.085Z" fill="#CCD8F2"/>
</g>
<g filter="url(#filter8_i_1335_6136)">
<path d="M739.64 279.052C733.916 279.729 728.727 275.638 728.05 269.914C727.373 264.19 731.464 259.001 737.188 258.324C742.912 257.647 748.102 261.738 748.779 267.462C749.456 273.186 745.364 278.375 739.64 279.052Z" fill="#CCD8F2"/>
</g>
<g filter="url(#filter9_i_1335_6136)">
<path d="M562.565 428.531C556.841 429.208 551.652 425.117 550.975 419.393C550.298 413.669 554.389 408.479 560.114 407.802C565.838 407.125 571.027 411.217 571.704 416.941C572.381 422.665 568.289 427.854 562.565 428.531Z" fill="#CCD8F2"/>
</g>
<g filter="url(#filter10_i_1335_6136)">
<path d="M668.94 541.886C658.844 543.08 649.692 535.864 648.498 525.768C647.303 515.672 654.52 506.519 664.616 505.325C674.712 504.131 683.864 511.347 685.059 521.443C686.253 531.539 679.036 540.692 668.94 541.886Z" fill="#CCD8F2"/>
</g>
<g filter="url(#filter11_i_1335_6136)">
<path d="M796.389 564.91C790.483 565.608 785.129 561.387 784.431 555.481C783.732 549.575 787.954 544.221 793.86 543.522C799.766 542.824 805.12 547.045 805.819 552.951C806.517 558.857 802.296 564.211 796.389 564.91Z" fill="#CCD8F2"/>
</g>
<g filter="url(#filter12_i_1335_6136)">
<path d="M776.744 512.348C773.449 512.738 770.463 510.383 770.073 507.089C769.684 503.795 772.038 500.808 775.333 500.419C778.627 500.029 781.613 502.384 782.003 505.678C782.392 508.972 780.038 511.959 776.744 512.348Z" fill="#CCD8F2"/>
</g>
<g filter="url(#filter13_i_1335_6136)">
<path d="M623.815 337.573C620.521 337.963 617.535 335.608 617.145 332.314C616.755 329.02 619.11 326.033 622.404 325.644C625.698 325.254 628.685 327.609 629.074 330.903C629.464 334.197 627.109 337.183 623.815 337.573Z" fill="#CCD8F2"/>
</g>
<path opacity="0.35" d="M693.465 187.54L691.195 194.964L698.955 194.798L691.392 196.544L695.415 203.182L690.122 197.505L686.384 204.309L688.654 196.885L680.893 197.051L688.457 195.305L684.434 188.666L689.727 194.344L693.465 187.54Z" fill="white"/>
<path opacity="0.05" d="M516.386 251.044L529.519 272.816L544.767 252.469L532.478 274.729L557.724 277.761L532.302 278.248L542.298 301.627L529.165 279.855L513.917 300.202L526.206 277.942L500.961 274.91L526.383 274.423L516.386 251.044Z" fill="white"/>
<path opacity="0.5" d="M471.387 363.996L477.491 366.883L478.596 360.076L479.055 366.923L485.418 364.353L479.771 368.313L485.029 372.55L478.925 369.663L477.82 376.471L477.361 369.624L470.998 372.194L476.644 368.234L471.387 363.996Z" fill="white"/>
<path opacity="0.2" d="M939.657 361.883L946.134 371.211L952.968 362.141L948.129 372.415L959.401 373.798L948.084 374.744L952.522 385.197L946.044 375.87L939.21 384.939L944.049 374.666L932.778 373.283L944.094 372.336L939.657 361.883Z" fill="white"/>
<path opacity="0.05" d="M820.235 215.487L838.41 225.198L840.586 204.706L841.264 225.302L860.099 216.941L842.601 227.826L859.26 239.956L841.084 230.246L838.908 250.738L838.23 230.141L819.395 238.503L836.893 227.618L820.235 215.487Z" fill="white"/>
<path opacity="0.5" d="M887.696 299.826L889.058 306.312L894.774 302.959L889.838 307.381L895.6 310.655L889.303 308.591L889.349 315.218L887.987 308.733L882.271 312.086L887.206 307.664L881.444 304.39L887.742 306.453L887.696 299.826Z" fill="white"/>
<path d="M792.322 416.701C798.237 455.203 810.772 492.679 794.863 530.462C784.767 553.084 769.861 571.007 745.337 574.771C745.075 586.362 757.314 613.022 746.602 622.822C733.543 635.028 727.788 593.104 725.896 585.244C725.588 592.089 730.842 621.852 720.483 620.734C712.119 619.308 706.455 595.716 706.66 588.21C707.481 593.515 713.03 625.286 700.073 620.483C689.874 615.931 689.829 584.685 691.709 574.885C644.838 565.793 638.012 494.812 643.015 456.675C645.362 436.608 653.373 404.803 669.647 391.421C686.581 377.948 729.839 367.886 750.591 374.891C771.342 381.884 781.906 402.008 792.71 419.371" fill="#A1BFFF"/>
<path d="M792.322 416.701C798.237 455.203 810.772 492.679 794.863 530.462C784.767 553.084 769.861 571.007 745.337 574.771C745.075 586.362 757.314 613.022 746.602 622.822C733.543 635.028 727.788 593.104 725.896 585.244C725.588 592.089 730.842 621.852 720.483 620.734C712.119 619.308 706.455 595.716 706.66 588.21C707.481 593.515 713.03 625.286 700.073 620.483C689.874 615.931 689.829 584.685 691.709 574.885C644.838 565.793 638.012 494.812 643.015 456.675C645.362 436.608 653.373 404.803 669.647 391.421C686.581 377.948 729.839 367.886 750.591 374.891C771.342 381.884 781.906 402.008 792.71 419.371" fill="#6078DF" fill-opacity="0.5"/>
<path d="M650 390.132C635.482 410.484 628.85 446.841 629.932 471.585C630.741 482.788 632.747 492.896 637.1 503.551C638.456 506.517 642.331 519.956 646.821 519.716C653.145 519.648 663.994 493.067 665.521 488.298C675.72 460.451 679.059 429.136 674.205 400.445C672.165 387.166 659.379 374.64 650 390.121" fill="#6078DF"/>
<path d="M802.977 410.986C811.57 434.578 814.156 457.28 809.803 481.955C806.738 497.379 798.954 520.32 784.812 498.942C776.003 485.8 772.607 469.566 770.226 454.074C768.733 444.331 764.721 430.003 769.109 420.272C773.496 410.529 795.023 400.433 802.977 410.986Z" fill="#6078DF"/>
<path d="M752.948 458.055C748.356 459.436 743.285 470.365 747.353 472.27C750.886 473.924 752.356 465.95 752.994 462.516C754.031 465.322 759.467 472.258 760.401 466.155C760.937 462.436 756.265 458.42 752.937 458.055" fill="#E9F0FF"/>
<path d="M697.007 476.411C701.804 476.354 709.918 485.241 706.602 488.287C703.719 490.922 699.935 483.758 698.294 480.678C698.146 483.666 695.035 491.914 692.323 486.382C690.693 483.005 693.953 477.768 697.007 476.422" fill="#E9F0FF"/>
<path d="M738.977 462.333C733.473 463.52 732.242 475.088 737.541 472.601C740.003 471.22 740.539 463.771 738.977 462.333Z" fill="#E9F0FF"/>
<path d="M715.035 463.999C710.385 467.17 713.599 478.362 717.576 474.049C719.331 471.836 717.017 464.74 715.035 463.999Z" fill="#E9F0FF"/>
<path d="M715.023 497.071C710.374 500.242 713.587 511.434 717.565 507.121C719.319 504.908 717.006 497.812 715.023 497.071Z" fill="#E9F0FF"/>
<path d="M726.738 483.427C723.228 487.842 729.621 497.573 732.14 492.268C733.165 489.633 728.858 483.541 726.738 483.427Z" fill="#E9F0FF"/>
<path d="M689.474 457.645C684.277 459.812 685.166 471.414 689.93 468.003C692.106 466.189 691.263 458.774 689.474 457.645Z" fill="#E9F0FF"/>
<path d="M750.259 480.677C745.063 482.845 745.951 494.447 750.715 491.036C752.892 489.222 752.048 481.807 750.259 480.677Z" fill="#E9F0FF"/>
<path d="M658.914 329.364L636.197 314.184L720.5 329.364H658.914Z" fill="#A1BFFF"/>
<path d="M720.5 329.364L782.118 314.722L804.166 317.16L782.118 329.364H720.5Z" fill="#A1BFFF"/>
<path fill-rule="evenodd" clip-rule="evenodd" d="M658.914 329.364H782.118L782.086 329.397C805.173 347.619 820 375.83 820 407.556C820 421.253 816.336 428.127 810.209 430.727C801.163 435.687 773.871 427.124 769.085 422.493C768.625 424.028 768.39 426.106 768.133 428.375C767.367 435.138 766.409 443.592 758.738 444.405C750.886 445.208 744.829 436.419 740.616 430.306C739.574 428.794 738.645 427.446 737.829 426.447C734.994 440.06 730.175 448.868 719.544 448.134C708.913 447.4 705.911 431.694 705.086 426.447C702.885 436.873 695.243 450.495 679.6 443.297C669.804 438.429 668.334 430.646 669.558 422.755C643.122 433.672 621 441.212 621 407.556C621 375.83 635.827 347.619 658.914 329.364Z" fill="#A1BFFF"/>
<g filter="url(#filter14_i_1335_6136)">
<path d="M705.336 387.993C718.032 377.358 719.71 358.437 709.083 345.731C698.455 333.025 679.547 331.346 666.85 341.981C654.153 352.616 652.476 371.538 663.103 384.244C673.731 396.949 692.639 398.628 705.336 387.993Z" fill="white"/>
</g>
<g filter="url(#filter15_i_1335_6136)">
<path d="M775.91 386.204C787.618 374.488 787.618 355.492 775.91 343.776C764.202 332.06 745.219 332.06 733.511 343.776C721.804 355.492 721.804 374.488 733.511 386.204C745.219 397.921 764.202 397.921 775.91 386.204Z" fill="white"/>
</g>
<circle cx="743.357" cy="364.787" r="11.4815" fill="#6078DF"/>
<circle cx="11.4815" cy="11.4815" r="11.4815" transform="matrix(-1 0 0 1 708.913 353.306)" fill="#6078DF"/>
<circle cx="743.357" cy="364.787" r="8.93002" fill="#040A17"/>
<circle cx="8.93002" cy="8.93002" r="8.93002" transform="matrix(-1 0 0 1 706.361 355.857)" fill="#040A17"/>
<circle cx="745.909" cy="359.684" r="2.97667" fill="#ECECEC"/>
<circle cx="2.97667" cy="2.97667" r="2.97667" transform="matrix(-1 0 0 1 697.857 356.708)" fill="#ECECEC"/>
<circle cx="749.736" cy="363.511" r="1.70096" fill="#AAAAAA"/>
<circle cx="1.70096" cy="1.70096" r="1.70096" transform="matrix(-1 0 0 1 692.754 361.81)" fill="#AAAAAA"/>
<g filter="url(#filter16_i_1335_6136)">
<path d="M721.984 420.591C721.227 421.635 719.671 421.635 718.914 420.591L706.722 403.761C706.241 403.097 706.241 402.2 706.722 401.536L718.914 384.706C719.671 383.662 721.227 383.662 721.984 384.706L734.176 401.536C734.656 402.2 734.656 403.097 734.176 403.761L721.984 420.591Z" fill="#6078DF"/>
</g>
<path d="M728.034 351.333C728.551 350.097 729.2 348.873 729.97 347.678C731.497 345.28 733.497 342.983 735.88 340.853C740.784 336.668 747.367 333.221 754.896 330.997L760.665 329.504C762.673 329.029 764.696 328.6 766.701 328.088C770.716 327.117 774.687 326.049 778.557 324.774C782.403 323.501 786.197 322.017 789.353 320.024C792.571 318.064 794.807 315.593 796.661 313.107C794.551 315.522 792.091 317.866 788.795 319.616C785.562 321.4 781.776 322.676 777.912 323.742C774.036 324.81 770.05 325.686 766.031 326.465C764.03 326.877 761.987 327.216 759.971 327.59L753.757 328.89C745.543 330.894 737.865 334.339 731.879 338.821C728.961 341.095 726.441 343.59 724.423 346.243C723.414 347.566 722.526 348.925 721.785 350.326C721.765 350.366 721.743 350.398 721.723 350.439C724.739 337.118 733.634 318.023 759.77 313.951C766.023 312.977 771.675 312.242 779.11 310.896C792.387 308.504 800.248 306.114 804.748 302.816C806.388 301.626 809.262 302.265 809.163 303.805C808.44 314.203 803.116 334.004 773.102 335.379C747.606 336.55 734.625 344.668 727.659 352.257C727.776 351.947 727.893 351.637 728.034 351.333Z" fill="#6078DF"/>
<path d="M712.687 351.333C712.17 350.097 711.522 348.873 710.752 347.678C709.224 345.28 707.224 342.983 704.841 340.853C699.938 336.668 693.355 333.221 685.826 330.997L680.057 329.504C678.049 329.029 676.025 328.6 674.02 328.088C670.006 327.117 666.035 326.049 662.165 324.774C658.318 323.501 654.525 322.017 651.368 320.024C648.15 318.064 645.914 315.593 644.061 313.107C646.17 315.522 648.631 317.866 651.926 319.616C655.159 321.4 658.946 322.676 662.809 323.742C666.685 324.81 670.672 325.686 674.69 326.465C676.691 326.877 678.735 327.216 680.751 327.59L686.964 328.89C695.178 330.894 702.857 334.339 708.842 338.821C711.761 341.095 714.28 343.59 716.298 346.243C717.308 347.566 718.195 348.925 718.936 350.326C718.957 350.366 718.978 350.398 718.998 350.439C715.982 337.118 707.087 318.023 680.951 313.951C674.699 312.977 669.046 312.242 661.611 310.896C648.334 308.504 640.473 306.114 635.973 302.816C634.334 301.626 631.46 302.265 631.558 303.805C632.281 314.203 637.606 334.004 667.62 335.379C693.115 336.55 706.097 344.668 713.063 352.257C712.946 351.947 712.829 351.637 712.687 351.333Z" fill="#6078DF"/>
<path d="M728.034 351.333C728.551 350.097 729.2 348.873 729.97 347.678C731.497 345.28 733.497 342.983 735.88 340.853C740.784 336.668 747.367 333.221 754.896 330.997L760.665 329.504C762.673 329.029 764.696 328.6 766.701 328.088C770.716 327.117 774.687 326.049 778.557 324.774C782.403 323.501 786.197 322.017 789.353 320.024C792.571 318.064 794.807 315.593 796.661 313.107C794.551 315.522 792.091 317.866 788.795 319.616C785.562 321.4 781.776 322.676 777.912 323.742C774.036 324.81 770.05 325.686 766.031 326.465C764.03 326.877 761.987 327.216 759.971 327.59L753.757 328.89C745.543 330.894 737.865 334.339 731.879 338.821C728.961 341.095 726.441 343.59 724.423 346.243C723.414 347.566 722.526 348.925 721.785 350.326C721.765 350.366 721.743 350.398 721.723 350.439C724.739 337.118 733.634 318.023 759.77 313.951C766.023 312.977 771.675 312.242 779.11 310.896C792.387 308.504 800.248 306.114 804.748 302.816C806.388 301.626 809.262 302.265 809.163 303.805C808.44 314.203 803.116 334.004 773.102 335.379C747.606 336.55 734.625 344.668 727.659 352.257C727.776 351.947 727.893 351.637 728.034 351.333Z" fill="#6078DF"/>
<path d="M712.687 351.333C712.17 350.097 711.522 348.873 710.752 347.678C709.224 345.28 707.224 342.983 704.841 340.853C699.938 336.668 693.355 333.221 685.826 330.997L680.057 329.504C678.049 329.029 676.025 328.6 674.02 328.088C670.006 327.117 666.035 326.049 662.165 324.774C658.318 323.501 654.525 322.017 651.368 320.024C648.15 318.064 645.914 315.593 644.061 313.107C646.17 315.522 648.631 317.866 651.926 319.616C655.159 321.4 658.946 322.676 662.809 323.742C666.685 324.81 670.672 325.686 674.69 326.465C676.691 326.877 678.735 327.216 680.751 327.59L686.964 328.89C695.178 330.894 702.857 334.339 708.842 338.821C711.761 341.095 714.28 343.59 716.298 346.243C717.308 347.566 718.195 348.925 718.936 350.326C718.957 350.366 718.978 350.398 718.998 350.439C715.982 337.118 707.087 318.023 680.951 313.951C674.699 312.977 669.046 312.242 661.611 310.896C648.334 308.504 640.473 306.114 635.973 302.816C634.334 301.626 631.46 302.265 631.558 303.805C632.281 314.203 637.606 334.004 667.62 335.379C693.115 336.55 706.097 344.668 713.063 352.257C712.946 351.947 712.829 351.637 712.687 351.333Z" fill="#6078DF"/>
<path d="M1442.01 583.099L878.975 490.033L761.182 535.72L641.741 524.713L581.911 488.752L571.657 498.553L606.296 522.217L524.565 483.467L489.377 439.552L475.567 449.067L538.774 523.179L566.162 536.033L504.976 531.061L507.882 545.177L618.499 540.981L700.877 542.2L789.561 572.551L876.855 548.066L859.831 573.258L882.024 579.656L917.845 541.681L1446.46 683L1442.01 583.099Z" fill="#11121D"/>
<mask id="mask0_1335_6136" style="mask-type:luminance" maskUnits="userSpaceOnUse" x="475" y="439" width="975" height="244">
<path d="M1442.51 583L878.975 490.033L761.182 535.72L641.741 524.713L581.911 488.752L571.657 498.553L606.296 522.217L524.565 483.467L489.377 439.552L475.567 449.067L538.774 523.179L566.162 536.033L504.976 531.06L507.882 545.177L618.499 540.981L700.877 542.199L789.061 572.546L876.855 548.066L859.831 573.258L882.024 579.656L918 542.199L1449.5 683L1442.51 583Z" fill="white"/>
</mask>
<g mask="url(#mask0_1335_6136)">
<path d="M1471.83 685.5C1457.73 643.181 1435 600.602 1404.15 558.722C1401.9 555.653 1399.49 552.489 1395.39 549.804C1390.67 546.716 1384.23 544.539 1377.94 542.457C1359.56 536.339 1341.19 530.22 1322.81 524.101C1342.16 571.436 1361.55 618.779 1380.89 666.137C1364.64 619.892 1345.92 570.796 1285.94 530.472C1271.62 531.428 1254.74 528.113 1242.45 521.948C1269.12 570.733 1292.21 619.634 1311.6 668.497C1284.21 615.84 1240.38 563.557 1182.56 514.611C1170.79 519.147 1153.73 520.201 1137.18 517.402C1143.34 569.591 1149.47 622.004 1140.48 672.203C1123.55 619.834 1098.7 567.186 1066.23 514.927C1061.41 520.112 1044.55 519.956 1035.4 514.635C1024.91 565.435 1016.48 616.602 1010.17 668.098C994.711 622.468 979.272 576.703 974.915 531.814C973.972 522.147 972.134 510.95 956.863 503.552C936.465 554.086 857.592 589.253 850.716 642.359C847.542 598.795 848.088 555.62 852.329 512.99C853.207 504.133 854.107 494.888 846.984 485.806C839.82 476.716 821.832 468.014 805.069 468.564L752.815 620.871C739.613 576.998 742.454 533.836 761.083 494.452C766.654 482.691 773.518 470.316 764.971 457.267C752.82 438.782 705.817 425.277 677.845 432.874C661.938 491.178 646.032 549.483 630.083 607.78C618.441 555.808 644.87 508.395 648.535 457.979C649.404 445.85 643.917 429.487 620.499 424.027C554.811 455.354 564.495 515.013 532.033 560.087C519.943 510.804 586.176 472.36 571.134 422.931C567.721 411.748 561.287 398.267 576.063 392.274C581.72 389.968 589.607 389.346 597.26 388.846C753.555 378.622 924.762 399.431 1087.4 433.413C1193.73 455.634 1352.91 485.565 1403.8 548.6C1420.02 568.683 1431.14 589.529 1443.49 609.867C1459.83 636.692 1463.15 659.419 1471.83 685.5Z" fill="#1A1B30"/>
<g style="mix-blend-mode:multiply" opacity="0.24">
<path d="M709.468 525.329C721.107 525.802 732.951 525.714 744.306 524.197C759.561 522.146 773.356 517.571 788.402 515.106C835.198 507.498 883.32 521.307 931.302 525.785C993.621 531.617 1127.5 573 1197.61 587.5C1221.5 591.5 1247.53 601.144 1280 607.72C1301.7 612.115 1326 619.5 1363.5 619.5C1406 617 1422.12 617.988 1460 607.72C1472.28 604.395 1457.34 590.874 1466.45 596.5C1471.19 599.426 1471.69 603.758 1471.64 607.72C1471.4 634.846 1500.79 671.108 1475.5 694.351C1431.42 734.838 1311.29 752.768 1229.64 765.905C1147.99 779.042 1036.88 634.017 952.259 630.409C867.642 626.801 783.632 619.354 698.848 617.24C657.337 616.2 615.036 616.366 575.469 609.408C523.428 600.218 479.142 578.368 456.588 550.71C439.55 529.769 435.105 505.751 443.408 483.197C451.813 460.394 468.258 444.776 505.384 463.543C564.205 493.299 626.337 522.005 709.503 525.308L709.468 525.329Z" fill="#11121D"/>
</g>
</g>
<path d="M757.787 523.626C759.63 528.366 761.123 539.432 764.984 538.376C766.122 538.068 766.045 535.541 764.064 529.311C761.658 521.724 758.712 513.286 753.424 513.913C749.418 514.428 746.825 521.74 745.294 528.714C743.774 535.689 743.216 537.161 746.446 537.503C749.698 537.847 749.552 530.078 751.372 524.574C751.867 530.416 750.93 540.766 756.028 540.454C758.502 540.303 759.089 530.78 757.774 523.648" fill="#F4AA5A"/>
<path d="M703.503 521.838C704.463 526.841 703.956 537.998 707.937 537.641C709.113 537.542 709.479 535.044 708.654 528.565C707.649 520.671 706.25 511.837 700.937 511.499C696.894 511.289 693.039 518.015 690.295 524.603C687.552 531.191 686.731 532.536 689.851 533.452C692.994 534.37 694.234 526.705 697.012 521.61C696.455 527.447 693.684 537.458 698.754 538.071C701.222 538.366 703.501 529.101 703.49 521.848" fill="#F4AA5A"/>
<defs>
<filter id="filter0_f_1335_6136" x="-112.791" y="-415.791" width="1665.18" height="1665.18" filterUnits="userSpaceOnUse" color-interpolation-filters="sRGB">
<feFlood flood-opacity="0" result="BackgroundImageFix"/>
<feBlend mode="normal" in="SourceGraphic" in2="BackgroundImageFix" result="shape"/>
<feGaussianBlur stdDeviation="204.545" result="effect1_foregroundBlur_1335_6136"/>
</filter>
<filter id="filter1_i_1335_6136" x="544" y="241" width="353" height="353" filterUnits="userSpaceOnUse" color-interpolation-filters="sRGB">
<feFlood flood-opacity="0" result="BackgroundImageFix"/>
<feBlend mode="normal" in="SourceGraphic" in2="BackgroundImageFix" result="shape"/>
<feColorMatrix in="SourceAlpha" type="matrix" values="0 0 0 0 0 0 0 0 0 0 0 0 0 0 0 0 0 0 127 0" result="hardAlpha"/>
<feOffset dx="-14" dy="-50"/>
<feComposite in2="hardAlpha" operator="arithmetic" k2="-1" k3="1"/>
<feColorMatrix type="matrix" values="0 0 0 0 0.8 0 0 0 0 0.847059 0 0 0 0 0.94902 0 0 0 1 0"/>
<feBlend mode="normal" in2="shape" result="effect1_innerShadow_1335_6136"/>
</filter>
<filter id="filter2_i_1335_6136" x="571.596" y="342.186" width="91.9871" height="91.9869" filterUnits="userSpaceOnUse" color-interpolation-filters="sRGB">
<feFlood flood-opacity="0" result="BackgroundImageFix"/>
<feBlend mode="normal" in="SourceGraphic" in2="BackgroundImageFix" result="shape"/>
<feColorMatrix in="SourceAlpha" type="matrix" values="0 0 0 0 0 0 0 0 0 0 0 0 0 0 0 0 0 0 127 0" result="hardAlpha"/>
<feOffset dx="5" dy="1"/>
<feComposite in2="hardAlpha" operator="arithmetic" k2="-1" k3="1"/>
<feColorMatrix type="matrix" values="0 0 0 0 0.686275 0 0 0 0 0.733333 0 0 0 0 0.835294 0 0 0 1 0"/>
<feBlend mode="normal" in2="shape" result="effect1_innerShadow_1335_6136"/>
</filter>
<filter id="filter3_i_1335_6136" x="679.945" y="264.261" width="46.4312" height="46.4313" filterUnits="userSpaceOnUse" color-interpolation-filters="sRGB">
<feFlood flood-opacity="0" result="BackgroundImageFix"/>
<feBlend mode="normal" in="SourceGraphic" in2="BackgroundImageFix" result="shape"/>
<feColorMatrix in="SourceAlpha" type="matrix" values="0 0 0 0 0 0 0 0 0 0 0 0 0 0 0 0 0 0 127 0" result="hardAlpha"/>
<feOffset dx="2" dy="2"/>
<feComposite in2="hardAlpha" operator="arithmetic" k2="-1" k3="1"/>
<feColorMatrix type="matrix" values="0 0 0 0 0.686667 0 0 0 0 0.733836 0 0 0 0 0.836035 0 0 0 1 0"/>
<feBlend mode="normal" in2="shape" result="effect1_innerShadow_1335_6136"/>
</filter>
<filter id="filter4_i_1335_6136" x="699.265" y="482.503" width="63.1554" height="63.1554" filterUnits="userSpaceOnUse" color-interpolation-filters="sRGB">
<feFlood flood-opacity="0" result="BackgroundImageFix"/>
<feBlend mode="normal" in="SourceGraphic" in2="BackgroundImageFix" result="shape"/>
<feColorMatrix in="SourceAlpha" type="matrix" values="0 0 0 0 0 0 0 0 0 0 0 0 0 0 0 0 0 0 127 0" result="hardAlpha"/>
<feOffset dx="2" dy="2"/>
<feComposite in2="hardAlpha" operator="arithmetic" k2="-1" k3="1"/>
<feColorMatrix type="matrix" values="0 0 0 0 0.686667 0 0 0 0 0.733836 0 0 0 0 0.836035 0 0 0 1 0"/>
<feBlend mode="normal" in2="shape" result="effect1_innerShadow_1335_6136"/>
</filter>
<filter id="filter5_i_1335_6136" x="758.736" y="455.736" width="36.5112" height="36.5112" filterUnits="userSpaceOnUse" color-interpolation-filters="sRGB">
<feFlood flood-opacity="0" result="BackgroundImageFix"/>
<feBlend mode="normal" in="SourceGraphic" in2="BackgroundImageFix" result="shape"/>
<feColorMatrix in="SourceAlpha" type="matrix" values="0 0 0 0 0 0 0 0 0 0 0 0 0 0 0 0 0 0 127 0" result="hardAlpha"/>
<feOffset dx="1" dy="2"/>
<feComposite in2="hardAlpha" operator="arithmetic" k2="-1" k3="1"/>
<feColorMatrix type="matrix" values="0 0 0 0 0.686275 0 0 0 0 0.733333 0 0 0 0 0.835294 0 0 0 1 0"/>
<feBlend mode="normal" in2="shape" result="effect1_innerShadow_1335_6136"/>
</filter>
<filter id="filter6_i_1335_6136" x="794.507" y="302.934" width="38.7991" height="38.7991" filterUnits="userSpaceOnUse" color-interpolation-filters="sRGB">
<feFlood flood-opacity="0" result="BackgroundImageFix"/>
<feBlend mode="normal" in="SourceGraphic" in2="BackgroundImageFix" result="shape"/>
<feColorMatrix in="SourceAlpha" type="matrix" values="0 0 0 0 0 0 0 0 0 0 0 0 0 0 0 0 0 0 127 0" result="hardAlpha"/>
<feOffset dx="2" dy="2"/>
<feComposite in2="hardAlpha" operator="arithmetic" k2="-1" k3="1"/>
<feColorMatrix type="matrix" values="0 0 0 0 0.686667 0 0 0 0 0.733836 0 0 0 0 0.836035 0 0 0 1 0"/>
<feBlend mode="normal" in2="shape" result="effect1_innerShadow_1335_6136"/>
</filter>
<filter id="filter7_i_1335_6136" x="856.758" y="381.283" width="20.8753" height="20.8752" filterUnits="userSpaceOnUse" color-interpolation-filters="sRGB">
<feFlood flood-opacity="0" result="BackgroundImageFix"/>
<feBlend mode="normal" in="SourceGraphic" in2="BackgroundImageFix" result="shape"/>
<feColorMatrix in="SourceAlpha" type="matrix" values="0 0 0 0 0 0 0 0 0 0 0 0 0 0 0 0 0 0 127 0" result="hardAlpha"/>
<feOffset dx="1" dy="1"/>
<feComposite in2="hardAlpha" operator="arithmetic" k2="-1" k3="1"/>
<feColorMatrix type="matrix" values="0 0 0 0 0.686275 0 0 0 0 0.733333 0 0 0 0 0.835294 0 0 0 1 0"/>
<feBlend mode="normal" in2="shape" result="effect1_innerShadow_1335_6136"/>
</filter>
<filter id="filter8_i_1335_6136" x="727.977" y="258.25" width="20.8752" height="20.8752" filterUnits="userSpaceOnUse" color-interpolation-filters="sRGB">
<feFlood flood-opacity="0" result="BackgroundImageFix"/>
<feBlend mode="normal" in="SourceGraphic" in2="BackgroundImageFix" result="shape"/>
<feColorMatrix in="SourceAlpha" type="matrix" values="0 0 0 0 0 0 0 0 0 0 0 0 0 0 0 0 0 0 127 0" result="hardAlpha"/>
<feOffset dx="1" dy="1"/>
<feComposite in2="hardAlpha" operator="arithmetic" k2="-1" k3="1"/>
<feColorMatrix type="matrix" values="0 0 0 0 0.686275 0 0 0 0 0.733333 0 0 0 0 0.835294 0 0 0 1 0"/>
<feBlend mode="normal" in2="shape" result="effect1_innerShadow_1335_6136"/>
</filter>
<filter id="filter9_i_1335_6136" x="550.902" y="407.729" width="20.8752" height="20.8752" filterUnits="userSpaceOnUse" color-interpolation-filters="sRGB">
<feFlood flood-opacity="0" result="BackgroundImageFix"/>
<feBlend mode="normal" in="SourceGraphic" in2="BackgroundImageFix" result="shape"/>
<feColorMatrix in="SourceAlpha" type="matrix" values="0 0 0 0 0 0 0 0 0 0 0 0 0 0 0 0 0 0 127 0" result="hardAlpha"/>
<feOffset dx="1" dy="1"/>
<feComposite in2="hardAlpha" operator="arithmetic" k2="-1" k3="1"/>
<feColorMatrix type="matrix" values="0 0 0 0 0.686275 0 0 0 0 0.733333 0 0 0 0 0.835294 0 0 0 1 0"/>
<feBlend mode="normal" in2="shape" result="effect1_innerShadow_1335_6136"/>
</filter>
<filter id="filter10_i_1335_6136" x="648.368" y="505.196" width="36.8195" height="36.8193" filterUnits="userSpaceOnUse" color-interpolation-filters="sRGB">
<feFlood flood-opacity="0" result="BackgroundImageFix"/>
<feBlend mode="normal" in="SourceGraphic" in2="BackgroundImageFix" result="shape"/>
<feColorMatrix in="SourceAlpha" type="matrix" values="0 0 0 0 0 0 0 0 0 0 0 0 0 0 0 0 0 0 127 0" result="hardAlpha"/>
<feOffset dx="1" dy="1"/>
<feComposite in2="hardAlpha" operator="arithmetic" k2="-1" k3="1"/>
<feColorMatrix type="matrix" values="0 0 0 0 0.686275 0 0 0 0 0.733333 0 0 0 0 0.835294 0 0 0 1 0"/>
<feBlend mode="normal" in2="shape" result="effect1_innerShadow_1335_6136"/>
</filter>
<filter id="filter11_i_1335_6136" x="784.355" y="543.447" width="21.5389" height="21.5391" filterUnits="userSpaceOnUse" color-interpolation-filters="sRGB">
<feFlood flood-opacity="0" result="BackgroundImageFix"/>
<feBlend mode="normal" in="SourceGraphic" in2="BackgroundImageFix" result="shape"/>
<feColorMatrix in="SourceAlpha" type="matrix" values="0 0 0 0 0 0 0 0 0 0 0 0 0 0 0 0 0 0 127 0" result="hardAlpha"/>
<feOffset dx="1" dy="1"/>
<feComposite in2="hardAlpha" operator="arithmetic" k2="-1" k3="1"/>
<feColorMatrix type="matrix" values="0 0 0 0 0.686275 0 0 0 0 0.733333 0 0 0 0 0.835294 0 0 0 1 0"/>
<feBlend mode="normal" in2="shape" result="effect1_innerShadow_1335_6136"/>
</filter>
<filter id="filter12_i_1335_6136" x="770.031" y="500.377" width="12.0137" height="12.0137" filterUnits="userSpaceOnUse" color-interpolation-filters="sRGB">
<feFlood flood-opacity="0" result="BackgroundImageFix"/>
<feBlend mode="normal" in="SourceGraphic" in2="BackgroundImageFix" result="shape"/>
<feColorMatrix in="SourceAlpha" type="matrix" values="0 0 0 0 0 0 0 0 0 0 0 0 0 0 0 0 0 0 127 0" result="hardAlpha"/>
<feOffset dx="1"/>
<feComposite in2="hardAlpha" operator="arithmetic" k2="-1" k3="1"/>
<feColorMatrix type="matrix" values="0 0 0 0 0 0 0 0 0 0 0 0 0 0 0 0 0 0 0.25 0"/>
<feBlend mode="normal" in2="shape" result="effect1_innerShadow_1335_6136"/>
</filter>
<filter id="filter13_i_1335_6136" x="617.103" y="325.601" width="12.0137" height="12.0137" filterUnits="userSpaceOnUse" color-interpolation-filters="sRGB">
<feFlood flood-opacity="0" result="BackgroundImageFix"/>
<feBlend mode="normal" in="SourceGraphic" in2="BackgroundImageFix" result="shape"/>
<feColorMatrix in="SourceAlpha" type="matrix" values="0 0 0 0 0 0 0 0 0 0 0 0 0 0 0 0 0 0 127 0" result="hardAlpha"/>
<feOffset dx="1"/>
<feComposite in2="hardAlpha" operator="arithmetic" k2="-1" k3="1"/>
<feColorMatrix type="matrix" values="0 0 0 0 0.686275 0 0 0 0 0.733333 0 0 0 0 0.835294 0 0 0 1 0"/>
<feBlend mode="normal" in2="shape" result="effect1_innerShadow_1335_6136"/>
</filter>
<filter id="filter14_i_1335_6136" x="656.112" y="334.985" width="59.9615" height="60.0039" filterUnits="userSpaceOnUse" color-interpolation-filters="sRGB">
<feFlood flood-opacity="0" result="BackgroundImageFix"/>
<feBlend mode="normal" in="SourceGraphic" in2="BackgroundImageFix" result="shape"/>
<feColorMatrix in="SourceAlpha" type="matrix" values="0 0 0 0 0 0 0 0 0 0 0 0 0 0 0 0 0 0 127 0" result="hardAlpha"/>
<feOffset dx="3.40191" dy="-3.40191"/>
<feComposite in2="hardAlpha" operator="arithmetic" k2="-1" k3="1"/>
<feColorMatrix type="matrix" values="0 0 0 0 0.85098 0 0 0 0 0.898039 0 0 0 0 1 0 0 0 1 0"/>
<feBlend mode="normal" in2="shape" result="effect1_innerShadow_1335_6136"/>
</filter>
<filter id="filter15_i_1335_6136" x="724.73" y="334.989" width="59.9602" height="60.0027" filterUnits="userSpaceOnUse" color-interpolation-filters="sRGB">
<feFlood flood-opacity="0" result="BackgroundImageFix"/>
<feBlend mode="normal" in="SourceGraphic" in2="BackgroundImageFix" result="shape"/>
<feColorMatrix in="SourceAlpha" type="matrix" values="0 0 0 0 0 0 0 0 0 0 0 0 0 0 0 0 0 0 127 0" result="hardAlpha"/>
<feOffset dx="-3.40191" dy="-3.40191"/>
<feComposite in2="hardAlpha" operator="arithmetic" k2="-1" k3="1"/>
<feColorMatrix type="matrix" values="0 0 0 0 0.85098 0 0 0 0 0.898039 0 0 0 0 1 0 0 0 1 0"/>
<feBlend mode="normal" in2="shape" result="effect1_innerShadow_1335_6136"/>
</filter>
<filter id="filter16_i_1335_6136" x="706.361" y="383.923" width="28.1748" height="37.4513" filterUnits="userSpaceOnUse" color-interpolation-filters="sRGB">
<feFlood flood-opacity="0" result="BackgroundImageFix"/>
<feBlend mode="normal" in="SourceGraphic" in2="BackgroundImageFix" result="shape"/>
<feColorMatrix in="SourceAlpha" type="matrix" values="0 0 0 0 0 0 0 0 0 0 0 0 0 0 0 0 0 0 127 0" result="hardAlpha"/>
<feOffset dy="-9"/>
<feComposite in2="hardAlpha" operator="arithmetic" k2="-1" k3="1"/>
<feColorMatrix type="matrix" values="0 0 0 0 0.361994 0 0 0 0 0.45073 0 0 0 0 0.831559 0 0 0 1 0"/>
<feBlend mode="normal" in2="shape" result="effect1_innerShadow_1335_6136"/>
</filter>
<radialGradient id="paint0_radial_1335_6136" cx="0" cy="0" r="1" gradientUnits="userSpaceOnUse" gradientTransform="translate(720 417) rotate(-84.0278) scale(610.312 369.86)">
<stop stop-color="white" stop-opacity="0.93"/>
<stop offset="0.250637" stop-color="#D0C9FA" stop-opacity="0.770383"/>
<stop offset="0.369792" stop-color="#654DFD" stop-opacity="0.770383"/>
<stop offset="0.493846" stop-color="#2400FF" stop-opacity="0.770383"/>
<stop offset="0.71875" stop-color="#0C0054" stop-opacity="0.877197"/>
<stop offset="0.885417" stop-color="#02000F"/>
</radialGradient>
</defs>
</svg>
