<svg width="70" height="70" viewBox="0 0 70 70" fill="none" xmlns="http://www.w3.org/2000/svg">
<g clip-path="url(#clip0_1072_6081)">
<rect width="70" height="70" rx="35" fill="white"/>
<path d="M55.2192 44.6138C56.8493 55.2257 60.3042 65.5546 55.9196 75.9685C53.1367 82.2036 49.0285 87.1432 42.2693 88.1808C42.197 91.3754 45.5704 98.7235 42.6179 101.424C39.0185 104.789 37.4323 93.2337 36.9109 91.0672C36.8261 92.9538 38.2741 101.157 35.419 100.849C33.1136 100.456 31.5526 93.9537 31.6091 91.8848C31.8352 93.3468 33.3649 102.104 29.7937 100.78C26.9826 99.5253 26.97 90.9132 27.4883 88.2122C14.5698 85.7063 12.6884 66.1426 14.0673 55.6313C14.7143 50.1006 16.9223 41.3343 21.4075 37.6461C26.0749 33.9327 37.9977 31.1595 43.7172 33.0901C49.4368 35.0175 52.3484 40.564 55.3259 45.3496" fill="#A1BFFF"/>
<path d="M55.2192 44.6138C56.8493 55.2257 60.3042 65.5546 55.9196 75.9685C53.1367 82.2036 49.0285 87.1432 42.2693 88.1808C42.197 91.3754 45.5704 98.7235 42.6179 101.424C39.0185 104.789 37.4323 93.2337 36.9109 91.0672C36.8261 92.9538 38.2741 101.157 35.419 100.849C33.1136 100.456 31.5526 93.9537 31.6091 91.8848C31.8352 93.3468 33.3649 102.104 29.7937 100.78C26.9826 99.5253 26.97 90.9132 27.4883 88.2122C14.5698 85.7063 12.6884 66.1426 14.0673 55.6313C14.7143 50.1006 16.9223 41.3343 21.4075 37.6461C26.0749 33.9327 37.9977 31.1595 43.7172 33.0901C49.4368 35.0175 52.3484 40.564 55.3259 45.3496" fill="#6078DF" fill-opacity="0.5"/>
<path d="M15.9932 37.2908C11.9917 42.9002 10.1637 52.921 10.4621 59.7409C10.6851 62.8286 11.2378 65.6144 12.4377 68.5511C12.8114 69.3687 13.8793 73.0726 15.1168 73.0066C16.86 72.9877 19.8502 65.6616 20.271 64.3473C23.0821 56.6721 24.0024 48.0411 22.6644 40.1332C22.1022 36.4733 18.5781 33.0209 15.9932 37.2877" fill="#6078DF"/>
<path d="M58.1563 43.0385C60.5245 49.5409 61.2375 55.798 60.0376 62.599C59.1927 66.8501 57.0475 73.1732 53.1497 67.2808C50.7218 63.6586 49.7858 59.1843 49.1293 54.9144C48.7179 52.2292 47.6123 48.28 48.8215 45.5979C50.0308 42.9127 55.9639 40.1301 58.1563 43.0385Z" fill="#6078DF"/>
<path d="M44.3676 56.0118C43.1018 56.3922 41.7041 59.4044 42.8254 59.9295C43.7991 60.3855 44.2043 58.1876 44.3802 57.2412C44.666 58.0147 46.1642 59.9264 46.4217 58.2442C46.5694 57.2192 45.2816 56.1124 44.3645 56.0118" fill="#E9F0FF"/>
<path d="M28.9488 61.0709C30.2711 61.0552 32.5074 63.5046 31.5934 64.3441C30.7988 65.0704 29.756 63.0958 29.3037 62.2469C29.2629 63.0707 28.4054 65.344 27.6579 63.819C27.2088 62.8883 28.1071 61.4451 28.9488 61.074" fill="#E9F0FF"/>
<path d="M40.5169 57.1909C38.9998 57.5179 38.6606 60.7062 40.1211 60.0207C40.7996 59.6403 40.9472 57.5871 40.5169 57.1909Z" fill="#E9F0FF"/>
<path d="M33.9172 57.6499C32.6357 58.524 33.5214 61.6086 34.6176 60.42C35.1013 59.8101 34.4637 57.8543 33.9172 57.6499Z" fill="#E9F0FF"/>
<path d="M33.9143 66.7652C32.6328 67.6393 33.5185 70.7238 34.6147 69.5353C35.0984 68.9253 34.4608 66.9696 33.9143 66.7652Z" fill="#E9F0FF"/>
<path d="M37.1429 63.0046C36.1756 64.2215 37.9376 66.9035 38.6317 65.4414C38.9144 64.7151 37.7272 63.0361 37.1429 63.0046Z" fill="#E9F0FF"/>
<path d="M26.8726 55.8986C25.4404 56.496 25.6854 59.6937 26.9983 58.7536C27.5982 58.2536 27.3658 56.2099 26.8726 55.8986Z" fill="#E9F0FF"/>
<path d="M43.6265 62.2469C42.1943 62.8443 42.4393 66.042 43.7522 65.1019C44.3521 64.6019 44.1197 62.5581 43.6265 62.2469Z" fill="#E9F0FF"/>
<path d="M18.4497 20.5421L12.1885 16.3581L35.4239 20.5421H18.4497Z" fill="#A1BFFF"/>
<path d="M35.4238 20.5421L52.407 16.5063L58.4838 17.1785L52.407 20.5421H35.4238Z" fill="#A1BFFF"/>
<path fill-rule="evenodd" clip-rule="evenodd" d="M18.4498 20.5421H52.4072L52.3983 20.5511C58.7614 25.5734 62.8481 33.349 62.8481 42.0933C62.8481 45.8683 61.8383 47.7628 60.1494 48.4795C57.6561 49.8466 50.1341 47.4865 48.8151 46.21C48.6883 46.6333 48.6234 47.206 48.5526 47.8312C48.3415 49.6954 48.0775 52.0255 45.9633 52.2494C43.7989 52.4708 42.1295 50.0483 40.9684 48.3635C40.6812 47.9468 40.4251 47.5751 40.2003 47.2998C39.4188 51.0519 38.0906 53.4795 35.1605 53.2772C32.2304 53.0749 31.403 48.7459 31.1756 47.2998C30.5689 50.1735 28.4627 53.9279 24.1514 51.9441C21.4513 50.6022 21.0461 48.4572 21.3836 46.2823C14.0973 49.2913 8 51.3694 8 42.0933C8 33.349 12.0867 25.5734 18.4498 20.5421Z" fill="#A1BFFF"/>
<g filter="url(#filter0_i_1072_6081)">
<path d="M31.2445 36.7013C34.7439 33.7701 35.2063 28.555 32.2772 25.053C29.348 21.5511 24.1366 21.0884 20.6371 24.0196C17.1377 26.9508 16.6753 32.1659 19.6044 35.6678C22.5336 39.1698 27.745 39.6325 31.2445 36.7013Z" fill="white"/>
</g>
<g filter="url(#filter1_i_1072_6081)">
<path d="M50.6956 36.2083C53.9225 32.9791 53.9225 27.7435 50.6956 24.5143C47.4687 21.2851 42.2368 21.2851 39.0099 24.5143C35.7829 27.7435 35.7829 32.9791 39.0099 36.2083C42.2368 39.4375 47.4687 39.4375 50.6956 36.2083Z" fill="white"/>
</g>
<circle cx="41.7241" cy="30.3053" r="3.1645" fill="#6078DF"/>
<circle cx="3.1645" cy="3.1645" r="3.1645" transform="matrix(-1 0 0 1 32.2305 27.1407)" fill="#6078DF"/>
<circle cx="41.724" cy="30.3052" r="2.46128" fill="#040A17"/>
<circle cx="2.46128" cy="2.46128" r="2.46128" transform="matrix(-1 0 0 1 31.5273 27.8439)" fill="#040A17"/>
<circle cx="42.4269" cy="28.8988" r="0.820427" fill="#ECECEC"/>
<circle cx="0.820427" cy="0.820427" r="0.820427" transform="matrix(-1 0 0 1 29.1826 28.0783)" fill="#ECECEC"/>
<circle cx="43.4815" cy="29.9536" r="0.468815" fill="#AAAAAA"/>
<circle cx="0.468815" cy="0.468815" r="0.468815" transform="matrix(-1 0 0 1 27.7764 29.4848)" fill="#AAAAAA"/>
<g filter="url(#filter2_i_1072_6081)">
<path d="M35.8332 45.6858C35.6246 45.9737 35.1956 45.9737 34.987 45.6858L31.6267 41.0471C31.4942 40.8642 31.4942 40.617 31.6267 40.4341L34.987 35.7954C35.1956 35.5075 35.6246 35.5075 35.8332 35.7954L39.1935 40.4341C39.326 40.617 39.326 40.8642 39.1935 41.0471L35.8332 45.6858Z" fill="#6078DF"/>
</g>
<path d="M37.5013 26.597C37.6437 26.2564 37.8225 25.9191 38.0347 25.5896C38.4558 24.9289 39.007 24.2956 39.6638 23.7087C41.0152 22.5552 42.8296 21.6052 44.9048 20.9921L46.4948 20.5805C47.0482 20.4498 47.606 20.3315 48.1586 20.1903C49.2651 19.9226 50.3595 19.6284 51.4262 19.277C52.4864 18.9262 53.5319 18.5172 54.4018 17.9678C55.2889 17.4277 55.9051 16.7466 56.4159 16.0614C55.8345 16.7269 55.1564 17.3729 54.2482 17.8554C53.3571 18.3471 52.3134 18.6987 51.2485 18.9926C50.1803 19.2868 49.0815 19.5284 47.974 19.7431C47.4224 19.8566 46.8592 19.9499 46.3035 20.0532L44.591 20.4113C42.327 20.9636 40.2107 21.9131 38.561 23.1486C37.7566 23.7753 37.0622 24.4629 36.5059 25.1942C36.2277 25.5588 35.9831 25.9334 35.7789 26.3195C35.7732 26.3305 35.7674 26.3395 35.7618 26.3506C36.5931 22.6793 39.0446 17.4163 46.2483 16.294C47.9716 16.0255 49.5295 15.823 51.5788 15.4519C55.2381 14.7926 57.4047 14.1338 58.6451 13.2249C59.0969 12.8969 59.8891 13.0732 59.8619 13.4976C59.6627 16.3634 58.1951 21.8208 49.9227 22.1999C42.8957 22.5226 39.3177 24.76 37.3977 26.8517C37.43 26.7663 37.4623 26.6808 37.5013 26.597Z" fill="#6078DF"/>
<path d="M33.2712 26.597C33.1288 26.2564 32.95 25.9191 32.7377 25.5896C32.3167 24.9289 31.7655 24.2956 31.1086 23.7087C29.7573 22.5552 27.9429 21.6052 25.8676 20.9921L24.2777 20.5805C23.7242 20.4498 23.1664 20.3315 22.6138 20.1903C21.5074 19.9226 20.413 19.6284 19.3463 19.277C18.2861 18.9262 17.2405 18.5172 16.3706 17.9678C15.4836 17.4277 14.8674 16.7466 14.3565 16.0614C14.9379 16.7269 15.6161 17.3729 16.5243 17.8554C17.4154 18.3471 18.4591 18.6987 19.524 18.9926C20.5922 19.2868 21.6909 19.5284 22.7985 19.7431C23.3501 19.8566 23.9132 19.9499 24.469 20.0532L26.1815 20.4113C28.4454 20.9636 30.5617 21.9131 32.2114 23.1486C33.0159 23.7753 33.7103 24.4629 34.2665 25.1942C34.5447 25.5588 34.7893 25.9334 34.9936 26.3195C34.9992 26.3305 35.0051 26.3395 35.0107 26.3506C34.1794 22.6793 31.7278 17.4163 24.5242 16.294C22.8009 16.0255 21.243 15.823 19.1937 15.4519C15.5344 14.7926 13.3678 14.1338 12.1274 13.2249C11.6755 12.8969 10.8834 13.0732 10.9106 13.4976C11.1098 16.3634 12.5774 21.8208 20.8497 22.1999C27.8768 22.5226 31.4547 24.76 33.3748 26.8517C33.3425 26.7663 33.3102 26.6808 33.2712 26.597Z" fill="#6078DF"/>
</g>
<defs>
<filter id="filter0_i_1072_6081" x="17.6777" y="22.0913" width="16.5264" height="16.5382" filterUnits="userSpaceOnUse" color-interpolation-filters="sRGB">
<feFlood flood-opacity="0" result="BackgroundImageFix"/>
<feBlend mode="normal" in="SourceGraphic" in2="BackgroundImageFix" result="shape"/>
<feColorMatrix in="SourceAlpha" type="matrix" values="0 0 0 0 0 0 0 0 0 0 0 0 0 0 0 0 0 0 127 0" result="hardAlpha"/>
<feOffset dx="0.93763" dy="-0.93763"/>
<feComposite in2="hardAlpha" operator="arithmetic" k2="-1" k3="1"/>
<feColorMatrix type="matrix" values="0 0 0 0 0.85098 0 0 0 0 0.898039 0 0 0 0 1 0 0 0 1 0"/>
<feBlend mode="normal" in2="shape" result="effect1_innerShadow_1072_6081"/>
</filter>
<filter id="filter1_i_1072_6081" x="36.5898" y="22.0923" width="16.5264" height="16.5378" filterUnits="userSpaceOnUse" color-interpolation-filters="sRGB">
<feFlood flood-opacity="0" result="BackgroundImageFix"/>
<feBlend mode="normal" in="SourceGraphic" in2="BackgroundImageFix" result="shape"/>
<feColorMatrix in="SourceAlpha" type="matrix" values="0 0 0 0 0 0 0 0 0 0 0 0 0 0 0 0 0 0 127 0" result="hardAlpha"/>
<feOffset dx="-0.93763" dy="-0.93763"/>
<feComposite in2="hardAlpha" operator="arithmetic" k2="-1" k3="1"/>
<feColorMatrix type="matrix" values="0 0 0 0 0.85098 0 0 0 0 0.898039 0 0 0 0 1 0 0 0 1 0"/>
<feBlend mode="normal" in2="shape" result="effect1_innerShadow_1072_6081"/>
</filter>
<filter id="filter2_i_1072_6081" x="31.5273" y="35.5795" width="7.76562" height="10.3223" filterUnits="userSpaceOnUse" color-interpolation-filters="sRGB">
<feFlood flood-opacity="0" result="BackgroundImageFix"/>
<feBlend mode="normal" in="SourceGraphic" in2="BackgroundImageFix" result="shape"/>
<feColorMatrix in="SourceAlpha" type="matrix" values="0 0 0 0 0 0 0 0 0 0 0 0 0 0 0 0 0 0 127 0" result="hardAlpha"/>
<feOffset dy="-2.48057"/>
<feComposite in2="hardAlpha" operator="arithmetic" k2="-1" k3="1"/>
<feColorMatrix type="matrix" values="0 0 0 0 0.361994 0 0 0 0 0.45073 0 0 0 0 0.831559 0 0 0 1 0"/>
<feBlend mode="normal" in2="shape" result="effect1_innerShadow_1072_6081"/>
</filter>
<clipPath id="clip0_1072_6081">
<rect width="70" height="70" rx="35" fill="white"/>
</clipPath>
</defs>
</svg>
