<svg width="1226" height="901" viewBox="0 0 1226 901" fill="none" xmlns="http://www.w3.org/2000/svg">
<path d="M-216.82 434.5C-216.82 753.345 41.6548 1011.82 360.5 1011.82C679.345 1011.82 937.82 753.345 937.82 434.5C937.82 115.655 679.345 -142.82 360.5 -142.82C41.6548 -142.82 -216.82 115.655 -216.82 434.5Z" fill="white" fill-opacity="0.01"/>
<path d="M-334.857 434.5C-334.857 818.535 -23.535 1129.86 360.5 1129.86C744.535 1129.86 1055.86 818.535 1055.86 434.5C1055.86 50.465 744.535 -260.857 360.5 -260.857C-23.535 -260.857 -334.857 50.465 -334.857 434.5Z" fill="white" fill-opacity="0.01"/>
<path d="M-465 434.5C-465 890.411 -95.411 1260 360.5 1260C816.411 1260 1186 890.411 1186 434.5C1186 -21.4111 816.411 -391 360.5 -391C-95.411 -391 -465 -21.4111 -465 434.5Z" fill="white" fill-opacity="0.01"/>
<g style="mix-blend-mode:lighten" filter="url(#filter0_f_518_5545)">
<path d="M-94.2438 433.744C-94.2438 685.31 109.691 889.244 361.257 889.244C612.823 889.244 816.757 685.31 816.757 433.744C816.757 182.178 612.823 -21.7568 361.257 -21.7568C109.691 -21.7568 -94.2438 182.178 -94.2438 433.744Z" fill="url(#paint0_radial_518_5545)" fill-opacity="0.7"/>
</g>
<path d="M17.7396 433.743C17.7396 623.463 171.537 777.26 361.257 777.26C550.976 777.26 704.773 623.463 704.773 433.743C704.773 244.024 550.976 90.2266 361.257 90.2266C171.537 90.2266 17.7396 244.024 17.7396 433.743Z" fill="white" fill-opacity="0.01"/>
<path d="M-115.43 433.743C-115.43 697.01 97.99 910.43 361.257 910.43C624.523 910.43 837.943 697.01 837.943 433.743C837.943 170.477 624.523 -42.9431 361.257 -42.9431C97.99 -42.9431 -115.43 170.477 -115.43 433.743Z" fill="white" fill-opacity="0.01"/>
<g filter="url(#filter1_i_518_5545)">
<path d="M170.662 434.5C170.662 539.345 255.655 624.338 360.5 624.338C465.345 624.338 550.338 539.345 550.338 434.5C550.338 329.655 465.345 244.662 360.5 244.662C255.655 244.662 170.662 329.655 170.662 434.5Z" fill="#D9E5FF"/>
</g>
<g filter="url(#filter2_i_518_5545)">
<path d="M436.207 437.943C455.526 457.262 486.848 457.262 506.167 437.943C525.486 418.625 525.486 387.302 506.167 367.983C486.848 348.665 455.526 348.665 436.207 367.983C416.888 387.302 416.888 418.625 436.207 437.943Z" fill="#CCD8F2"/>
</g>
<g filter="url(#filter3_i_518_5545)">
<path d="M376.218 319.445C389.911 321.065 402.325 311.277 403.945 297.583C405.565 283.889 395.777 271.475 382.083 269.855C368.389 268.236 355.975 278.024 354.355 291.718C352.736 305.411 362.524 317.825 376.218 319.445Z" fill="#CCD8F2"/>
</g>
<g filter="url(#filter4_i_518_5545)">
<path d="M345.386 572.106C364.012 574.309 380.898 560.995 383.101 542.369C385.304 523.743 371.99 506.857 353.364 504.654C334.738 502.451 317.852 515.765 315.649 534.391C313.446 553.017 326.76 569.903 345.386 572.106Z" fill="#CCD8F2"/>
</g>
<g filter="url(#filter5_i_518_5545)">
<path d="M297.434 514.758C308.202 516.032 317.963 508.335 319.237 497.567C320.511 486.799 312.814 477.037 302.046 475.763C291.278 474.49 281.516 482.187 280.242 492.955C278.969 503.723 286.665 513.485 297.434 514.758Z" fill="#CCD8F2"/>
</g>
<g filter="url(#filter6_i_518_5545)">
<path d="M257.584 352.861C269.027 354.214 279.4 346.035 280.754 334.592C282.107 323.149 273.928 312.776 262.485 311.423C251.042 310.069 240.669 318.248 239.315 329.691C237.962 341.134 246.141 351.507 257.584 352.861Z" fill="#CCD8F2"/>
</g>
<g filter="url(#filter7_i_518_5545)">
<path d="M201.399 417.92C207.556 418.649 213.137 414.248 213.866 408.091C214.594 401.935 210.193 396.353 204.037 395.625C197.88 394.897 192.299 399.298 191.57 405.454C190.842 411.611 195.243 417.192 201.399 417.92Z" fill="#CCD8F2"/>
</g>
<g filter="url(#filter8_i_518_5545)">
<path d="M339.913 285.59C346.07 286.318 351.651 281.917 352.379 275.761C353.108 269.604 348.707 264.023 342.55 263.295C336.394 262.566 330.812 266.967 330.084 273.124C329.356 279.28 333.757 284.862 339.913 285.59Z" fill="#CCD8F2"/>
</g>
<g filter="url(#filter9_i_518_5545)">
<path d="M530.37 446.365C536.527 447.093 542.108 442.692 542.836 436.536C543.564 430.379 539.164 424.798 533.007 424.069C526.85 423.341 521.269 427.742 520.541 433.899C519.813 440.055 524.213 445.637 530.37 446.365Z" fill="#CCD8F2"/>
</g>
<g filter="url(#filter10_i_518_5545)">
<path d="M415.956 568.286C426.815 569.57 436.659 561.808 437.944 550.95C439.228 540.091 431.466 530.246 420.607 528.962C409.748 527.678 399.904 535.439 398.62 546.298C397.335 557.157 405.097 567.002 415.956 568.286Z" fill="#CCD8F2"/>
</g>
<g filter="url(#filter11_i_518_5545)">
<path d="M278.875 593.05C285.228 593.801 290.986 589.26 291.738 582.908C292.489 576.556 287.949 570.797 281.596 570.045C275.244 569.294 269.485 573.835 268.734 580.187C267.982 586.539 272.523 592.298 278.875 593.05Z" fill="#CCD8F2"/>
</g>
<g filter="url(#filter12_i_518_5545)">
<path d="M300.006 536.516C303.549 536.935 306.761 534.402 307.18 530.859C307.599 527.316 305.067 524.104 301.524 523.685C297.98 523.266 294.768 525.799 294.349 529.342C293.93 532.885 296.463 536.097 300.006 536.516Z" fill="#CCD8F2"/>
</g>
<g filter="url(#filter13_i_518_5545)">
<path d="M464.491 348.533C468.034 348.952 471.246 346.419 471.665 342.876C472.084 339.333 469.552 336.121 466.009 335.702C462.466 335.283 459.254 337.815 458.835 341.358C458.415 344.901 460.948 348.113 464.491 348.533Z" fill="#CCD8F2"/>
</g>
<path opacity="0.35" d="M389.578 187.162L392.02 195.147L383.673 194.969L391.808 196.846L387.48 203.987L393.174 197.88L397.194 205.198L394.752 197.213L403.1 197.391L394.964 195.514L399.292 188.374L393.598 194.48L389.578 187.162Z" fill="white"/>
<path opacity="0.05" d="M580.039 255.465L565.913 278.883L549.513 256.998L562.73 280.94L535.577 284.201L562.92 284.725L552.168 309.871L566.294 286.453L582.694 308.338L569.477 284.396L596.63 281.135L569.287 280.611L580.039 255.465Z" fill="white"/>
<path opacity="0.5" d="M628.439 376.953L621.873 380.058L620.684 372.737L620.191 380.101L613.347 377.337L619.42 381.596L613.765 386.154L620.331 383.049L621.52 390.37L622.013 383.006L628.856 385.77L622.784 381.511L628.439 376.953Z" fill="white"/>
<path opacity="0.2" d="M124.781 374.68L117.814 384.713L110.464 374.958L115.669 386.007L103.546 387.495L115.717 388.513L110.944 399.756L117.911 389.724L125.262 399.479L120.057 388.429L132.18 386.941L120.008 385.923L124.781 374.68Z" fill="white"/>
<path opacity="0.05" d="M253.229 217.221L233.679 227.666L231.339 205.625L230.61 227.778L210.352 218.784L229.172 230.492L211.254 243.539L230.804 233.095L233.144 255.135L233.873 232.983L254.131 241.976L235.311 230.268L253.229 217.221Z" fill="white"/>
<path opacity="0.5" d="M180.669 307.934L179.204 314.909L173.056 311.303L178.365 316.059L172.167 319.58L178.941 317.361L178.891 324.489L180.356 317.513L186.504 321.12L181.196 316.363L187.393 312.842L180.62 315.061L180.669 307.934Z" fill="white"/>
<path d="M283.25 433.641C276.889 475.053 263.406 515.36 280.517 555.999C291.377 580.33 307.409 599.607 333.786 603.656C334.068 616.122 320.904 644.798 332.425 655.338C346.472 668.467 352.661 623.374 354.696 614.92C355.027 622.282 349.377 654.295 360.518 653.092C369.515 651.559 375.607 626.184 375.386 618.11C374.503 623.816 368.534 657.988 382.47 652.822C393.44 647.927 393.489 614.319 391.467 603.779C441.88 593.999 449.222 517.654 443.841 476.635C441.316 455.052 432.699 420.843 415.196 406.45C396.983 391.959 350.455 381.137 328.135 388.671C305.815 396.192 294.453 417.837 282.834 436.512" fill="#A1BFFF"/>
<path d="M283.25 433.641C276.889 475.053 263.406 515.36 280.517 555.999C291.377 580.33 307.409 599.607 333.786 603.656C334.068 616.122 320.904 644.798 332.425 655.338C346.472 668.467 352.661 623.374 354.696 614.92C355.027 622.282 349.377 654.295 360.518 653.092C369.515 651.559 375.607 626.184 375.386 618.11C374.503 623.816 368.534 657.988 382.47 652.822C393.44 647.927 393.489 614.319 391.467 603.779C441.88 593.999 449.222 517.654 443.841 476.635C441.316 455.052 432.699 420.843 415.196 406.45C396.983 391.959 350.455 381.137 328.135 388.671C305.815 396.192 294.453 417.837 282.834 436.512" fill="#6078DF" fill-opacity="0.5"/>
<path d="M436.327 405.064C451.943 426.954 459.076 466.059 457.912 492.672C457.042 504.722 454.884 515.593 450.202 527.053C448.744 530.244 444.576 544.698 439.747 544.44C432.945 544.367 421.276 515.777 419.633 510.648C408.663 480.697 405.072 447.015 410.294 416.156C412.488 401.873 426.24 388.401 436.327 405.051" fill="#6078DF"/>
<path d="M271.79 427.493C262.548 452.868 259.766 477.285 264.448 503.826C267.745 520.415 276.117 545.09 291.328 522.096C300.802 507.961 304.455 490.5 307.017 473.837C308.622 463.359 312.937 447.947 308.218 437.481C303.499 427.002 280.345 416.143 271.79 427.493Z" fill="#6078DF"/>
<path d="M325.599 478.12C330.539 479.605 335.993 491.359 331.618 493.408C327.818 495.188 326.237 486.611 325.55 482.918C324.435 485.936 318.588 493.396 317.583 486.832C317.007 482.832 322.033 478.513 325.612 478.12" fill="#E9F0FF"/>
<path d="M385.769 497.863C380.609 497.801 371.882 507.36 375.448 510.636C378.549 513.47 382.619 505.765 384.384 502.452C384.543 505.666 387.889 514.538 390.806 508.587C392.559 504.955 389.054 499.323 385.769 497.875" fill="#E9F0FF"/>
<path d="M340.626 482.721C346.546 483.997 347.87 496.439 342.171 493.764C339.523 492.28 338.947 484.267 340.626 482.721Z" fill="#E9F0FF"/>
<path d="M366.378 484.513C371.379 487.924 367.923 499.961 363.645 495.323C361.757 492.943 364.246 485.31 366.378 484.513Z" fill="#E9F0FF"/>
<path d="M366.391 520.084C371.391 523.495 367.935 535.532 363.657 530.894C361.77 528.513 364.258 520.881 366.391 520.084Z" fill="#E9F0FF"/>
<path d="M353.79 505.409C357.566 510.157 350.689 520.624 347.981 514.918C346.877 512.084 351.511 505.531 353.79 505.409Z" fill="#E9F0FF"/>
<path d="M393.871 477.678C399.46 480.01 398.504 492.488 393.38 488.82C391.039 486.869 391.946 478.893 393.871 477.678Z" fill="#E9F0FF"/>
<path d="M328.492 502.451C334.081 504.783 333.125 517.261 328.002 513.593C325.661 511.642 326.568 503.666 328.492 502.451Z" fill="#E9F0FF"/>
<path d="M426.74 339.704L451.174 323.376L360.5 339.704H426.74Z" fill="#A1BFFF"/>
<path d="M360.5 339.704L294.225 323.955L270.511 326.578L294.225 339.704H360.5Z" fill="#A1BFFF"/>
<path fill-rule="evenodd" clip-rule="evenodd" d="M426.74 339.704H294.225L294.26 339.739C269.429 359.338 253.481 389.681 253.481 423.805C253.481 438.536 257.422 445.93 264.012 448.726C273.742 454.061 303.096 444.851 308.243 439.87C308.738 441.522 308.991 443.757 309.267 446.196C310.091 453.471 311.121 462.564 319.372 463.438C327.818 464.302 334.333 454.849 338.864 448.274C339.985 446.647 340.984 445.197 341.861 444.123C344.911 458.765 350.094 468.238 361.528 467.449C372.963 466.66 376.192 449.766 377.079 444.123C379.447 455.337 387.666 469.988 404.49 462.247C415.027 457.01 416.608 448.64 415.291 440.152C443.725 451.894 467.519 460.004 467.519 423.805C467.519 389.681 451.571 359.338 426.74 339.704Z" fill="#A1BFFF"/>
<g filter="url(#filter14_i_518_5545)">
<path d="M376.81 402.763C363.154 391.324 361.35 370.973 372.78 357.307C384.211 343.641 404.548 341.836 418.204 353.274C431.86 364.713 433.665 385.064 422.234 398.73C410.803 412.396 390.466 414.202 376.81 402.763Z" fill="white"/>
</g>
<g filter="url(#filter15_i_518_5545)">
<path d="M300.903 400.839C288.31 388.237 288.31 367.806 300.903 355.204C313.496 342.603 333.912 342.603 346.505 355.204C359.098 367.806 359.098 388.237 346.505 400.839C333.912 413.441 313.496 413.441 300.903 400.839Z" fill="white"/>
</g>
<circle cx="12.3491" cy="12.3491" r="12.3491" transform="matrix(-1 0 0 1 348.264 365.454)" fill="#6078DF"/>
<circle cx="385.312" cy="377.803" r="12.3491" fill="#6078DF"/>
<circle cx="9.60486" cy="9.60486" r="9.60486" transform="matrix(-1 0 0 1 345.52 368.198)" fill="#040A17"/>
<circle cx="385.312" cy="377.803" r="9.60486" fill="#040A17"/>
<circle cx="3.20162" cy="3.20162" r="3.20162" transform="matrix(-1 0 0 1 336.373 369.113)" fill="#E4E5FF"/>
<circle cx="388.056" cy="372.315" r="3.20162" fill="#E4E5FF"/>
<circle cx="1.8295" cy="1.8295" r="1.8295" transform="matrix(-1 0 0 1 330.884 374.602)" fill="#A5A6CC"/>
<circle cx="392.172" cy="376.431" r="1.8295" fill="#A5A6CC"/>
<g filter="url(#filter16_i_518_5545)">
<path d="M358.904 437.824C359.718 438.947 361.392 438.947 362.206 437.824L375.319 419.722C375.836 419.008 375.836 418.043 375.319 417.33L362.206 399.228C361.392 398.104 359.718 398.104 358.904 399.228L345.791 417.33C345.274 418.043 345.274 419.008 345.791 419.722L358.904 437.824Z" fill="#6078DF"/>
</g>
<path d="M352.396 363.332C351.84 362.003 351.143 360.687 350.315 359.401C348.672 356.823 346.52 354.351 343.957 352.061C338.684 347.559 331.603 343.852 323.505 341.46L317.3 339.853C315.14 339.344 312.964 338.882 310.807 338.331C306.489 337.286 302.219 336.138 298.056 334.767C293.919 333.398 289.838 331.802 286.444 329.658C282.982 327.55 280.578 324.892 278.584 322.218C280.853 324.815 283.499 327.336 287.043 329.219C290.521 331.138 294.594 332.51 298.749 333.657C302.918 334.805 307.206 335.748 311.528 336.586C313.68 337.029 315.878 337.393 318.047 337.796L324.729 339.193C333.564 341.348 341.823 345.054 348.261 349.875C351.4 352.321 354.11 355.004 356.28 357.858C357.366 359.281 358.321 360.743 359.118 362.249C359.14 362.292 359.163 362.327 359.185 362.371C355.94 348.044 346.373 327.506 318.262 323.126C311.537 322.078 305.458 321.288 297.46 319.84C283.18 317.267 274.725 314.696 269.885 311.149C268.122 309.869 265.03 310.557 265.137 312.213C265.914 323.397 271.641 344.694 303.923 346.173C331.345 347.432 345.308 356.163 352.8 364.326C352.674 363.993 352.548 363.659 352.396 363.332Z" fill="#6078DF"/>
<path d="M368.903 363.332C369.459 362.003 370.157 360.687 370.985 359.401C372.628 356.823 374.779 354.351 377.342 352.061C382.616 347.559 389.696 343.852 397.795 341.46L403.999 339.853C406.159 339.344 408.336 338.882 410.492 338.331C414.81 337.286 419.081 336.138 423.244 334.767C427.381 333.398 431.461 331.802 434.856 329.658C438.317 327.55 440.722 324.892 442.716 322.218C440.447 324.815 437.8 327.336 434.256 329.219C430.779 331.138 426.706 332.51 422.55 333.657C418.382 334.805 414.094 335.748 409.772 336.586C407.619 337.029 405.422 337.393 403.253 337.796L396.57 339.193C387.735 341.348 379.477 345.054 373.039 349.875C369.9 352.321 367.19 355.004 365.019 357.858C363.933 359.281 362.979 360.743 362.182 362.249C362.16 362.292 362.137 362.327 362.115 362.371C365.359 348.044 374.926 327.506 403.037 323.126C409.762 322.078 415.842 321.288 423.839 319.84C438.119 317.267 446.574 314.696 451.415 311.149C453.178 309.869 456.269 310.557 456.163 312.213C455.386 323.397 449.658 344.694 417.377 346.173C389.954 347.432 375.992 356.163 368.499 364.326C368.625 363.993 368.751 363.659 368.903 363.332Z" fill="#6078DF"/>
<path d="M-415.533 612.614L190.049 512.514L316.744 561.653L445.211 549.815L509.562 511.136L520.591 521.678L483.334 547.13L571.241 505.452L609.089 458.218L623.942 468.452L555.959 548.165L526.501 561.99L592.31 556.642L589.185 571.826L470.209 567.312L381.605 568.623L286.22 601.268L192.329 574.933L210.64 602.029L186.769 608.91L148.241 568.065L-420.325 720.064L-415.533 612.614Z" fill="#11121D"/>
<mask id="mask0_518_5545" style="mask-type:luminance" maskUnits="userSpaceOnUse" x="-424" y="458" width="1048" height="263">
<path d="M-416.07 612.507L190.049 512.514L316.744 561.653L445.211 549.815L509.562 511.136L520.591 521.678L483.334 547.13L571.241 505.452L609.089 458.218L623.942 468.453L555.959 548.165L526.501 561.99L592.31 556.642L589.185 571.826L470.209 567.312L381.605 568.623L286.757 601.263L192.329 574.933L210.64 602.029L186.769 608.91L148.075 568.623L-423.59 720.064L-416.07 612.507Z" fill="white"/>
</mask>
<g mask="url(#mask0_518_5545)">
<path d="M-447.605 722.752C-432.441 677.236 -407.992 631.439 -374.818 586.394C-372.394 583.093 -369.804 579.691 -365.39 576.802C-360.316 573.481 -353.386 571.14 -346.623 568.9C-326.858 562.319 -307.094 555.738 -287.33 549.157C-308.137 600.07 -328.989 650.99 -349.793 701.927C-332.312 652.186 -312.186 599.381 -247.674 556.009C-232.27 557.038 -214.109 553.472 -200.894 546.841C-229.585 599.313 -254.412 651.91 -275.266 704.465C-245.805 647.828 -198.665 591.594 -136.474 538.95C-123.815 543.828 -105.466 544.962 -87.6692 541.952C-94.2971 598.085 -100.885 654.459 -91.2185 708.451C-73.0039 652.125 -46.2852 595.498 -11.3548 539.289C-6.17297 544.867 11.9592 544.699 21.8026 538.975C33.0864 593.615 42.1486 648.648 48.9367 704.036C65.5664 654.957 82.172 605.734 86.8582 557.453C87.8735 547.056 89.85 535.012 106.275 527.055C128.215 581.408 213.047 619.233 220.444 676.352C223.857 629.496 223.269 583.058 218.708 537.207C217.764 527.68 216.796 517.737 224.457 507.968C232.163 498.191 251.51 488.831 269.54 489.423L325.743 653.24C339.943 606.052 336.887 559.628 316.85 517.267C310.858 504.618 303.475 491.308 312.668 477.272C325.737 457.39 376.292 442.864 406.378 451.036C423.487 513.746 440.596 576.457 457.749 639.16C470.271 583.26 441.845 532.264 437.903 478.038C436.969 464.993 442.87 447.393 468.058 441.52C538.709 475.214 528.295 539.382 563.21 587.862C576.212 534.855 504.974 493.506 521.153 440.341C524.825 428.313 531.745 413.814 515.852 407.368C509.767 404.888 501.285 404.218 493.053 403.68C324.947 392.684 140.802 415.065 -34.1254 451.615C-148.488 475.516 -319.703 507.708 -374.433 575.507C-391.883 597.108 -403.843 619.53 -417.13 641.404C-434.7 670.256 -438.273 694.701 -447.605 722.752Z" fill="#1A1B30"/>
<g style="mix-blend-mode:multiply" opacity="0.24">
<path d="M372.365 550.477C359.847 550.986 347.108 550.891 334.894 549.26C318.487 547.054 303.649 542.133 287.466 539.482C237.134 531.299 185.375 546.152 133.767 550.968C66.7394 557.24 -77.2571 601.751 -152.664 617.347C-178.361 621.649 -206.356 632.022 -241.282 639.095C-264.627 643.822 -290.758 651.765 -331.092 651.765C-376.803 649.076 -394.146 650.139 -434.884 639.095C-448.092 635.518 -432.026 620.976 -441.818 627.027C-446.919 630.174 -447.457 634.834 -447.4 639.095C-447.143 668.271 -478.756 707.273 -451.555 732.272C-404.148 775.82 -274.934 795.105 -187.113 809.234C-99.2915 823.363 20.2145 667.379 111.226 663.498C202.238 659.618 292.597 651.608 383.788 649.334C428.436 648.216 473.934 648.394 516.49 640.911C572.464 631.026 620.097 607.525 644.356 577.776C662.681 555.253 667.462 529.42 658.532 505.162C649.491 480.635 631.804 463.837 591.872 484.022C528.606 516.027 461.779 546.903 372.328 550.455L372.365 550.477Z" fill="#11121D"/>
</g>
</g>
<path d="M320.395 548.646C318.413 553.744 316.807 565.646 312.654 564.511C311.43 564.18 311.513 561.461 313.644 554.76C316.232 546.6 319.401 537.525 325.087 538.199C329.397 538.753 332.185 546.617 333.832 554.118C335.467 561.62 336.068 563.204 332.594 563.571C329.095 563.941 329.253 555.585 327.295 549.665C326.763 555.949 327.77 567.081 322.287 566.746C319.626 566.583 318.995 556.34 320.409 548.67" fill="#F4AA5A"/>
<path d="M378.782 546.723C377.748 552.104 378.294 564.104 374.012 563.72C372.747 563.614 372.353 560.927 373.241 553.958C374.322 545.468 375.827 535.966 381.541 535.603C385.89 535.377 390.036 542.612 392.987 549.697C395.938 556.783 396.821 558.23 393.465 559.215C390.085 560.202 388.751 551.958 385.763 546.478C386.362 552.756 389.343 563.523 383.889 564.183C381.235 564.5 378.783 554.535 378.795 546.734" fill="#F4AA5A"/>
<defs>
<filter id="filter0_f_518_5545" x="-503.335" y="-430.848" width="1729.18" height="1729.18" filterUnits="userSpaceOnUse" color-interpolation-filters="sRGB">
<feFlood flood-opacity="0" result="BackgroundImageFix"/>
<feBlend mode="normal" in="SourceGraphic" in2="BackgroundImageFix" result="shape"/>
<feGaussianBlur stdDeviation="204.545" result="effect1_foregroundBlur_518_5545"/>
</filter>
<filter id="filter1_i_518_5545" x="170.662" y="244.662" width="379.676" height="379.676" filterUnits="userSpaceOnUse" color-interpolation-filters="sRGB">
<feFlood flood-opacity="0" result="BackgroundImageFix"/>
<feBlend mode="normal" in="SourceGraphic" in2="BackgroundImageFix" result="shape"/>
<feColorMatrix in="SourceAlpha" type="matrix" values="0 0 0 0 0 0 0 0 0 0 0 0 0 0 0 0 0 0 127 0" result="hardAlpha"/>
<feOffset dx="-14" dy="-50"/>
<feComposite in2="hardAlpha" operator="arithmetic" k2="-1" k3="1"/>
<feColorMatrix type="matrix" values="0 0 0 0 0.8 0 0 0 0 0.847059 0 0 0 0 0.94902 0 0 0 1 0"/>
<feBlend mode="normal" in2="shape" result="effect1_innerShadow_518_5545"/>
</filter>
<filter id="filter2_i_518_5545" x="421.718" y="353.494" width="98.9384" height="98.9385" filterUnits="userSpaceOnUse" color-interpolation-filters="sRGB">
<feFlood flood-opacity="0" result="BackgroundImageFix"/>
<feBlend mode="normal" in="SourceGraphic" in2="BackgroundImageFix" result="shape"/>
<feColorMatrix in="SourceAlpha" type="matrix" values="0 0 0 0 0 0 0 0 0 0 0 0 0 0 0 0 0 0 127 0" result="hardAlpha"/>
<feOffset dx="5" dy="1"/>
<feComposite in2="hardAlpha" operator="arithmetic" k2="-1" k3="1"/>
<feColorMatrix type="matrix" values="0 0 0 0 0.686275 0 0 0 0 0.733333 0 0 0 0 0.835294 0 0 0 1 0"/>
<feBlend mode="normal" in2="shape" result="effect1_innerShadow_518_5545"/>
</filter>
<filter id="filter3_i_518_5545" x="354.18" y="269.68" width="49.94" height="49.9399" filterUnits="userSpaceOnUse" color-interpolation-filters="sRGB">
<feFlood flood-opacity="0" result="BackgroundImageFix"/>
<feBlend mode="normal" in="SourceGraphic" in2="BackgroundImageFix" result="shape"/>
<feColorMatrix in="SourceAlpha" type="matrix" values="0 0 0 0 0 0 0 0 0 0 0 0 0 0 0 0 0 0 127 0" result="hardAlpha"/>
<feOffset dx="2" dy="2"/>
<feComposite in2="hardAlpha" operator="arithmetic" k2="-1" k3="1"/>
<feColorMatrix type="matrix" values="0 0 0 0 0.686667 0 0 0 0 0.733836 0 0 0 0 0.836035 0 0 0 1 0"/>
<feBlend mode="normal" in2="shape" result="effect1_innerShadow_518_5545"/>
</filter>
<filter id="filter4_i_518_5545" x="315.411" y="504.416" width="67.9281" height="67.9282" filterUnits="userSpaceOnUse" color-interpolation-filters="sRGB">
<feFlood flood-opacity="0" result="BackgroundImageFix"/>
<feBlend mode="normal" in="SourceGraphic" in2="BackgroundImageFix" result="shape"/>
<feColorMatrix in="SourceAlpha" type="matrix" values="0 0 0 0 0 0 0 0 0 0 0 0 0 0 0 0 0 0 127 0" result="hardAlpha"/>
<feOffset dx="2" dy="2"/>
<feComposite in2="hardAlpha" operator="arithmetic" k2="-1" k3="1"/>
<feColorMatrix type="matrix" values="0 0 0 0 0.686667 0 0 0 0 0.733836 0 0 0 0 0.836035 0 0 0 1 0"/>
<feBlend mode="normal" in2="shape" result="effect1_innerShadow_518_5545"/>
</filter>
<filter id="filter5_i_518_5545" x="280.104" y="475.625" width="39.2704" height="39.2705" filterUnits="userSpaceOnUse" color-interpolation-filters="sRGB">
<feFlood flood-opacity="0" result="BackgroundImageFix"/>
<feBlend mode="normal" in="SourceGraphic" in2="BackgroundImageFix" result="shape"/>
<feColorMatrix in="SourceAlpha" type="matrix" values="0 0 0 0 0 0 0 0 0 0 0 0 0 0 0 0 0 0 127 0" result="hardAlpha"/>
<feOffset dx="1" dy="2"/>
<feComposite in2="hardAlpha" operator="arithmetic" k2="-1" k3="1"/>
<feColorMatrix type="matrix" values="0 0 0 0 0.686275 0 0 0 0 0.733333 0 0 0 0 0.835294 0 0 0 1 0"/>
<feBlend mode="normal" in2="shape" result="effect1_innerShadow_518_5545"/>
</filter>
<filter id="filter6_i_518_5545" x="239.169" y="311.276" width="41.7311" height="41.731" filterUnits="userSpaceOnUse" color-interpolation-filters="sRGB">
<feFlood flood-opacity="0" result="BackgroundImageFix"/>
<feBlend mode="normal" in="SourceGraphic" in2="BackgroundImageFix" result="shape"/>
<feColorMatrix in="SourceAlpha" type="matrix" values="0 0 0 0 0 0 0 0 0 0 0 0 0 0 0 0 0 0 127 0" result="hardAlpha"/>
<feOffset dx="2" dy="2"/>
<feComposite in2="hardAlpha" operator="arithmetic" k2="-1" k3="1"/>
<feColorMatrix type="matrix" values="0 0 0 0 0.686667 0 0 0 0 0.733836 0 0 0 0 0.836035 0 0 0 1 0"/>
<feBlend mode="normal" in2="shape" result="effect1_innerShadow_518_5545"/>
</filter>
<filter id="filter7_i_518_5545" x="191.492" y="395.546" width="22.4528" height="22.4529" filterUnits="userSpaceOnUse" color-interpolation-filters="sRGB">
<feFlood flood-opacity="0" result="BackgroundImageFix"/>
<feBlend mode="normal" in="SourceGraphic" in2="BackgroundImageFix" result="shape"/>
<feColorMatrix in="SourceAlpha" type="matrix" values="0 0 0 0 0 0 0 0 0 0 0 0 0 0 0 0 0 0 127 0" result="hardAlpha"/>
<feOffset dx="1" dy="1"/>
<feComposite in2="hardAlpha" operator="arithmetic" k2="-1" k3="1"/>
<feColorMatrix type="matrix" values="0 0 0 0 0.686275 0 0 0 0 0.733333 0 0 0 0 0.835294 0 0 0 1 0"/>
<feBlend mode="normal" in2="shape" result="effect1_innerShadow_518_5545"/>
</filter>
<filter id="filter8_i_518_5545" x="330.005" y="263.216" width="22.4528" height="22.4529" filterUnits="userSpaceOnUse" color-interpolation-filters="sRGB">
<feFlood flood-opacity="0" result="BackgroundImageFix"/>
<feBlend mode="normal" in="SourceGraphic" in2="BackgroundImageFix" result="shape"/>
<feColorMatrix in="SourceAlpha" type="matrix" values="0 0 0 0 0 0 0 0 0 0 0 0 0 0 0 0 0 0 127 0" result="hardAlpha"/>
<feOffset dx="1" dy="1"/>
<feComposite in2="hardAlpha" operator="arithmetic" k2="-1" k3="1"/>
<feColorMatrix type="matrix" values="0 0 0 0 0.686275 0 0 0 0 0.733333 0 0 0 0 0.835294 0 0 0 1 0"/>
<feBlend mode="normal" in2="shape" result="effect1_innerShadow_518_5545"/>
</filter>
<filter id="filter9_i_518_5545" x="520.462" y="423.991" width="22.4528" height="22.4529" filterUnits="userSpaceOnUse" color-interpolation-filters="sRGB">
<feFlood flood-opacity="0" result="BackgroundImageFix"/>
<feBlend mode="normal" in="SourceGraphic" in2="BackgroundImageFix" result="shape"/>
<feColorMatrix in="SourceAlpha" type="matrix" values="0 0 0 0 0 0 0 0 0 0 0 0 0 0 0 0 0 0 127 0" result="hardAlpha"/>
<feOffset dx="1" dy="1"/>
<feComposite in2="hardAlpha" operator="arithmetic" k2="-1" k3="1"/>
<feColorMatrix type="matrix" values="0 0 0 0 0.686275 0 0 0 0 0.733333 0 0 0 0 0.835294 0 0 0 1 0"/>
<feBlend mode="normal" in2="shape" result="effect1_innerShadow_518_5545"/>
</filter>
<filter id="filter10_i_518_5545" x="398.481" y="528.823" width="39.6018" height="39.6018" filterUnits="userSpaceOnUse" color-interpolation-filters="sRGB">
<feFlood flood-opacity="0" result="BackgroundImageFix"/>
<feBlend mode="normal" in="SourceGraphic" in2="BackgroundImageFix" result="shape"/>
<feColorMatrix in="SourceAlpha" type="matrix" values="0 0 0 0 0 0 0 0 0 0 0 0 0 0 0 0 0 0 127 0" result="hardAlpha"/>
<feOffset dx="1" dy="1"/>
<feComposite in2="hardAlpha" operator="arithmetic" k2="-1" k3="1"/>
<feColorMatrix type="matrix" values="0 0 0 0 0.686275 0 0 0 0 0.733333 0 0 0 0 0.835294 0 0 0 1 0"/>
<feBlend mode="normal" in2="shape" result="effect1_innerShadow_518_5545"/>
</filter>
<filter id="filter11_i_518_5545" x="268.652" y="569.964" width="23.1666" height="23.1667" filterUnits="userSpaceOnUse" color-interpolation-filters="sRGB">
<feFlood flood-opacity="0" result="BackgroundImageFix"/>
<feBlend mode="normal" in="SourceGraphic" in2="BackgroundImageFix" result="shape"/>
<feColorMatrix in="SourceAlpha" type="matrix" values="0 0 0 0 0 0 0 0 0 0 0 0 0 0 0 0 0 0 127 0" result="hardAlpha"/>
<feOffset dx="1" dy="1"/>
<feComposite in2="hardAlpha" operator="arithmetic" k2="-1" k3="1"/>
<feColorMatrix type="matrix" values="0 0 0 0 0.686275 0 0 0 0 0.733333 0 0 0 0 0.835294 0 0 0 1 0"/>
<feBlend mode="normal" in2="shape" result="effect1_innerShadow_518_5545"/>
</filter>
<filter id="filter12_i_518_5545" x="294.304" y="523.64" width="12.9216" height="12.9216" filterUnits="userSpaceOnUse" color-interpolation-filters="sRGB">
<feFlood flood-opacity="0" result="BackgroundImageFix"/>
<feBlend mode="normal" in="SourceGraphic" in2="BackgroundImageFix" result="shape"/>
<feColorMatrix in="SourceAlpha" type="matrix" values="0 0 0 0 0 0 0 0 0 0 0 0 0 0 0 0 0 0 127 0" result="hardAlpha"/>
<feOffset dx="1"/>
<feComposite in2="hardAlpha" operator="arithmetic" k2="-1" k3="1"/>
<feColorMatrix type="matrix" values="0 0 0 0 0 0 0 0 0 0 0 0 0 0 0 0 0 0 0.25 0"/>
<feBlend mode="normal" in2="shape" result="effect1_innerShadow_518_5545"/>
</filter>
<filter id="filter13_i_518_5545" x="458.789" y="335.656" width="12.9216" height="12.9216" filterUnits="userSpaceOnUse" color-interpolation-filters="sRGB">
<feFlood flood-opacity="0" result="BackgroundImageFix"/>
<feBlend mode="normal" in="SourceGraphic" in2="BackgroundImageFix" result="shape"/>
<feColorMatrix in="SourceAlpha" type="matrix" values="0 0 0 0 0 0 0 0 0 0 0 0 0 0 0 0 0 0 127 0" result="hardAlpha"/>
<feOffset dx="1"/>
<feComposite in2="hardAlpha" operator="arithmetic" k2="-1" k3="1"/>
<feColorMatrix type="matrix" values="0 0 0 0 0.686275 0 0 0 0 0.733333 0 0 0 0 0.835294 0 0 0 1 0"/>
<feBlend mode="normal" in2="shape" result="effect1_innerShadow_518_5545"/>
</filter>
<filter id="filter14_i_518_5545" x="365.261" y="345.75" width="64.4928" height="64.5383" filterUnits="userSpaceOnUse" color-interpolation-filters="sRGB">
<feFlood flood-opacity="0" result="BackgroundImageFix"/>
<feBlend mode="normal" in="SourceGraphic" in2="BackgroundImageFix" result="shape"/>
<feColorMatrix in="SourceAlpha" type="matrix" values="0 0 0 0 0 0 0 0 0 0 0 0 0 0 0 0 0 0 127 0" result="hardAlpha"/>
<feOffset dx="3.40191" dy="-3.40191"/>
<feComposite in2="hardAlpha" operator="arithmetic" k2="-1" k3="1"/>
<feColorMatrix type="matrix" values="0 0 0 0 0.85098 0 0 0 0 0.898039 0 0 0 0 1 0 0 0 1 0"/>
<feBlend mode="normal" in2="shape" result="effect1_innerShadow_518_5545"/>
</filter>
<filter id="filter15_i_518_5545" x="291.458" y="345.753" width="64.4913" height="64.5371" filterUnits="userSpaceOnUse" color-interpolation-filters="sRGB">
<feFlood flood-opacity="0" result="BackgroundImageFix"/>
<feBlend mode="normal" in="SourceGraphic" in2="BackgroundImageFix" result="shape"/>
<feColorMatrix in="SourceAlpha" type="matrix" values="0 0 0 0 0 0 0 0 0 0 0 0 0 0 0 0 0 0 127 0" result="hardAlpha"/>
<feOffset dx="-3.40191" dy="-3.40191"/>
<feComposite in2="hardAlpha" operator="arithmetic" k2="-1" k3="1"/>
<feColorMatrix type="matrix" values="0 0 0 0 0.85098 0 0 0 0 0.898039 0 0 0 0 1 0 0 0 1 0"/>
<feBlend mode="normal" in2="shape" result="effect1_innerShadow_518_5545"/>
</filter>
<filter id="filter16_i_518_5545" x="345.403" y="398.385" width="30.304" height="40.2815" filterUnits="userSpaceOnUse" color-interpolation-filters="sRGB">
<feFlood flood-opacity="0" result="BackgroundImageFix"/>
<feBlend mode="normal" in="SourceGraphic" in2="BackgroundImageFix" result="shape"/>
<feColorMatrix in="SourceAlpha" type="matrix" values="0 0 0 0 0 0 0 0 0 0 0 0 0 0 0 0 0 0 127 0" result="hardAlpha"/>
<feOffset dy="-9"/>
<feComposite in2="hardAlpha" operator="arithmetic" k2="-1" k3="1"/>
<feColorMatrix type="matrix" values="0 0 0 0 0.361994 0 0 0 0 0.45073 0 0 0 0 0.831559 0 0 0 1 0"/>
<feBlend mode="normal" in2="shape" result="effect1_innerShadow_518_5545"/>
</filter>
<radialGradient id="paint0_radial_518_5545" cx="0" cy="0" r="1" gradientUnits="userSpaceOnUse" gradientTransform="translate(361.038 433.962) rotate(-95.9722) scale(656.434 397.81)">
<stop stop-color="white" stop-opacity="0.93"/>
<stop offset="0.250637" stop-color="#D0C9FA" stop-opacity="0.770383"/>
<stop offset="0.369792" stop-color="#654DFD" stop-opacity="0.770383"/>
<stop offset="0.493846" stop-color="#2400FF" stop-opacity="0.770383"/>
<stop offset="0.71875" stop-color="#0C0054" stop-opacity="0.877197"/>
<stop offset="0.885417" stop-color="#02000F"/>
</radialGradient>
</defs>
</svg>
