<svg width="125" height="20" viewBox="0 0 125 20" fill="none" xmlns="http://www.w3.org/2000/svg">
<path d="M8.31726 19.5816C7.91436 20.1395 7.08564 20.1395 6.68274 19.5816L0.191906 10.5939C-0.0639688 10.2395 -0.0639686 9.76045 0.191906 9.40615L6.68274 0.418418C7.08564 -0.139474 7.91436 -0.139472 8.31726 0.41842L14.8081 9.40615C15.064 9.76045 15.064 10.2395 14.8081 10.5939L8.31726 19.5816Z" fill="#6078DF"/>
<path d="M113.925 19.5165V11.309L108.064 0.50708H113.783L116.437 6.01415L119.078 0.50708H124.809L118.937 11.309V19.5165H113.925Z" fill="white"/>
<path d="M101.094 0.483484H106.153V19.7052H104.55L94.7737 10.2358V19.5283H89.7266V0.31839H91.3539L101.094 9.75235V0.483484Z" fill="white"/>
<path d="M76.8015 20C70.8935 20 66.377 15.6958 66.377 10.0354C66.377 4.32783 70.9053 0 76.8133 0C82.7213 0 87.2496 4.32783 87.2496 10.0354C87.2496 15.6958 82.7213 20 76.8015 20ZM76.8133 15.1769C79.8321 15.1769 82.1435 12.9245 82.1435 10C82.1435 7.06368 79.8321 4.79953 76.8133 4.79953C73.7944 4.79953 71.4831 7.06368 71.4831 10C71.4831 12.9245 73.7944 15.1769 76.8133 15.1769Z" fill="white"/>
<path d="M54.278 20C48.37 20 43.8535 15.6958 43.8535 10.0354C43.8535 4.32783 48.3818 0 54.2898 0C60.1979 0 64.7262 4.32783 64.7262 10.0354C64.7262 15.6958 60.1979 20 54.278 20ZM54.2898 15.1769C57.3087 15.1769 59.62 12.9245 59.62 10C59.62 7.06368 57.3087 4.79953 54.2898 4.79953C51.271 4.79953 48.9596 7.06368 48.9596 10C48.9596 12.9245 51.271 15.1769 54.2898 15.1769Z" fill="white"/>
<path d="M39.3491 0.3302H41.3774V19.5165H36.3302V11.9811L31.2123 19.1981H31.1769L26.0472 11.9811V19.5165H21V0.3302H23.0283L31.1887 11.5094L39.3491 0.3302Z" fill="white"/>
</svg>
