<svg width="1439" height="655" viewBox="0 0 1439 655" fill="none" xmlns="http://www.w3.org/2000/svg">
<g clip-path="url(#clip0_1373_1166)">
<g style="mix-blend-mode:lighten" filter="url(#filter0_f_1373_1166)">
<path d="M1228.65 390C1228.65 560.104 1090.76 698 920.655 698C750.551 698 612.655 560.104 612.655 390C612.655 219.896 750.551 82 920.655 82C1090.76 82 1228.65 219.896 1228.65 390Z" fill="url(#paint0_radial_1373_1166)" fill-opacity="0.7"/>
</g>
<path d="M1149.78 390C1149.78 516.54 1047.2 619.122 920.655 619.122C794.114 619.122 691.533 516.54 691.533 390C691.533 263.459 794.114 160.878 920.655 160.878C1047.2 160.878 1149.78 263.459 1149.78 390Z" fill="white" fill-opacity="0.01"/>
<g filter="url(#filter1_i_1373_1166)">
<path d="M1070.72 390.774C1070.72 473.224 1003.88 540.064 921.428 540.064C838.977 540.064 772.138 473.224 772.138 390.774C772.138 308.323 838.977 241.483 921.428 241.483C1003.88 241.483 1070.72 308.323 1070.72 390.774Z" fill="#D9E5FF"/>
</g>
<g filter="url(#filter2_i_1373_1166)">
<path d="M861.891 393.482C846.699 408.674 822.067 408.674 806.874 393.482C791.682 378.289 791.682 353.657 806.874 338.465C822.067 323.272 846.699 323.272 861.891 338.465C877.084 353.657 877.084 378.289 861.891 393.482Z" fill="#CCD8F2"/>
</g>
<g filter="url(#filter3_i_1373_1166)">
<path d="M909.068 300.295C898.299 301.568 888.536 293.871 887.263 283.102C885.989 272.333 893.686 262.571 904.455 261.297C915.224 260.023 924.987 267.721 926.26 278.49C927.534 289.258 919.837 299.021 909.068 300.295Z" fill="#CCD8F2"/>
</g>
<g filter="url(#filter4_i_1373_1166)">
<path d="M933.314 498.988C918.666 500.721 905.387 490.251 903.655 475.603C901.922 460.955 912.392 447.677 927.04 445.944C941.688 444.212 954.967 454.681 956.699 469.329C958.432 483.977 947.962 497.256 933.314 498.988Z" fill="#CCD8F2"/>
</g>
<g filter="url(#filter5_i_1373_1166)">
<path d="M971.024 453.89C962.556 454.891 954.879 448.838 953.878 440.37C952.876 431.902 958.929 424.225 967.397 423.224C975.865 422.222 983.542 428.275 984.544 436.743C985.545 445.211 979.492 452.888 971.024 453.89Z" fill="#CCD8F2"/>
</g>
<g filter="url(#filter6_i_1373_1166)">
<path d="M1002.36 326.572C993.364 327.636 985.206 321.204 984.142 312.206C983.077 303.207 989.509 295.049 998.508 293.985C1007.51 292.92 1015.66 299.353 1016.73 308.351C1017.79 317.35 1011.36 325.508 1002.36 326.572Z" fill="#CCD8F2"/>
</g>
<g filter="url(#filter7_i_1373_1166)">
<path d="M1046.55 377.736C1041.7 378.308 1037.32 374.848 1036.74 370.006C1036.17 365.164 1039.63 360.775 1044.47 360.202C1049.31 359.63 1053.7 363.09 1054.28 367.932C1054.85 372.774 1051.39 377.163 1046.55 377.736Z" fill="#CCD8F2"/>
</g>
<g filter="url(#filter8_i_1373_1166)">
<path d="M937.618 273.669C932.776 274.242 928.387 270.781 927.814 265.94C927.242 261.098 930.702 256.709 935.544 256.136C940.386 255.564 944.775 259.024 945.347 263.866C945.92 268.708 942.459 273.097 937.618 273.669Z" fill="#CCD8F2"/>
</g>
<g filter="url(#filter9_i_1373_1166)">
<path d="M787.841 400.105C782.999 400.677 778.61 397.217 778.038 392.375C777.465 387.533 780.926 383.144 785.767 382.572C790.609 381.999 794.998 385.46 795.571 390.301C796.143 395.143 792.683 399.532 787.841 400.105Z" fill="#CCD8F2"/>
</g>
<g filter="url(#filter10_i_1373_1166)">
<path d="M877.817 495.984C869.278 496.994 861.536 490.891 860.526 482.351C859.516 473.811 865.62 466.07 874.16 465.06C882.699 464.05 890.441 470.154 891.451 478.693C892.461 487.233 886.357 494.974 877.817 495.984Z" fill="#CCD8F2"/>
</g>
<g filter="url(#filter11_i_1373_1166)">
<path d="M985.619 515.459C980.623 516.05 976.094 512.479 975.503 507.484C974.913 502.488 978.483 497.959 983.479 497.368C988.474 496.778 993.003 500.348 993.594 505.344C994.185 510.339 990.614 514.868 985.619 515.459Z" fill="#CCD8F2"/>
</g>
<g filter="url(#filter12_i_1373_1166)">
<path d="M969.001 471C966.215 471.33 963.689 469.338 963.359 466.552C963.03 463.765 965.021 461.239 967.808 460.91C970.594 460.58 973.12 462.572 973.45 465.358C973.779 468.145 971.787 470.67 969.001 471Z" fill="#CCD8F2"/>
</g>
<g filter="url(#filter13_i_1373_1166)">
<path d="M839.649 323.168C836.862 323.498 834.336 321.506 834.007 318.72C833.677 315.934 835.669 313.408 838.455 313.078C841.242 312.749 843.768 314.74 844.097 317.527C844.427 320.313 842.435 322.839 839.649 323.168Z" fill="#CCD8F2"/>
</g>
<path opacity="0.35" d="M898.561 196.265L896.641 202.544L903.205 202.405L896.807 203.881L900.211 209.496L895.733 204.694L892.572 210.449L894.492 204.17L887.928 204.31L894.325 202.833L890.922 197.218L895.4 202.02L898.561 196.265Z" fill="white"/>
<path opacity="0.05" d="M748.781 249.979L759.889 268.395L772.787 251.184L762.393 270.012L783.746 272.577L762.243 272.989L770.699 292.764L759.59 274.348L746.693 291.558L757.087 272.73L735.734 270.166L757.237 269.753L748.781 249.979Z" fill="white"/>
<path opacity="0.5" d="M710.719 345.518L715.882 347.96L716.817 342.202L717.205 347.994L722.587 345.82L717.811 349.17L722.258 352.754L717.095 350.312L716.16 356.07L715.773 350.278L710.391 352.452L715.166 349.102L710.719 345.518Z" fill="white"/>
<path opacity="0.2" d="M1106.8 343.731L1112.28 351.621L1118.06 343.949L1113.97 352.639L1123.5 353.809L1113.93 354.609L1117.68 363.451L1112.2 355.562L1106.42 363.233L1110.51 354.543L1100.98 353.373L1110.55 352.573L1106.8 343.731Z" fill="white"/>
<path opacity="0.05" d="M1005.79 219.904L1021.16 228.118L1023 210.785L1023.58 228.206L1039.51 221.133L1024.71 230.341L1038.8 240.601L1023.42 232.387L1021.58 249.72L1021.01 232.299L1005.08 239.372L1019.88 230.165L1005.79 219.904Z" fill="white"/>
<path opacity="0.5" d="M1062.85 291.241L1064 296.727L1068.84 293.891L1064.66 297.631L1069.53 300.4L1064.21 298.655L1064.25 304.26L1063.1 298.775L1058.26 301.611L1062.43 297.87L1057.56 295.102L1062.89 296.847L1062.85 291.241Z" fill="white"/>
<path d="M982.178 390.098C987.181 422.665 997.784 454.363 984.328 486.322C975.788 505.456 963.18 520.615 942.437 523.8C942.215 533.603 952.567 556.154 943.507 564.443C932.461 574.767 927.593 539.306 925.993 532.658C925.733 538.447 930.176 563.622 921.414 562.677C914.339 561.471 909.549 541.516 909.722 535.167C910.416 539.653 915.11 566.527 904.151 562.465C895.524 558.614 895.485 532.185 897.076 523.896C857.431 516.206 851.657 456.167 855.889 423.909C857.874 406.936 864.65 380.034 878.415 368.715C892.738 357.319 929.328 348.809 946.88 354.733C964.433 360.648 973.368 377.67 982.506 392.356" fill="#A1BFFF"/>
<path d="M982.178 390.098C987.181 422.665 997.784 454.363 984.328 486.322C975.788 505.456 963.18 520.615 942.437 523.8C942.215 533.603 952.567 556.154 943.507 564.443C932.461 574.767 927.593 539.306 925.993 532.658C925.733 538.447 930.176 563.622 921.414 562.677C914.339 561.471 909.549 541.516 909.722 535.167C910.416 539.653 915.11 566.527 904.151 562.465C895.524 558.614 895.485 532.185 897.076 523.896C857.431 516.206 851.657 456.167 855.889 423.909C857.874 406.936 864.65 380.034 878.415 368.715C892.738 357.319 929.328 348.809 946.88 354.733C964.433 360.648 973.368 377.67 982.506 392.356" fill="#6078DF" fill-opacity="0.5"/>
<path d="M861.797 367.625C849.517 384.839 843.907 415.592 844.823 436.521C845.507 445.997 847.204 454.546 850.886 463.559C852.033 466.068 855.31 477.434 859.108 477.232C864.457 477.174 873.634 454.691 874.925 450.658C883.552 427.103 886.376 400.616 882.27 376.348C880.545 365.116 869.73 354.521 861.797 367.615" fill="#6078DF"/>
<path d="M991.191 385.264C998.458 405.218 1000.65 424.421 996.964 445.292C994.372 458.338 987.788 477.743 975.826 459.66C968.375 448.544 965.503 434.813 963.488 421.709C962.226 413.469 958.833 401.349 962.544 393.118C966.255 384.878 984.463 376.338 991.191 385.264Z" fill="#6078DF"/>
<path d="M948.875 425.077C944.99 426.244 940.701 435.489 944.142 437.1C947.13 438.499 948.374 431.754 948.913 428.85C949.79 431.224 954.388 437.09 955.179 431.928C955.632 428.782 951.68 425.386 948.865 425.077" fill="#E9F0FF"/>
<path d="M901.557 440.603C905.615 440.555 912.478 448.072 909.673 450.648C907.234 452.877 904.034 446.817 902.646 444.212C902.521 446.74 899.889 453.717 897.595 449.037C896.217 446.181 898.974 441.752 901.557 440.613" fill="#E9F0FF"/>
<path d="M937.057 428.695C932.402 429.699 931.361 439.483 935.843 437.38C937.925 436.212 938.378 429.911 937.057 428.695Z" fill="#E9F0FF"/>
<path d="M916.806 430.104C912.873 432.787 915.591 442.253 918.955 438.606C920.44 436.734 918.483 430.732 916.806 430.104Z" fill="#E9F0FF"/>
<path d="M916.796 458.078C912.863 460.76 915.582 470.226 918.946 466.579C920.43 464.707 918.473 458.705 916.796 458.078Z" fill="#E9F0FF"/>
<path d="M926.705 446.537C923.736 450.272 929.144 458.503 931.274 454.016C932.141 451.787 928.498 446.634 926.705 446.537Z" fill="#E9F0FF"/>
<path d="M895.186 424.73C890.79 426.563 891.542 436.377 895.571 433.491C897.412 431.957 896.699 425.685 895.186 424.73Z" fill="#E9F0FF"/>
<path d="M946.6 444.211C942.204 446.045 942.956 455.858 946.985 452.973C948.826 451.439 948.113 445.166 946.6 444.211Z" fill="#E9F0FF"/>
<path d="M869.337 316.225L850.122 303.385L921.428 316.225H869.337Z" fill="#A1BFFF"/>
<path d="M921.428 316.226L973.548 303.84L992.197 305.903L973.548 316.226H921.428Z" fill="#A1BFFF"/>
<path fill-rule="evenodd" clip-rule="evenodd" d="M869.337 316.225H973.548L973.52 316.253C993.048 331.666 1005.59 355.528 1005.59 382.363C1005.59 393.948 1002.49 399.762 997.307 401.962C989.656 406.157 966.572 398.914 962.524 394.997C962.135 396.296 961.936 398.054 961.718 399.972C961.07 405.693 960.26 412.844 953.772 413.531C947.13 414.21 942.006 406.776 938.443 401.606C937.562 400.327 936.776 399.186 936.086 398.341C933.688 409.856 929.612 417.306 920.62 416.685C911.628 416.064 909.088 402.779 908.39 398.341C906.529 407.16 900.065 418.682 886.834 412.594C878.548 408.476 877.304 401.893 878.34 395.219C855.979 404.453 837.268 410.83 837.268 382.363C837.268 355.528 849.809 331.666 869.337 316.225Z" fill="#A1BFFF"/>
<g filter="url(#filter14_i_1373_1166)">
<path d="M908.602 365.816C919.341 356.821 920.76 340.816 911.771 330.069C902.782 319.322 886.789 317.902 876.049 326.898C865.31 335.893 863.891 351.898 872.88 362.645C881.869 373.392 897.862 374.812 908.602 365.816Z" fill="white"/>
</g>
<g filter="url(#filter15_i_1373_1166)">
<path d="M968.296 364.303C978.199 354.393 978.199 338.325 968.296 328.415C958.393 318.505 942.337 318.505 932.434 328.415C922.531 338.325 922.531 354.393 932.434 364.303C942.337 374.213 958.393 374.213 968.296 364.303Z" fill="white"/>
</g>
<circle cx="940.762" cy="346.188" r="9.71144" fill="#6078DF"/>
<circle cx="9.71144" cy="9.71144" r="9.71144" transform="matrix(-1 0 0 1 911.627 336.476)" fill="#6078DF"/>
<circle cx="940.762" cy="346.188" r="7.55335" fill="#040A17"/>
<circle cx="7.55335" cy="7.55335" r="7.55335" transform="matrix(-1 0 0 1 909.469 338.634)" fill="#040A17"/>
<circle cx="942.92" cy="341.872" r="2.51778" fill="#ECECEC"/>
<circle cx="2.51778" cy="2.51778" r="2.51778" transform="matrix(-1 0 0 1 902.276 339.354)" fill="#ECECEC"/>
<circle cx="946.157" cy="345.109" r="1.43873" fill="#AAAAAA"/>
<circle cx="1.43873" cy="1.43873" r="1.43873" transform="matrix(-1 0 0 1 897.96 343.67)" fill="#AAAAAA"/>
<g filter="url(#filter16_i_1373_1166)">
<path d="M922.684 393.388C922.043 394.271 920.727 394.271 920.087 393.388L909.774 379.152C909.368 378.591 909.368 377.832 909.774 377.271L920.087 363.036C920.727 362.152 922.043 362.152 922.684 363.036L932.996 377.271C933.402 377.832 933.402 378.591 932.996 379.152L922.684 393.388Z" fill="#6078DF"/>
</g>
<path d="M927.801 334.807C928.238 333.762 928.787 332.727 929.438 331.716C930.73 329.688 932.422 327.745 934.438 325.944C938.585 322.404 944.153 319.488 950.522 317.607L955.401 316.344C957.1 315.943 958.811 315.58 960.507 315.146C963.903 314.325 967.261 313.422 970.535 312.343C973.789 311.267 976.997 310.012 979.667 308.326C982.389 306.668 984.28 304.578 985.848 302.475C984.064 304.518 981.982 306.5 979.195 307.981C976.461 309.49 973.258 310.569 969.99 311.471C966.711 312.373 963.34 313.115 959.941 313.774C958.248 314.122 956.52 314.408 954.814 314.725L949.559 315.824C942.611 317.519 936.116 320.433 931.053 324.225C928.585 326.148 926.454 328.258 924.747 330.503C923.893 331.622 923.142 332.771 922.515 333.956C922.498 333.99 922.48 334.017 922.463 334.051C925.014 322.785 932.538 306.633 954.645 303.189C959.933 302.365 964.714 301.744 971.003 300.605C982.233 298.581 988.882 296.56 992.689 293.77C994.075 292.764 996.506 293.305 996.423 294.607C995.812 303.402 991.308 320.15 965.921 321.313C944.356 322.304 933.376 329.17 927.483 335.589C927.582 335.327 927.682 335.065 927.801 334.807Z" fill="#6078DF"/>
<path d="M914.82 334.807C914.383 333.762 913.834 332.727 913.183 331.716C911.891 329.688 910.199 327.745 908.183 325.944C904.036 322.404 898.468 319.488 892.099 317.607L887.22 316.344C885.522 315.943 883.81 315.58 882.114 315.146C878.718 314.325 875.36 313.422 872.086 312.343C868.833 311.267 865.624 310.012 862.954 308.326C860.232 306.668 858.341 304.578 856.773 302.475C858.558 304.518 860.639 306.5 863.426 307.981C866.16 309.49 869.364 310.569 872.632 311.471C875.91 312.373 879.282 313.115 882.681 313.774C884.373 314.122 886.102 314.408 887.807 314.725L893.062 315.824C900.01 317.519 906.505 320.433 911.568 324.225C914.036 326.148 916.167 328.258 917.874 330.503C918.728 331.622 919.479 332.771 920.106 333.956C920.123 333.99 920.141 334.017 920.158 334.051C917.607 322.785 910.084 306.633 887.977 303.189C882.688 302.365 877.907 301.744 871.618 300.605C860.388 298.581 853.739 296.56 849.932 293.77C848.546 292.764 846.115 293.305 846.198 294.607C846.809 303.402 851.313 320.15 876.7 321.313C898.265 322.304 909.245 329.17 915.138 335.589C915.039 335.327 914.94 335.065 914.82 334.807Z" fill="#6078DF"/>
<path d="M927.801 334.807C928.238 333.762 928.787 332.727 929.438 331.716C930.73 329.688 932.422 327.745 934.438 325.944C938.585 322.404 944.153 319.488 950.522 317.607L955.401 316.344C957.1 315.943 958.811 315.58 960.507 315.146C963.903 314.325 967.261 313.422 970.535 312.343C973.789 311.267 976.997 310.012 979.667 308.326C982.389 306.668 984.28 304.578 985.848 302.475C984.064 304.518 981.982 306.5 979.195 307.981C976.461 309.49 973.258 310.569 969.99 311.471C966.711 312.373 963.34 313.115 959.941 313.774C958.248 314.122 956.52 314.408 954.814 314.725L949.559 315.824C942.611 317.519 936.116 320.433 931.053 324.225C928.585 326.148 926.454 328.258 924.747 330.503C923.893 331.622 923.142 332.771 922.515 333.956C922.498 333.99 922.48 334.017 922.463 334.051C925.014 322.785 932.538 306.633 954.645 303.189C959.933 302.365 964.714 301.744 971.003 300.605C982.233 298.581 988.882 296.56 992.689 293.77C994.075 292.764 996.506 293.305 996.423 294.607C995.812 303.402 991.308 320.15 965.921 321.313C944.356 322.304 933.376 329.17 927.483 335.589C927.582 335.327 927.682 335.065 927.801 334.807Z" fill="#6078DF"/>
<path d="M914.82 334.807C914.383 333.762 913.834 332.727 913.183 331.716C911.891 329.688 910.199 327.745 908.183 325.944C904.036 322.404 898.468 319.488 892.099 317.607L887.22 316.344C885.522 315.943 883.81 315.58 882.114 315.146C878.718 314.325 875.36 313.422 872.086 312.343C868.833 311.267 865.624 310.012 862.954 308.326C860.232 306.668 858.341 304.578 856.773 302.475C858.558 304.518 860.639 306.5 863.426 307.981C866.16 309.49 869.364 310.569 872.632 311.471C875.91 312.373 879.282 313.115 882.681 313.774C884.373 314.122 886.102 314.408 887.807 314.725L893.062 315.824C900.01 317.519 906.505 320.433 911.568 324.225C914.036 326.148 916.167 328.258 917.874 330.503C918.728 331.622 919.479 332.771 920.106 333.956C920.123 333.99 920.141 334.017 920.158 334.051C917.607 322.785 910.084 306.633 887.977 303.189C882.688 302.365 877.907 301.744 871.618 300.605C860.388 298.581 853.739 296.56 849.932 293.77C848.546 292.764 846.115 293.305 846.198 294.607C846.809 303.402 851.313 320.15 876.7 321.313C898.265 322.304 909.245 329.17 915.138 335.589C915.039 335.327 914.94 335.065 914.82 334.807Z" fill="#6078DF"/>
<path d="M1531.71 530.844L1055.47 452.125L955.839 490.768L854.811 481.458L804.205 451.041L795.531 459.331L824.83 479.347L755.699 446.571L725.936 409.426L714.255 417.474L767.718 480.161L790.884 491.033L739.13 486.828L741.588 498.768L835.152 495.218L904.831 496.249L979.843 521.922L1053.68 501.212L1039.28 522.52L1058.05 527.932L1088.35 495.811L1535.48 615.344L1531.71 530.844Z" fill="#11121D"/>
<mask id="mask0_1373_1166" style="mask-type:luminance" maskUnits="userSpaceOnUse" x="714" y="409" width="825" height="207">
<path d="M1532.13 530.76L1055.47 452.125L955.839 490.769L854.811 481.458L804.205 451.041L795.531 459.332L824.83 479.347L755.699 446.572L725.936 409.426L714.255 417.475L767.718 480.161L790.884 491.033L739.13 486.828L741.588 498.768L835.152 495.219L904.831 496.25L979.42 521.918L1053.68 501.212L1039.28 522.52L1058.05 527.932L1088.48 496.25L1538.04 615.344L1532.13 530.76Z" fill="white"/>
</mask>
<g mask="url(#mask0_1373_1166)">
<path d="M1556.93 617.457C1545 581.663 1525.78 545.647 1499.69 510.224C1497.78 507.628 1495.75 504.952 1492.27 502.68C1488.28 500.069 1482.83 498.228 1477.52 496.467C1461.97 491.291 1446.43 486.115 1430.89 480.94C1447.25 520.978 1463.65 561.022 1480.01 601.08C1466.26 561.963 1450.43 520.437 1399.7 486.329C1387.59 487.138 1373.31 484.334 1362.91 479.119C1385.48 520.383 1405 561.746 1421.4 603.076C1398.23 558.536 1361.16 514.313 1312.25 472.913C1302.3 476.749 1287.87 477.641 1273.87 475.274C1279.08 519.417 1284.27 563.75 1276.66 606.21C1262.34 561.915 1241.33 517.383 1213.86 473.18C1209.78 477.566 1195.52 477.434 1187.78 472.933C1178.91 515.902 1171.78 559.181 1166.44 602.738C1153.37 564.142 1140.31 525.433 1136.62 487.464C1135.82 479.288 1134.27 469.817 1121.35 463.559C1104.1 506.303 1037.39 536.048 1031.57 580.967C1028.89 544.119 1029.35 507.6 1032.93 471.542C1033.68 464.051 1034.44 456.231 1028.41 448.548C1022.35 440.86 1007.14 433.499 992.96 433.965L948.761 562.792C937.595 525.683 939.998 489.175 955.755 455.862C960.467 445.914 966.273 435.447 959.044 424.409C948.766 408.774 909.009 397.351 885.35 403.777C871.895 453.093 858.44 502.409 844.951 551.719C835.103 507.759 857.458 467.655 860.558 425.011C861.293 414.753 856.652 400.912 836.844 396.293C781.283 422.791 789.473 473.253 762.016 511.378C751.79 469.693 807.813 437.176 795.089 395.367C792.202 385.908 786.76 374.505 799.258 369.436C804.043 367.486 810.714 366.959 817.188 366.536C949.388 357.888 1094.2 375.489 1231.77 404.232C1321.7 423.028 1456.35 448.345 1499.39 501.662C1513.11 518.649 1522.51 536.282 1532.96 553.484C1546.78 576.174 1549.59 595.397 1556.93 617.457Z" fill="#1A1B30"/>
<g style="mix-blend-mode:multiply" opacity="0.24">
<path d="M912.097 481.979C921.942 482.379 931.96 482.304 941.565 481.021C954.468 479.286 966.136 475.417 978.863 473.332C1018.44 466.897 1059.15 478.577 1099.73 482.365C1152.44 487.297 1265.68 522.301 1324.98 534.565C1345.19 537.949 1367.21 546.106 1394.67 551.668C1413.03 555.386 1433.58 561.632 1465.3 561.632C1501.25 559.518 1514.89 560.354 1546.92 551.668C1557.31 548.856 1544.68 537.419 1552.38 542.178C1556.39 544.653 1556.81 548.317 1556.77 551.668C1556.57 574.612 1581.43 605.284 1560.04 624.944C1522.75 659.19 1421.14 674.355 1352.08 685.467C1283.01 696.578 1189.03 573.911 1117.46 570.859C1045.89 567.807 974.828 561.509 903.114 559.72C868.002 558.841 832.223 558.981 798.756 553.096C754.738 545.323 717.279 526.841 698.202 503.447C683.791 485.734 680.031 465.419 687.053 446.342C694.163 427.054 708.073 413.844 739.475 429.718C789.228 454.887 841.782 479.168 912.126 481.961L912.097 481.979Z" fill="#11121D"/>
</g>
</g>
<path d="M952.967 480.54C954.526 484.549 955.789 493.908 959.055 493.016C960.018 492.755 959.952 490.617 958.276 485.348C956.241 478.931 953.749 471.794 949.277 472.324C945.888 472.76 943.696 478.944 942.4 484.843C941.114 490.742 940.642 491.988 943.374 492.277C946.126 492.568 946.002 485.996 947.541 481.341C947.96 486.282 947.167 495.037 951.48 494.773C953.572 494.645 954.068 486.59 952.956 480.558" fill="#F4AA5A"/>
<path d="M907.052 479.027C907.864 483.258 907.435 492.696 910.802 492.394C911.797 492.31 912.107 490.197 911.409 484.717C910.559 478.04 909.375 470.567 904.881 470.282C901.461 470.104 898.201 475.794 895.88 481.366C893.56 486.938 892.865 488.076 895.504 488.851C898.163 489.627 899.212 483.144 901.562 478.834C901.09 483.771 898.746 492.239 903.035 492.758C905.122 493.007 907.05 485.17 907.041 479.036" fill="#F4AA5A"/>
</g>
<defs>
<filter id="filter0_f_1373_1166" x="203.564" y="-327.091" width="1434.18" height="1434.18" filterUnits="userSpaceOnUse" color-interpolation-filters="sRGB">
<feFlood flood-opacity="0" result="BackgroundImageFix"/>
<feBlend mode="normal" in="SourceGraphic" in2="BackgroundImageFix" result="shape"/>
<feGaussianBlur stdDeviation="204.545" result="effect1_foregroundBlur_1373_1166"/>
</filter>
<filter id="filter1_i_1373_1166" x="772.138" y="241.483" width="298.581" height="298.581" filterUnits="userSpaceOnUse" color-interpolation-filters="sRGB">
<feFlood flood-opacity="0" result="BackgroundImageFix"/>
<feBlend mode="normal" in="SourceGraphic" in2="BackgroundImageFix" result="shape"/>
<feColorMatrix in="SourceAlpha" type="matrix" values="0 0 0 0 0 0 0 0 0 0 0 0 0 0 0 0 0 0 127 0" result="hardAlpha"/>
<feOffset dx="-14" dy="-50"/>
<feComposite in2="hardAlpha" operator="arithmetic" k2="-1" k3="1"/>
<feColorMatrix type="matrix" values="0 0 0 0 0.8 0 0 0 0 0.847059 0 0 0 0 0.94902 0 0 0 1 0"/>
<feBlend mode="normal" in2="shape" result="effect1_innerShadow_1373_1166"/>
</filter>
<filter id="filter2_i_1373_1166" x="795.48" y="327.07" width="77.8062" height="77.8059" filterUnits="userSpaceOnUse" color-interpolation-filters="sRGB">
<feFlood flood-opacity="0" result="BackgroundImageFix"/>
<feBlend mode="normal" in="SourceGraphic" in2="BackgroundImageFix" result="shape"/>
<feColorMatrix in="SourceAlpha" type="matrix" values="0 0 0 0 0 0 0 0 0 0 0 0 0 0 0 0 0 0 127 0" result="hardAlpha"/>
<feOffset dx="5" dy="1"/>
<feComposite in2="hardAlpha" operator="arithmetic" k2="-1" k3="1"/>
<feColorMatrix type="matrix" values="0 0 0 0 0.686275 0 0 0 0 0.733333 0 0 0 0 0.835294 0 0 0 1 0"/>
<feBlend mode="normal" in2="shape" result="effect1_innerShadow_1373_1166"/>
</filter>
<filter id="filter3_i_1373_1166" x="887.125" y="261.159" width="39.2732" height="39.2732" filterUnits="userSpaceOnUse" color-interpolation-filters="sRGB">
<feFlood flood-opacity="0" result="BackgroundImageFix"/>
<feBlend mode="normal" in="SourceGraphic" in2="BackgroundImageFix" result="shape"/>
<feColorMatrix in="SourceAlpha" type="matrix" values="0 0 0 0 0 0 0 0 0 0 0 0 0 0 0 0 0 0 127 0" result="hardAlpha"/>
<feOffset dx="2" dy="2"/>
<feComposite in2="hardAlpha" operator="arithmetic" k2="-1" k3="1"/>
<feColorMatrix type="matrix" values="0 0 0 0 0.686667 0 0 0 0 0.733836 0 0 0 0 0.836035 0 0 0 1 0"/>
<feBlend mode="normal" in2="shape" result="effect1_innerShadow_1373_1166"/>
</filter>
<filter id="filter4_i_1373_1166" x="903.468" y="445.757" width="53.4192" height="53.4192" filterUnits="userSpaceOnUse" color-interpolation-filters="sRGB">
<feFlood flood-opacity="0" result="BackgroundImageFix"/>
<feBlend mode="normal" in="SourceGraphic" in2="BackgroundImageFix" result="shape"/>
<feColorMatrix in="SourceAlpha" type="matrix" values="0 0 0 0 0 0 0 0 0 0 0 0 0 0 0 0 0 0 127 0" result="hardAlpha"/>
<feOffset dx="2" dy="2"/>
<feComposite in2="hardAlpha" operator="arithmetic" k2="-1" k3="1"/>
<feColorMatrix type="matrix" values="0 0 0 0 0.686667 0 0 0 0 0.733836 0 0 0 0 0.836035 0 0 0 1 0"/>
<feBlend mode="normal" in2="shape" result="effect1_innerShadow_1373_1166"/>
</filter>
<filter id="filter5_i_1373_1166" x="953.77" y="423.115" width="30.8826" height="30.8826" filterUnits="userSpaceOnUse" color-interpolation-filters="sRGB">
<feFlood flood-opacity="0" result="BackgroundImageFix"/>
<feBlend mode="normal" in="SourceGraphic" in2="BackgroundImageFix" result="shape"/>
<feColorMatrix in="SourceAlpha" type="matrix" values="0 0 0 0 0 0 0 0 0 0 0 0 0 0 0 0 0 0 127 0" result="hardAlpha"/>
<feOffset dx="1" dy="2"/>
<feComposite in2="hardAlpha" operator="arithmetic" k2="-1" k3="1"/>
<feColorMatrix type="matrix" values="0 0 0 0 0.686275 0 0 0 0 0.733333 0 0 0 0 0.835294 0 0 0 1 0"/>
<feBlend mode="normal" in2="shape" result="effect1_innerShadow_1373_1166"/>
</filter>
<filter id="filter6_i_1373_1166" x="984.026" y="293.87" width="32.8176" height="32.8176" filterUnits="userSpaceOnUse" color-interpolation-filters="sRGB">
<feFlood flood-opacity="0" result="BackgroundImageFix"/>
<feBlend mode="normal" in="SourceGraphic" in2="BackgroundImageFix" result="shape"/>
<feColorMatrix in="SourceAlpha" type="matrix" values="0 0 0 0 0 0 0 0 0 0 0 0 0 0 0 0 0 0 127 0" result="hardAlpha"/>
<feOffset dx="2" dy="2"/>
<feComposite in2="hardAlpha" operator="arithmetic" k2="-1" k3="1"/>
<feColorMatrix type="matrix" values="0 0 0 0 0.686667 0 0 0 0 0.733836 0 0 0 0 0.836035 0 0 0 1 0"/>
<feBlend mode="normal" in2="shape" result="effect1_innerShadow_1373_1166"/>
</filter>
<filter id="filter7_i_1373_1166" x="1036.68" y="360.14" width="17.6572" height="17.6572" filterUnits="userSpaceOnUse" color-interpolation-filters="sRGB">
<feFlood flood-opacity="0" result="BackgroundImageFix"/>
<feBlend mode="normal" in="SourceGraphic" in2="BackgroundImageFix" result="shape"/>
<feColorMatrix in="SourceAlpha" type="matrix" values="0 0 0 0 0 0 0 0 0 0 0 0 0 0 0 0 0 0 127 0" result="hardAlpha"/>
<feOffset dx="1" dy="1"/>
<feComposite in2="hardAlpha" operator="arithmetic" k2="-1" k3="1"/>
<feColorMatrix type="matrix" values="0 0 0 0 0.686275 0 0 0 0 0.733333 0 0 0 0 0.835294 0 0 0 1 0"/>
<feBlend mode="normal" in2="shape" result="effect1_innerShadow_1373_1166"/>
</filter>
<filter id="filter8_i_1373_1166" x="927.752" y="256.074" width="17.6572" height="17.6572" filterUnits="userSpaceOnUse" color-interpolation-filters="sRGB">
<feFlood flood-opacity="0" result="BackgroundImageFix"/>
<feBlend mode="normal" in="SourceGraphic" in2="BackgroundImageFix" result="shape"/>
<feColorMatrix in="SourceAlpha" type="matrix" values="0 0 0 0 0 0 0 0 0 0 0 0 0 0 0 0 0 0 127 0" result="hardAlpha"/>
<feOffset dx="1" dy="1"/>
<feComposite in2="hardAlpha" operator="arithmetic" k2="-1" k3="1"/>
<feColorMatrix type="matrix" values="0 0 0 0 0.686275 0 0 0 0 0.733333 0 0 0 0 0.835294 0 0 0 1 0"/>
<feBlend mode="normal" in2="shape" result="effect1_innerShadow_1373_1166"/>
</filter>
<filter id="filter9_i_1373_1166" x="777.976" y="382.51" width="17.6572" height="17.6572" filterUnits="userSpaceOnUse" color-interpolation-filters="sRGB">
<feFlood flood-opacity="0" result="BackgroundImageFix"/>
<feBlend mode="normal" in="SourceGraphic" in2="BackgroundImageFix" result="shape"/>
<feColorMatrix in="SourceAlpha" type="matrix" values="0 0 0 0 0 0 0 0 0 0 0 0 0 0 0 0 0 0 127 0" result="hardAlpha"/>
<feOffset dx="1" dy="1"/>
<feComposite in2="hardAlpha" operator="arithmetic" k2="-1" k3="1"/>
<feColorMatrix type="matrix" values="0 0 0 0 0.686275 0 0 0 0 0.733333 0 0 0 0 0.835294 0 0 0 1 0"/>
<feBlend mode="normal" in2="shape" result="effect1_innerShadow_1373_1166"/>
</filter>
<filter id="filter10_i_1373_1166" x="860.417" y="464.95" width="31.1433" height="31.1433" filterUnits="userSpaceOnUse" color-interpolation-filters="sRGB">
<feFlood flood-opacity="0" result="BackgroundImageFix"/>
<feBlend mode="normal" in="SourceGraphic" in2="BackgroundImageFix" result="shape"/>
<feColorMatrix in="SourceAlpha" type="matrix" values="0 0 0 0 0 0 0 0 0 0 0 0 0 0 0 0 0 0 127 0" result="hardAlpha"/>
<feOffset dx="1" dy="1"/>
<feComposite in2="hardAlpha" operator="arithmetic" k2="-1" k3="1"/>
<feColorMatrix type="matrix" values="0 0 0 0 0.686275 0 0 0 0 0.733333 0 0 0 0 0.835294 0 0 0 1 0"/>
<feBlend mode="normal" in2="shape" result="effect1_innerShadow_1373_1166"/>
</filter>
<filter id="filter11_i_1373_1166" x="975.439" y="497.304" width="18.2185" height="18.2185" filterUnits="userSpaceOnUse" color-interpolation-filters="sRGB">
<feFlood flood-opacity="0" result="BackgroundImageFix"/>
<feBlend mode="normal" in="SourceGraphic" in2="BackgroundImageFix" result="shape"/>
<feColorMatrix in="SourceAlpha" type="matrix" values="0 0 0 0 0 0 0 0 0 0 0 0 0 0 0 0 0 0 127 0" result="hardAlpha"/>
<feOffset dx="1" dy="1"/>
<feComposite in2="hardAlpha" operator="arithmetic" k2="-1" k3="1"/>
<feColorMatrix type="matrix" values="0 0 0 0 0.686275 0 0 0 0 0.733333 0 0 0 0 0.835294 0 0 0 1 0"/>
<feBlend mode="normal" in2="shape" result="effect1_innerShadow_1373_1166"/>
</filter>
<filter id="filter12_i_1373_1166" x="963.323" y="460.874" width="10.1616" height="10.1616" filterUnits="userSpaceOnUse" color-interpolation-filters="sRGB">
<feFlood flood-opacity="0" result="BackgroundImageFix"/>
<feBlend mode="normal" in="SourceGraphic" in2="BackgroundImageFix" result="shape"/>
<feColorMatrix in="SourceAlpha" type="matrix" values="0 0 0 0 0 0 0 0 0 0 0 0 0 0 0 0 0 0 127 0" result="hardAlpha"/>
<feOffset dx="1"/>
<feComposite in2="hardAlpha" operator="arithmetic" k2="-1" k3="1"/>
<feColorMatrix type="matrix" values="0 0 0 0 0 0 0 0 0 0 0 0 0 0 0 0 0 0 0.25 0"/>
<feBlend mode="normal" in2="shape" result="effect1_innerShadow_1373_1166"/>
</filter>
<filter id="filter13_i_1373_1166" x="833.971" y="313.042" width="10.1616" height="10.1616" filterUnits="userSpaceOnUse" color-interpolation-filters="sRGB">
<feFlood flood-opacity="0" result="BackgroundImageFix"/>
<feBlend mode="normal" in="SourceGraphic" in2="BackgroundImageFix" result="shape"/>
<feColorMatrix in="SourceAlpha" type="matrix" values="0 0 0 0 0 0 0 0 0 0 0 0 0 0 0 0 0 0 127 0" result="hardAlpha"/>
<feOffset dx="1"/>
<feComposite in2="hardAlpha" operator="arithmetic" k2="-1" k3="1"/>
<feColorMatrix type="matrix" values="0 0 0 0 0.686275 0 0 0 0 0.733333 0 0 0 0 0.835294 0 0 0 1 0"/>
<feBlend mode="normal" in2="shape" result="effect1_innerShadow_1373_1166"/>
</filter>
<filter id="filter14_i_1373_1166" x="866.967" y="320.98" width="50.7178" height="50.7537" filterUnits="userSpaceOnUse" color-interpolation-filters="sRGB">
<feFlood flood-opacity="0" result="BackgroundImageFix"/>
<feBlend mode="normal" in="SourceGraphic" in2="BackgroundImageFix" result="shape"/>
<feColorMatrix in="SourceAlpha" type="matrix" values="0 0 0 0 0 0 0 0 0 0 0 0 0 0 0 0 0 0 127 0" result="hardAlpha"/>
<feOffset dx="3.40191" dy="-3.40191"/>
<feComposite in2="hardAlpha" operator="arithmetic" k2="-1" k3="1"/>
<feColorMatrix type="matrix" values="0 0 0 0 0.85098 0 0 0 0 0.898039 0 0 0 0 1 0 0 0 1 0"/>
<feBlend mode="normal" in2="shape" result="effect1_innerShadow_1373_1166"/>
</filter>
<filter id="filter15_i_1373_1166" x="925.007" y="320.983" width="50.7166" height="50.7524" filterUnits="userSpaceOnUse" color-interpolation-filters="sRGB">
<feFlood flood-opacity="0" result="BackgroundImageFix"/>
<feBlend mode="normal" in="SourceGraphic" in2="BackgroundImageFix" result="shape"/>
<feColorMatrix in="SourceAlpha" type="matrix" values="0 0 0 0 0 0 0 0 0 0 0 0 0 0 0 0 0 0 127 0" result="hardAlpha"/>
<feOffset dx="-3.40191" dy="-3.40191"/>
<feComposite in2="hardAlpha" operator="arithmetic" k2="-1" k3="1"/>
<feColorMatrix type="matrix" values="0 0 0 0 0.85098 0 0 0 0 0.898039 0 0 0 0 1 0 0 0 1 0"/>
<feBlend mode="normal" in2="shape" result="effect1_innerShadow_1373_1166"/>
</filter>
<filter id="filter16_i_1373_1166" x="909.469" y="362.373" width="23.8313" height="31.6777" filterUnits="userSpaceOnUse" color-interpolation-filters="sRGB">
<feFlood flood-opacity="0" result="BackgroundImageFix"/>
<feBlend mode="normal" in="SourceGraphic" in2="BackgroundImageFix" result="shape"/>
<feColorMatrix in="SourceAlpha" type="matrix" values="0 0 0 0 0 0 0 0 0 0 0 0 0 0 0 0 0 0 127 0" result="hardAlpha"/>
<feOffset dy="-9"/>
<feComposite in2="hardAlpha" operator="arithmetic" k2="-1" k3="1"/>
<feColorMatrix type="matrix" values="0 0 0 0 0.361994 0 0 0 0 0.45073 0 0 0 0 0.831559 0 0 0 1 0"/>
<feBlend mode="normal" in2="shape" result="effect1_innerShadow_1373_1166"/>
</filter>
<radialGradient id="paint0_radial_1373_1166" cx="0" cy="0" r="1" gradientUnits="userSpaceOnUse" gradientTransform="translate(920.803 390.148) rotate(-84.0278) scale(443.867 268.991)">
<stop stop-color="white" stop-opacity="0.93"/>
<stop offset="0.250637" stop-color="#D0C9FA" stop-opacity="0.770383"/>
<stop offset="0.369792" stop-color="#654DFD" stop-opacity="0.770383"/>
<stop offset="0.493846" stop-color="#2400FF" stop-opacity="0.770383"/>
<stop offset="0.71875" stop-color="#0C0054" stop-opacity="0.877197"/>
<stop offset="0.885417" stop-color="#02000F"/>
</radialGradient>
<clipPath id="clip0_1373_1166">
<rect width="1439" height="655" fill="white"/>
</clipPath>
</defs>
</svg>
